{"glyphs":{"0":{"ha":997,"x_min":-107,"x_max":1024,"o":"m 1024 631 l 1024 617 l 872 617 q 873 614 872 615 q 874 610 874 613 l 971 610 l 971 603 l 935 603 q 936 590 936 597 q 936 575 936 582 l 932 575 l 932 554 l 869 554 l 869 533 l 926 533 l 926 513 l 942 513 l 942 492 l 938 492 l 938 471 l 889 471 l 889 443 l 963 443 l 963 415 l 892 415 l 890 401 l 919 401 q 919 391 919 396 q 918 381 919 386 l 936 381 q 935 374 935 378 q 935 367 935 369 l 963 367 l 963 346 l 999 346 l 999 342 q 997 331 997 336 q 996 318 997 325 l 992 318 l 990 304 l 911 304 q 909 290 910 297 q 906 276 908 283 l 956 276 l 951 256 l 918 256 l 910 228 l 888 228 l 879 207 l 851 207 q 845 193 849 200 q 838 179 842 186 l 800 179 q 792 165 796 172 q 783 151 788 158 l 854 151 q 844 138 849 144 q 833 124 839 131 l 847 124 l 840 117 l 868 117 l 856 103 l 807 103 l 793 89 l 771 89 q 735 61 753 74 l 642 61 l 607 40 l 728 40 q 681 19 704 28 l 722 19 q 686 8 704 14 q 649 -1 668 3 l 651 -1 q 631 -5 642 -3 q 610 -8 621 -7 l 751 -8 q 710 -12 732 -11 q 665 -14 689 -14 q 622 -12 643 -14 q 581 -8 600 -11 l 438 -8 q 417 -5 428 -7 q 396 -1 407 -3 l 394 -1 q 321 19 353 7 l 279 19 q 233 40 254 28 l 113 40 q 94 51 103 46 q 76 61 85 56 l 169 61 q 133 89 151 74 l 156 89 l 142 103 l 189 103 l 176 117 l 149 117 q 143 124 144 121 l 129 124 q 108 151 118 135 l 36 151 q 28 165 32 158 q 19 179 24 172 l 57 179 q 50 193 54 186 q 43 207 46 200 l 72 207 q 64 228 67 218 l 85 228 l 76 256 l 108 256 q 106 266 107 261 q 103 276 104 271 l 117 276 q 115 290 115 283 q 111 304 114 297 l 57 304 l 56 318 l 36 318 l 33 342 l 33 346 l 117 346 q 115 356 115 351 q 115 367 115 361 l 57 367 l 56 381 l 61 381 q 60 391 60 386 q 60 401 60 396 l 44 401 l 43 415 l 42 415 q 41 429 42 422 q 40 443 40 436 l 35 443 q 34 457 35 450 q 33 471 33 464 l 42 471 l 42 492 l 65 492 l 65 513 l 50 513 l 50 533 l 46 533 l 46 554 l -11 554 q -10 565 -10 560 q -10 575 -10 569 l 72 575 l 72 603 l 83 603 q 85 610 85 606 l 189 610 l 189 617 l 104 617 l 106 631 l 74 631 l 75 636 q 76 651 75 646 l 60 651 q 61 662 61 657 q 63 672 61 667 l 67 672 q 68 679 68 675 q 69 686 68 683 l 88 686 q 90 697 89 692 q 93 707 92 701 l 8 707 q 13 717 11 713 q 15 728 14 722 l 36 728 l 44 749 l -107 749 l -94 776 l -19 776 l -17 783 l 49 783 q 64 811 54 797 l 26 811 l 31 818 l 82 818 q 92 833 88 825 q 103 846 97 840 l 144 846 q 151 853 147 849 q 157 860 154 857 l 161 860 q 169 867 165 863 q 175 874 172 871 l 169 874 l 194 894 l 197 894 l 226 915 l 228 915 l 253 929 q 259 933 256 932 q 267 936 263 935 l 239 936 q 246 940 242 939 q 253 943 250 942 l 267 943 q 284 951 275 947 q 301 957 293 954 l 313 957 q 323 961 318 960 q 333 964 328 963 l 331 964 q 344 968 338 967 q 357 971 350 969 l 360 971 q 426 982 392 978 q 497 986 460 986 q 633 971 568 986 l 631 971 q 644 968 638 969 q 657 964 651 967 l 661 964 q 672 961 667 963 q 682 957 676 960 l 672 957 q 691 951 682 954 q 708 943 700 947 l 694 943 l 710 936 l 738 936 q 744 933 740 935 q 751 929 747 932 l 750 929 l 775 915 l 772 915 q 788 905 781 910 q 803 894 796 900 l 800 894 q 813 884 807 889 q 824 874 818 879 l 829 874 q 837 867 833 871 q 843 860 840 863 l 839 860 l 851 846 l 811 846 q 822 833 817 840 q 832 818 826 825 l 781 818 l 785 811 l 824 811 q 832 798 828 806 q 840 783 836 790 l 775 783 l 779 776 l 704 776 l 717 749 l 867 749 l 875 728 l 853 728 q 856 717 854 722 q 858 707 857 713 l 847 707 l 851 686 l 917 686 q 919 672 919 678 l 929 672 q 931 662 931 667 q 932 651 932 657 l 942 651 q 943 636 943 646 q 944 631 943 632 l 1024 631 m 433 718 q 393 707 411 718 l 474 707 q 433 718 458 718 m 663 617 q 661 628 663 624 l 661 631 l 582 631 q 581 641 582 636 q 579 651 581 646 l 569 651 q 567 662 568 657 q 564 672 567 667 l 554 672 q 547 686 553 678 l 482 686 q 476 694 479 690 q 469 701 474 699 q 458 686 463 694 l 439 686 q 436 680 438 683 q 432 672 435 676 l 428 672 q 425 662 426 667 q 422 651 424 657 l 439 651 q 437 641 438 646 q 436 631 436 636 l 467 631 l 467 617 l 663 617 m 610 603 q 608 610 610 607 l 446 610 l 446 603 l 435 603 q 434 590 435 597 q 433 575 433 582 l 351 575 l 351 554 l 408 554 q 408 544 408 549 q 407 533 407 539 l 413 533 l 413 513 l 428 513 l 428 492 l 404 492 l 404 471 l 396 471 l 396 443 l 403 443 l 403 415 l 406 415 l 406 401 l 422 401 l 422 381 l 418 381 l 418 367 l 476 367 q 478 358 478 363 q 478 349 478 353 l 478 346 l 394 346 l 399 318 l 418 318 l 422 304 l 476 304 q 494 276 483 286 l 481 276 q 529 258 499 258 q 579 276 561 258 l 529 276 q 546 304 539 286 l 625 304 l 629 318 l 633 318 l 638 346 l 600 346 l 600 349 q 601 358 601 353 q 601 367 601 363 l 574 367 l 574 381 l 557 381 l 557 401 l 529 401 l 529 415 l 600 415 l 600 443 l 526 443 l 526 471 l 575 471 l 575 492 l 579 492 l 579 513 l 565 513 l 565 533 l 507 533 l 507 554 l 569 554 l 569 575 l 574 575 l 574 603 l 610 603 z "},"1":{"ha":774,"x_min":-33,"x_max":938,"o":"m 938 665 l 793 665 l 793 651 l 806 651 l 806 638 l 753 638 l 753 610 l 682 610 l 682 596 l 718 596 l 718 582 l 721 582 l 721 568 l 690 568 l 690 540 l 689 540 l 689 519 l 711 519 l 711 492 l 657 492 l 657 471 l 694 471 l 694 450 l 715 450 l 715 422 l 607 422 l 607 408 l 556 408 l 556 381 l 735 381 l 735 374 l 610 374 l 610 346 l 751 346 l 751 332 l 589 332 l 589 311 l 701 311 l 701 283 l 700 283 l 700 256 l 713 256 l 713 242 l 733 242 l 733 221 l 753 221 l 753 200 l 736 200 l 736 179 l 697 179 l 697 158 l 696 158 l 696 131 l 694 131 l 694 124 l 683 124 l 683 96 l 689 96 l 689 89 l 700 89 l 700 82 l 718 82 l 718 54 l 739 54 l 739 38 q 738 26 739 31 l 740 26 q 725 6 738 14 l 688 6 q 668 0 681 0 l 396 0 q 376 6 383 0 l 413 6 q 397 26 403 13 l 393 26 q 392 32 393 29 q 392 38 392 35 l 392 54 l 371 54 l 371 82 l 353 82 l 353 89 l 342 89 l 342 96 l 336 96 l 336 124 l 347 124 l 347 131 l 349 131 l 349 158 l 350 158 l 350 179 l 389 179 l 389 200 l 406 200 l 406 221 l 386 221 l 386 242 l 365 242 l 365 256 l 353 256 l 353 283 l 354 283 l 354 311 l 242 311 l 242 332 l 404 332 l 404 346 l 263 346 l 263 374 l 388 374 l 388 381 l 208 381 l 208 408 l 260 408 l 260 422 l 368 422 l 368 450 l 347 450 l 347 471 l 310 471 l 310 492 l 364 492 l 364 519 l 342 519 l 342 540 l 343 540 l 343 568 l 374 568 l 374 582 l 371 582 l 371 586 l 365 582 l 351 582 l 333 568 l 306 568 l 269 540 l 272 540 l 246 519 l 233 519 l 197 492 l 228 492 l 211 479 q 183 473 197 469 q 158 490 169 476 l 157 492 l 128 492 l 106 519 l 118 519 l 101 540 l 99 540 l 76 568 l 104 568 l 93 582 l 107 582 l 96 596 l 44 596 l 33 610 l 106 610 l 85 638 l 136 638 l 128 649 q 127 650 128 650 q 126 651 126 650 l 114 651 q 111 665 111 660 l 256 665 q 258 686 254 675 l 239 686 q 250 700 243 694 l -33 700 l -29 703 l 3 728 l 64 728 l 90 749 l 108 763 l 163 763 l 190 783 l 158 783 l 167 790 l 139 790 l 167 811 l 171 811 l 197 832 l 201 832 l 219 846 l 221 846 l 229 853 l 235 853 l 269 881 l 178 881 l 213 908 l 350 908 l 358 915 l 1 915 l 11 922 l 357 922 l 375 936 l 408 963 l 410 964 l 514 964 q 542 972 526 972 l 804 972 q 828 964 819 972 l 725 964 q 739 935 739 953 l 739 922 l 393 922 l 393 915 l 750 915 l 750 908 l 614 908 l 614 881 l 706 881 l 706 853 l 701 853 l 701 846 l 700 846 l 700 832 l 696 832 l 696 811 l 692 811 l 692 790 l 719 790 l 719 783 l 751 783 l 751 763 l 696 763 l 696 749 l 697 749 l 697 728 l 636 728 l 636 700 l 918 700 l 918 686 l 938 686 l 938 665 z "},"2":{"ha":978,"x_min":-75,"x_max":1060,"o":"m 908 40 l 908 33 l 1053 33 q 1049 19 1053 26 l 897 19 q 883 6 893 10 l 947 6 q 928 0 940 0 l 128 0 q 108 6 115 0 l 44 6 q 37 12 40 8 q 31 19 33 15 l 183 19 q 178 33 181 25 l 33 33 l 33 40 l 185 40 l 185 61 l 67 61 l 67 68 l -12 68 l -12 89 l 151 89 l 151 110 l 0 110 l 0 138 l 51 138 l 51 151 l 93 151 l 93 179 l 72 179 l 72 182 q 73 192 72 185 q 75 207 74 199 l 143 207 q 147 217 144 213 q 150 228 149 222 l 58 228 q 63 235 61 231 q 68 242 65 239 l 74 242 q 89 257 81 250 l 104 268 q 106 269 106 268 q 107 269 106 269 l 106 269 q 115 276 111 272 q 125 283 119 281 l 132 283 q 138 288 135 286 q 142 290 140 289 l 143 290 q 158 301 150 296 q 171 311 165 306 l 158 311 q 168 318 164 314 q 178 325 172 322 l 182 325 l 211 346 l 225 346 q 244 360 235 353 q 263 374 253 368 l 208 374 q 227 388 218 381 q 246 401 236 396 l 301 401 q 307 406 304 404 q 311 408 310 407 l 318 408 q 328 415 324 411 q 338 422 332 419 l 271 422 q 291 437 282 429 q 308 450 300 444 l 301 450 l 310 457 l 361 457 q 367 461 364 460 q 371 464 369 463 l 257 464 l 293 492 l 426 492 l 435 499 l 332 499 l 357 519 l 418 519 l 435 533 l 358 533 q 374 548 367 540 q 388 561 382 556 l 526 561 q 531 565 529 564 q 533 568 532 567 l 494 568 q 502 575 499 571 q 508 582 506 579 l 360 582 q 376 603 371 593 l 469 603 l 485 631 l 532 631 q 539 658 539 647 l 583 658 l 583 665 l 618 665 q 618 676 618 671 q 617 686 618 681 l 568 686 l 565 693 l 483 693 l 479 686 l 511 686 q 506 676 508 681 q 501 665 504 671 l 447 665 l 444 658 l 417 658 q 415 653 415 656 q 414 647 415 650 q 410 638 413 642 q 404 631 407 633 l 297 631 q 277 618 289 621 q 251 615 265 615 l -10 615 q -36 631 -28 615 l 71 631 q 67 646 67 638 l 67 658 l 94 658 l 94 665 l 149 665 q 149 676 149 671 q 150 686 150 681 l 118 686 q 119 693 118 690 l 69 693 q 70 697 69 696 q 71 700 71 699 l -35 700 q -33 707 -33 703 q -32 714 -33 711 l 78 714 l 85 742 l 65 742 q 68 749 65 743 l -75 749 q -72 759 -74 754 q -68 769 -69 764 l 146 769 q 151 780 149 775 q 156 790 154 785 l 1 790 q 10 805 6 797 q 18 818 14 813 l 47 818 q 53 825 50 821 q 57 832 56 829 l 144 832 q 150 839 149 836 l 69 839 q 75 846 72 842 q 81 853 78 850 l 151 853 l 158 860 l 149 860 q 176 888 161 875 l 208 888 l 217 894 l 150 894 l 158 901 l 206 901 q 216 908 211 904 q 225 915 221 913 l 308 915 l 331 929 l 386 929 q 415 944 400 938 q 444 957 429 951 l 308 957 q 317 961 313 960 q 326 964 322 963 l 275 964 q 287 968 282 967 q 297 971 292 969 l 544 971 q 699 992 615 992 q 869 971 794 992 l 622 971 q 635 968 629 969 q 646 964 640 967 l 697 964 q 708 961 703 963 q 717 957 713 960 l 853 957 q 884 944 869 951 q 913 929 899 938 l 857 929 q 868 922 863 926 q 879 915 874 918 l 796 915 l 814 901 l 765 901 l 774 894 l 842 894 l 850 888 l 817 888 q 831 874 824 882 q 843 860 838 867 l 853 860 q 856 857 854 858 q 858 853 857 856 l 788 853 q 792 846 790 850 q 797 839 794 842 l 878 839 l 882 832 l 794 832 q 801 818 799 825 l 772 818 l 785 790 l 939 790 q 943 780 942 785 q 946 769 944 775 l 732 769 q 735 759 735 764 q 738 749 736 754 l 881 749 q 881 746 881 747 q 882 742 882 744 l 901 742 q 906 714 906 728 l 975 714 l 976 700 l 849 700 q 850 693 850 697 l 933 693 l 933 686 l 982 686 l 982 665 l 947 665 q 946 658 947 661 l 901 658 q 901 644 901 651 q 899 631 900 638 l 851 631 q 849 617 850 624 q 844 603 847 610 l 753 603 q 750 592 751 597 q 746 582 749 588 l 893 582 l 888 568 l 926 568 l 922 561 l 783 561 q 776 547 781 554 q 769 533 772 540 l 844 533 q 841 526 843 531 q 836 519 839 522 l 775 519 l 761 499 l 863 499 l 858 492 l 725 492 l 701 464 l 814 464 q 811 461 813 463 q 808 457 810 460 l 757 457 l 750 450 l 758 450 l 729 422 l 794 422 q 788 415 792 419 q 779 408 783 411 l 772 408 l 765 401 l 710 401 l 676 374 l 731 374 q 713 360 722 367 q 694 346 704 353 l 682 346 l 653 325 l 649 325 q 638 318 643 322 q 629 311 633 314 l 642 311 q 629 302 636 307 q 615 293 622 297 l 613 290 l 611 290 l 606 286 l 899 286 q 913 283 904 286 l 906 283 q 922 269 914 279 l 924 269 q 929 249 929 263 l 929 242 l 924 242 l 924 228 l 1015 228 l 1015 207 l 947 207 l 947 179 l 968 179 l 968 151 l 926 151 l 926 138 l 875 138 l 875 110 l 1026 110 l 1026 89 l 863 89 l 863 68 l 942 68 l 942 61 l 1060 61 l 1060 40 l 908 40 m 479 700 l 606 700 q 589 714 600 710 l 519 714 q 493 718 511 718 q 468 714 479 718 l 358 714 q 346 708 351 713 q 335 700 340 704 l 440 700 q 438 697 439 699 q 435 693 436 696 l 482 693 q 479 700 482 694 z "},"3":{"ha":985,"x_min":-217,"x_max":1301,"o":"m 1086 269 l 1301 269 q 1300 263 1300 267 q 1299 256 1300 258 q 1297 249 1299 251 l 1169 249 l 1165 235 l 926 235 l 922 221 l 1093 221 q 1091 214 1092 218 q 1088 207 1090 210 l 936 207 l 933 200 l 1014 200 q 1010 190 1013 194 q 1004 179 1007 185 l 907 179 l 903 172 l 931 172 l 926 165 l 676 165 q 667 151 671 158 q 657 138 663 144 l 740 138 q 729 124 735 129 l 553 124 l 532 103 l 922 103 q 906 89 914 96 q 888 75 897 82 l 760 75 q 744 65 753 69 q 728 54 736 60 l 514 54 q 501 47 508 50 q 486 40 493 43 l 575 40 q 558 33 567 36 q 542 26 550 29 l 714 26 q 647 6 683 14 l 529 6 q 492 -2 511 1 q 453 -8 472 -6 l 410 -8 q 364 -12 388 -11 q 317 -14 340 -14 q 266 -12 290 -14 q 219 -8 242 -11 l 261 -8 q 222 -2 240 -6 q 185 6 203 1 l 303 6 q 236 26 268 14 l 65 26 q 49 33 57 29 q 33 40 40 36 l -54 40 q -67 47 -61 43 q -81 54 -74 51 l 133 54 q 116 65 124 60 q 100 75 108 69 l 228 75 q 194 103 211 86 l -196 103 q -217 124 -208 114 l -40 124 l -53 138 l -136 138 q -147 151 -142 144 q -156 165 -151 158 l 96 165 l 92 172 l 64 172 l 60 179 l 157 179 q 151 190 154 185 q 146 200 149 194 l 67 200 q 64 207 64 206 l 215 207 l 210 221 l 40 221 l 36 235 l 275 235 q 272 249 272 243 l 401 249 q 400 256 400 251 l 850 256 q 910 269 886 256 l 696 269 q 701 274 699 272 q 706 276 703 275 l 611 276 q 617 274 614 275 q 621 269 619 272 l 281 269 q 311 260 293 264 q 358 256 329 256 l -93 256 q -93 263 -93 258 q -94 269 -93 267 l 246 269 l 246 276 l 3 276 q 24 304 3 296 l 181 304 q 190 306 183 306 l 469 306 q 483 304 479 306 l 701 304 l 704 311 l 599 311 q 600 320 600 315 q 600 329 600 325 l 600 339 l 576 339 q 564 367 574 357 l 563 367 l 556 374 l 464 374 q 393 390 442 390 l 219 390 q 193 401 201 390 l 303 401 l 299 408 l 282 408 q 276 428 276 415 l 276 436 l 274 436 l 274 464 l 290 464 l 290 485 l 246 485 l 246 506 l 321 506 l 321 526 l 335 526 l 335 554 l 250 554 l 254 568 l 304 568 l 307 575 l 354 575 l 358 582 l 315 582 q 323 590 319 586 q 331 596 326 594 l 343 603 l 324 603 l 374 631 l 365 631 l 390 644 l 388 644 l 413 658 l 407 658 l 458 686 l 471 693 l 464 693 l 479 701 l 114 701 q 94 707 101 701 l 142 707 q 128 721 132 711 l 75 721 q 69 735 72 726 l 94 735 l 94 742 l 101 742 l 101 749 l 74 749 l 74 769 l 92 769 l 92 797 l 99 797 l 99 811 l 93 811 l 93 832 l 82 832 l 82 839 l 101 839 l 101 860 l 50 860 l 50 888 l 106 888 l 106 894 l 46 894 l 46 922 l 53 922 l 53 935 q 56 950 53 946 l 104 950 q 139 972 117 972 l 850 972 q 885 950 875 972 l 835 950 q 839 935 839 944 l 839 922 l 832 922 l 832 894 l 892 894 l 892 888 l 836 888 l 836 860 l 888 860 l 888 839 l 868 839 l 868 832 l 879 832 l 879 811 l 885 811 l 885 797 l 878 797 l 878 769 l 860 769 l 860 749 l 886 749 l 886 742 l 878 742 q 877 739 878 740 q 876 735 876 738 l 851 735 q 844 721 850 729 l 899 721 q 894 713 897 717 q 888 707 890 710 l 840 707 q 835 703 838 706 l 819 693 l 826 693 l 817 686 l 775 658 l 781 658 l 760 644 l 763 644 l 742 631 l 751 631 l 710 603 l 729 603 l 717 594 l 717 590 l 747 582 l 790 582 q 801 579 796 581 q 811 575 806 578 l 765 575 q 774 572 769 574 q 783 568 779 571 l 733 568 q 765 554 750 563 l 850 554 q 894 526 872 543 l 882 526 l 907 506 l 832 506 q 841 495 836 500 q 851 485 846 490 l 896 485 l 911 464 l 894 464 q 910 436 904 450 l 913 436 q 924 408 919 421 l 940 408 l 943 401 l 832 401 q 836 388 835 396 q 839 374 838 381 l 929 374 q 931 367 931 371 l 933 367 q 935 353 935 361 q 936 339 936 346 l 960 339 q 961 326 961 333 q 961 311 961 318 l 1067 311 l 1067 304 l 801 304 q 801 290 801 297 q 800 276 800 283 l 1088 276 q 1086 269 1086 274 m 368 276 l 418 276 q 436 304 431 289 l 328 304 q 346 297 339 303 q 360 283 353 290 l 368 276 z "},"4":{"ha":1021,"x_min":-58,"x_max":1328,"o":"m 982 207 l 1328 207 l 1328 193 q 1325 179 1328 188 l 1097 179 q 1094 172 1097 178 l 954 172 q 949 165 953 169 l 867 165 q 842 156 854 156 l 719 156 l 719 144 l 975 144 l 975 138 l 860 138 l 860 131 l 840 131 l 840 117 l 822 117 l 822 89 l 796 89 l 796 82 l 769 82 l 769 61 l 622 61 l 622 54 l 571 54 l 571 38 q 569 33 571 35 l 649 33 l 644 19 l 735 19 q 729 13 733 17 l 606 13 q 597 6 600 7 l 683 6 q 663 0 676 0 l 404 0 q 385 6 392 0 l 300 6 q 292 13 294 7 l 415 13 l 411 19 l 319 19 l 315 33 l 238 33 l 238 54 l 289 54 l 289 61 l 436 61 l 436 82 l 463 82 l 463 89 l 489 89 l 489 117 l 507 117 l 507 131 l 526 131 l 526 138 l 642 138 l 642 144 l 386 144 l 386 156 l -29 156 q -54 165 -44 156 l 26 165 q 21 172 22 169 l 161 172 l 157 179 l 385 179 q 382 193 382 188 l 382 207 l 36 207 l 36 235 l 208 235 l 208 256 l 267 256 l 267 263 l -4 263 l -4 269 l 208 269 l 208 276 l 72 276 l 72 304 l 83 304 l 83 311 l 117 311 l 117 332 l 33 332 l 33 360 l 60 360 l 60 388 l 65 388 l 65 392 q 68 408 65 400 l 31 408 q 33 416 32 413 q 36 422 35 419 q 44 435 40 431 l 51 443 l 35 443 l 57 471 l 142 471 l 163 499 l -58 499 l -36 526 l 32 526 l 47 547 l -47 547 l -26 575 l 43 575 l 65 603 l 247 603 l 253 610 l 76 610 l 82 617 l 161 617 l 182 644 l 43 644 l 49 651 l 140 651 l 151 665 l 228 665 l 233 672 l 243 672 l 253 686 l 281 686 l 296 707 l 231 707 l 251 735 l 439 735 l 449 749 l 182 749 l 197 769 l 500 769 l 522 797 l 382 797 l 399 818 l 331 818 l 336 825 l 483 825 l 489 832 l 297 832 l 314 853 l 358 853 l 375 874 l 468 874 l 479 888 l 460 888 l 475 908 l 482 908 l 488 915 l 456 915 l 471 936 l 435 936 l 440 943 l 433 943 l 439 949 q 457 964 446 958 l 440 964 q 474 972 456 972 l 763 972 q 786 964 776 972 l 803 964 q 810 955 807 960 q 815 943 814 950 l 821 943 q 822 940 821 942 q 822 936 822 939 l 858 936 l 858 915 l 892 915 l 892 908 l 883 908 l 883 888 l 904 888 l 904 874 l 810 874 l 810 853 l 764 853 l 764 832 l 956 832 l 956 825 l 808 825 l 808 818 l 875 818 l 875 797 l 1015 797 l 1015 769 l 713 769 l 713 749 l 979 749 l 979 735 l 793 735 l 793 707 l 858 707 l 858 686 l 832 686 l 832 672 l 822 672 l 822 665 l 746 665 l 746 651 l 653 651 l 653 644 l 793 644 l 793 617 l 650 617 l 650 610 l 772 610 l 772 603 l 771 603 l 771 575 l 649 575 l 649 547 l 733 547 l 733 526 l 888 526 l 888 499 l 733 499 l 733 471 l 825 471 l 825 443 l 822 443 l 822 438 l 943 438 q 975 422 964 438 l 968 422 q 974 408 974 414 l 1011 408 l 1011 388 l 1006 388 l 1006 360 l 979 360 l 979 332 l 1063 332 l 1063 311 l 1029 311 l 1029 304 l 1018 304 l 1018 276 l 1154 276 l 1154 269 l 942 269 l 942 263 l 1213 263 l 1213 256 l 1154 256 l 1154 235 l 982 235 l 982 207 m 447 603 l 369 603 l 349 575 l 447 575 l 447 603 m 279 575 l 260 547 l 325 547 l 325 575 l 279 575 m 271 526 l 250 499 l 564 499 l 564 526 l 410 526 l 410 547 l 354 547 l 339 526 l 271 526 m 365 471 l 346 443 l 361 443 l 346 422 l 499 422 l 499 443 l 501 443 l 501 471 l 365 471 z "},"5":{"ha":958,"x_min":11,"x_max":994,"o":"m 993 256 l 968 256 q 967 253 968 254 q 967 249 967 251 l 969 249 l 965 235 l 908 235 q 903 221 907 228 q 897 207 900 214 l 890 207 q 888 200 888 201 l 882 200 l 878 193 l 893 193 l 889 186 l 843 186 l 839 179 l 900 179 l 896 172 l 879 172 l 875 165 l 876 165 l 868 151 q 858 138 863 144 q 847 124 853 131 l 850 124 q 838 110 844 117 q 824 96 831 103 l 819 96 q 808 85 814 90 q 794 75 801 81 l 807 75 q 798 68 803 72 q 788 61 793 64 l 796 61 l 785 54 l 693 54 q 667 40 681 47 q 639 26 654 33 l 732 26 q 715 19 724 22 q 696 13 706 15 l 610 13 q 460 -15 540 -11 l 463 -15 q 440 -17 453 -17 q 417 -17 428 -17 q 392 -17 404 -17 q 368 -15 379 -17 l 364 -15 q 207 13 278 -11 l 293 13 q 274 19 283 15 q 256 26 264 22 l 163 26 q 133 40 147 33 q 107 54 119 47 l 199 54 q 194 58 197 57 q 188 61 190 60 l 181 61 l 160 75 l 147 75 q 135 85 142 81 q 124 96 129 90 l 128 96 q 100 124 113 108 l 97 124 q 76 151 86 135 q 68 165 71 157 l 67 165 l 63 172 l 79 172 l 75 179 l 14 179 q 11 186 14 181 l 58 186 l 54 193 l 40 193 l 38 200 l 43 200 l 40 207 l 49 207 q 40 235 42 222 l 97 235 l 93 249 l 92 249 q 90 256 90 251 l 164 256 l 164 263 l 79 263 l 76 290 l 86 290 l 86 297 l 31 297 q 35 311 31 306 l 38 311 q 63 325 47 325 l 343 325 q 369 321 358 325 q 385 311 379 317 l 383 311 q 390 303 389 306 q 394 300 393 301 q 396 297 394 299 l 451 297 q 454 294 453 296 q 457 290 456 293 l 449 290 q 463 274 456 281 q 481 263 471 267 l 564 263 q 572 260 568 261 q 581 257 576 258 q 589 260 585 258 q 597 263 593 261 l 585 263 q 617 290 604 271 l 546 290 l 550 297 l 554 297 q 560 311 557 303 l 571 311 q 575 332 575 322 l 563 332 l 563 353 l 556 353 q 554 363 556 358 q 550 374 553 368 l 549 374 q 542 388 546 381 l 536 388 q 517 408 529 399 l 528 408 q 517 415 524 414 l 521 415 q 501 422 511 419 q 479 425 490 425 q 453 422 464 425 q 433 415 442 419 l 440 415 l 428 408 l 426 408 q 410 397 417 403 q 394 392 404 392 l 118 392 q 92 408 101 392 l 93 408 l 90 415 l 85 415 q 83 422 83 418 l 85 429 l 90 429 l 92 436 l 83 436 l 85 450 l 104 450 l 106 464 l 94 464 l 94 471 l 90 471 l 92 485 l 85 485 l 86 499 l 94 499 l 97 519 l 110 519 l 111 526 l 100 526 l 101 533 l 96 533 l 97 547 l 104 547 l 107 575 l 29 575 l 35 631 l 161 631 l 163 644 l 150 644 l 150 651 l 31 651 l 31 658 l 113 658 l 114 672 l 103 672 l 106 693 l 86 693 l 88 700 l 46 700 l 47 721 l 100 721 l 101 735 l 107 735 l 110 756 l 106 756 l 107 769 l 122 769 l 122 776 l 139 776 l 140 783 l 150 783 l 154 811 l 115 811 l 118 839 l 131 839 l 133 860 l 132 860 l 138 915 l 135 915 l 135 922 l 139 922 l 139 925 q 142 936 139 931 l 154 936 q 158 944 157 940 q 161 950 160 947 l 142 950 q 188 972 158 972 l 808 972 q 843 950 833 972 l 861 950 q 865 936 865 944 l 851 936 l 851 922 l 847 922 l 847 915 l 851 915 l 851 860 l 853 860 l 853 839 l 840 839 l 840 811 l 879 811 l 879 783 l 868 783 l 868 776 l 851 776 l 851 769 l 836 769 l 836 756 l 842 756 l 842 739 q 840 735 842 736 l 835 735 q 831 721 835 728 l 778 721 q 744 701 768 701 l 339 701 l 339 700 l 382 700 l 381 693 l 400 693 l 397 672 l 408 672 l 407 658 l 325 658 l 324 651 l 444 651 l 444 644 l 531 644 q 615 650 563 650 q 646 649 631 650 q 675 644 661 647 l 590 644 q 617 639 604 643 q 642 631 629 635 l 625 631 q 686 603 656 621 q 726 575 706 590 l 806 575 q 821 562 813 569 q 836 547 829 554 l 831 547 l 843 533 l 849 533 q 851 531 850 532 q 854 526 853 529 l 865 526 q 868 524 867 525 q 871 519 869 522 l 857 519 q 865 509 861 514 q 872 499 869 504 l 864 499 q 869 492 867 496 q 874 485 871 488 l 881 485 l 889 471 l 893 471 l 897 464 l 908 464 l 914 450 l 894 450 q 899 443 897 447 q 901 436 900 439 l 910 436 q 913 429 910 435 l 906 429 l 910 415 l 907 415 q 908 408 907 411 l 897 408 l 901 388 l 908 388 l 910 374 l 913 374 q 913 363 913 368 q 914 353 914 358 l 921 353 l 921 332 l 933 332 l 933 311 l 922 311 q 921 304 921 308 q 921 297 921 300 l 915 297 l 915 290 l 986 290 q 984 276 985 283 q 981 263 983 269 l 994 263 q 994 260 994 261 q 993 256 993 258 m 376 631 l 329 631 l 326 603 q 351 618 339 611 q 376 631 364 625 m 550 256 l 513 256 q 523 254 518 254 q 533 254 528 254 q 542 254 538 254 q 550 256 546 254 z "},"6":{"ha":961,"x_min":-60,"x_max":993,"o":"m 993 311 l 783 311 q 782 304 782 308 q 781 297 782 300 l 889 297 q 887 283 888 290 q 883 269 886 276 l 922 269 l 918 256 l 922 256 q 922 253 922 254 q 921 249 921 251 l 910 249 q 900 221 906 233 l 885 221 l 879 207 l 931 207 q 915 179 925 193 l 938 179 l 933 172 l 883 172 l 874 158 l 857 158 l 840 138 l 854 138 q 849 131 850 133 l 829 131 l 808 110 l 840 110 q 829 99 835 104 q 817 89 824 94 l 742 89 l 714 68 l 706 68 q 658 40 685 54 l 713 40 q 682 26 700 33 q 673 24 678 25 q 664 19 668 22 l 669 19 q 615 3 643 10 q 557 -8 588 -4 l 571 -8 q 531 -12 551 -11 q 488 -14 510 -14 q 442 -12 464 -14 q 397 -8 419 -11 l 383 -8 q 321 3 351 -4 q 263 19 290 10 l 257 19 q 248 24 253 22 q 239 26 243 25 q 208 40 221 33 l 154 40 q 106 68 131 51 l 113 68 q 99 78 106 74 q 85 89 92 83 l 160 89 l 136 110 l 106 110 l 85 131 l 104 131 q 101 135 103 133 q 99 138 100 136 l 86 138 l 69 158 l 88 158 q 83 165 85 161 q 78 172 81 169 l 128 172 l 124 179 l 101 179 q 94 193 97 186 q 88 207 90 200 l 36 207 q 33 214 35 210 q 31 221 32 218 l 44 221 q 40 235 43 228 q 35 249 38 242 l 46 249 l 43 256 l 39 256 q 38 263 38 258 q 36 269 38 267 l -37 269 q -40 283 -39 276 q -43 297 -42 290 l -17 297 q -18 304 -18 300 q -18 311 -18 308 l 51 311 l 51 318 l 33 318 l 33 339 l -60 339 l -60 360 l -3 360 q -1 367 -1 363 l 29 367 l 29 374 l 31 374 q 31 384 31 379 q 33 394 32 389 l 43 394 q 44 401 43 399 l 53 401 q 56 412 54 407 q 58 422 57 417 l 33 422 l 38 436 l 74 436 q 76 443 76 442 l 49 443 q 51 450 50 446 q 54 457 53 454 l 40 457 q 46 471 43 464 q 51 485 49 478 l -28 485 q -23 495 -25 490 q -18 506 -21 500 l 0 506 q 7 519 3 513 l 89 519 l 93 526 l 88 526 l 100 547 l 121 547 l 133 568 l 117 568 q 126 583 122 575 q 135 596 131 590 l 128 596 q 133 603 129 599 l 129 603 l 139 617 l 135 617 q 143 628 139 624 q 150 638 147 633 l 153 638 q 161 649 158 646 l 168 658 l 140 658 l 151 672 l 208 672 l 218 686 l 228 686 l 244 707 l 213 707 l 233 735 l 236 735 l 240 742 l 236 742 l 240 749 l 243 749 l 253 763 l 236 763 l 253 783 l 235 783 l 240 790 l 265 790 l 286 818 l 407 818 l 418 832 l 389 832 l 400 846 l 390 846 l 401 860 l 368 860 l 390 888 l 378 888 l 399 915 l 365 915 l 376 929 l 378 929 l 389 943 l 388 943 l 389 944 q 397 954 392 949 q 410 964 403 960 l 408 964 q 424 969 415 967 q 442 972 432 972 l 721 972 q 742 964 733 972 l 743 964 q 753 943 753 954 l 753 942 q 751 929 753 932 l 749 929 q 746 924 749 926 l 740 915 l 772 915 l 751 888 l 765 888 l 743 860 l 776 860 l 765 846 l 775 846 l 765 832 l 793 832 l 782 818 l 663 818 l 640 790 l 615 790 l 611 783 l 628 783 l 613 763 l 629 763 l 619 749 l 617 749 l 613 742 l 617 742 l 613 735 l 610 735 l 589 707 l 621 707 l 610 692 l 619 692 q 638 690 628 690 q 657 686 647 689 l 646 686 q 672 681 658 685 q 699 672 685 676 l 642 672 q 659 666 650 669 q 678 658 668 663 l 706 658 q 747 638 726 650 l 746 638 l 779 617 l 783 617 q 793 610 789 614 q 803 603 797 606 l 806 603 q 810 600 808 601 q 815 596 813 599 l 822 596 q 838 583 829 590 q 853 568 846 575 l 869 568 l 888 547 l 867 547 q 875 537 871 542 q 882 526 879 532 l 888 526 l 892 519 l 810 519 l 818 506 l 800 506 q 806 495 803 500 q 811 485 810 490 l 890 485 l 903 457 l 917 457 l 921 443 l 949 443 q 951 436 951 438 l 949 436 l 953 422 l 954 422 q 958 401 958 413 l 894 401 l 894 394 l 929 394 q 931 384 931 389 q 932 374 931 379 l 931 374 l 931 367 l 926 367 l 926 360 l 942 360 l 942 339 l 969 339 q 969 328 969 333 q 968 318 968 324 l 993 318 l 993 311 m 526 297 l 418 297 q 422 303 421 300 q 425 311 424 307 l 635 311 q 635 315 635 314 q 636 318 636 317 l 611 318 q 615 339 615 329 l 588 339 l 588 360 l 571 360 l 571 367 l 575 367 q 574 374 575 371 l 575 374 q 572 384 574 379 q 567 394 569 389 l 532 394 l 528 401 l 592 401 q 571 422 583 414 l 568 422 q 550 431 560 428 q 529 436 540 435 l 532 436 q 523 438 528 438 q 513 438 518 438 q 503 438 508 438 q 494 436 499 438 l 457 436 q 437 431 447 435 q 418 422 426 428 l 443 422 q 421 401 432 415 l 413 401 l 408 394 l 399 394 q 390 374 393 385 l 389 374 q 388 367 389 369 l 357 367 l 357 360 l 299 360 l 299 339 l 392 339 q 392 328 392 333 q 394 318 393 324 l 413 318 q 415 311 413 317 l 344 311 q 349 303 347 307 q 351 297 350 300 l 326 297 q 356 269 338 279 l 431 269 q 482 257 451 257 q 535 269 513 257 l 496 269 q 526 297 513 279 z "},"7":{"ha":868,"x_min":19,"x_max":978,"o":"m 976 735 l 832 735 q 831 732 832 733 q 831 728 831 731 l 957 728 q 954 717 956 722 q 951 707 953 713 l 858 707 l 850 686 l 817 686 q 815 683 815 685 q 814 681 815 682 l 814 679 l 785 679 l 778 665 l 735 665 l 731 658 l 810 658 l 807 651 l 819 651 l 817 644 l 696 644 l 686 624 l 718 624 l 713 610 l 772 610 l 763 589 l 765 589 l 753 561 l 757 561 l 744 533 l 746 533 l 739 519 l 742 519 l 732 499 l 718 499 l 708 478 l 719 478 l 706 450 l 765 450 l 758 436 l 744 436 l 742 429 l 729 429 l 722 415 l 646 415 l 633 388 l 708 388 l 699 367 l 681 367 l 667 339 l 654 339 l 644 318 l 639 318 l 629 297 l 636 297 l 629 283 l 628 283 l 625 276 l 578 276 l 575 269 l 597 269 l 588 249 l 596 249 l 592 242 l 607 242 l 604 235 l 610 235 l 600 214 l 606 214 l 592 186 l 583 186 l 574 165 l 546 165 l 543 158 l 569 158 l 560 138 l 563 138 l 549 110 l 543 96 l 528 96 l 518 75 l 540 75 l 535 61 l 553 61 l 549 54 l 490 54 l 483 40 l 522 40 l 518 33 l 511 33 l 511 32 q 501 19 508 26 q 482 6 494 11 q 469 2 476 4 q 454 0 463 0 l 186 0 q 168 6 175 0 q 156 31 156 15 l 156 33 l 163 33 q 164 40 163 39 l 125 40 q 126 42 125 42 q 126 43 126 42 l 132 54 l 192 54 l 194 61 l 176 61 l 183 75 l 160 75 l 169 96 l 185 96 l 192 110 l 204 138 l 201 138 l 211 158 l 185 158 l 188 165 l 215 165 l 225 186 l 233 186 l 247 214 l 242 214 l 251 235 l 246 235 l 249 242 l 235 242 l 238 249 l 229 249 l 239 269 l 217 269 l 219 276 l 267 276 l 269 283 l 271 283 l 278 297 l 271 297 l 281 318 l 286 318 l 296 339 l 308 339 l 322 367 l 340 367 l 350 388 l 274 388 l 288 415 l 364 415 l 371 429 l 383 429 l 386 436 l 400 436 l 406 450 l 347 450 l 361 478 l 350 478 l 360 499 l 374 499 l 383 519 l 381 519 l 386 533 l 385 533 l 399 561 l 394 561 l 407 589 l 404 589 l 414 610 l 353 610 l 360 624 l 328 624 l 338 644 l 457 644 l 461 651 l 447 651 l 451 658 l 372 658 l 375 665 l 419 665 l 426 679 l 454 679 l 458 686 l 492 686 l 492 688 l 110 688 q 76 707 89 688 l 169 707 q 165 725 165 715 l 165 728 l 40 728 l 40 735 l 185 735 l 185 742 l 119 742 l 119 769 l 64 769 l 64 776 l 39 776 l 39 783 l 19 783 l 19 790 l 21 790 l 21 797 l 39 797 l 39 811 l 58 811 l 58 832 l 43 832 l 43 846 l 39 846 l 39 860 l 44 860 l 44 881 l 36 881 l 36 888 l 31 888 l 31 915 l 47 915 l 47 929 l 38 929 l 38 935 q 44 957 38 947 l 46 957 q 76 972 57 972 l 794 972 q 825 957 814 972 l 824 957 q 831 935 831 947 l 831 929 l 840 929 l 840 915 l 824 915 l 824 888 l 829 888 l 829 881 l 838 881 l 838 860 l 832 860 l 832 846 l 836 846 l 836 832 l 851 832 l 851 811 l 832 811 l 832 797 l 814 797 l 814 790 l 813 790 l 813 783 l 832 783 l 832 776 l 857 776 l 857 769 l 913 769 l 913 742 l 978 742 q 976 735 978 738 z "},"8":{"ha":989,"x_min":-162,"x_max":1074,"o":"m 932 221 l 1074 221 q 1064 193 1069 206 l 931 193 q 926 183 928 188 q 921 172 924 178 l 908 172 q 901 158 906 165 q 892 144 897 151 l 871 144 q 864 134 868 139 q 856 124 860 129 l 872 124 q 860 110 867 117 q 846 96 853 103 l 875 96 l 867 89 l 856 89 q 838 75 846 82 q 818 61 829 68 l 806 61 q 794 54 800 58 q 782 47 789 50 l 804 47 q 774 33 790 40 q 740 19 758 26 l 807 19 q 749 3 781 10 q 682 -8 718 -4 l 715 -8 q 668 -12 693 -11 q 615 -14 643 -14 q 564 -12 589 -14 q 515 -8 539 -11 l 482 -8 q 416 3 447 -4 q 357 19 385 10 l 290 19 q 257 33 272 26 q 226 47 242 39 l 204 47 l 182 61 l 194 61 q 175 75 185 68 q 157 89 165 82 l 169 89 q 166 93 168 92 q 163 96 164 94 l 133 96 q 120 110 126 103 q 107 124 114 117 l 90 124 q 82 134 86 129 q 75 144 78 139 l 96 144 q 88 158 92 151 q 81 172 83 165 l 92 172 q 88 183 90 178 q 82 193 85 188 l 217 193 q 207 221 211 206 l 68 221 l 61 249 l 63 249 q 61 256 63 253 l 54 256 q 52 266 53 261 q 51 276 51 271 l 10 276 q 10 287 10 282 q 8 297 10 292 l 21 297 l 21 304 l 86 304 l 86 318 l 69 318 l 69 332 l 10 332 l 14 353 l -64 353 q -63 357 -64 356 q -62 360 -62 358 l 57 360 l 65 388 l 121 388 q 133 415 125 403 l 31 415 l 35 422 l 138 422 q 157 450 146 436 l 63 450 q 68 457 67 454 l 168 457 q 181 472 174 464 q 193 485 188 479 l 67 485 q 75 492 71 489 q 83 499 79 496 l 213 499 q 223 506 218 503 q 233 513 228 510 l 236 513 q 238 513 238 513 q 239 514 238 514 q 215 533 226 522 l 133 533 l 121 547 l 150 547 q 140 561 144 554 q 131 575 135 568 l 149 575 q 141 589 144 582 q 135 603 138 596 l 129 603 q 126 610 129 604 l 103 610 l 100 617 l 115 617 q 113 627 114 622 q 110 638 111 632 l 111 638 q 110 644 110 640 l 94 644 q 90 672 90 657 l 97 672 q 97 683 97 678 q 96 694 96 689 l 97 700 l 74 700 l 74 714 l 42 714 l 42 721 l -106 721 q -104 728 -104 724 q -104 735 -104 732 l -162 735 l -158 756 l 211 756 q 215 766 214 761 q 217 776 215 771 l 78 776 q 82 787 81 782 q 85 797 83 792 l 168 797 q 172 804 171 800 q 175 811 174 808 l 158 811 q 174 839 164 825 l 101 839 l 106 846 l -92 846 q -81 860 -86 853 q -69 874 -75 868 l -82 874 q -74 881 -78 876 q -68 888 -71 885 l 206 888 l 222 901 l 181 901 l 189 908 l 163 908 l 183 922 l 213 922 q 239 937 225 929 q 268 950 253 944 l 396 950 q 503 978 444 969 l 525 978 q 643 986 578 986 q 760 978 708 986 l 739 978 q 796 967 769 974 q 844 950 822 960 l 717 950 q 774 922 746 938 l 744 922 l 765 908 l 792 908 l 800 901 l 843 901 q 851 894 847 899 q 858 888 856 890 l 585 888 q 592 881 589 885 q 599 874 596 876 l 611 874 q 623 860 618 868 q 633 846 628 853 l 831 846 l 835 839 l 907 839 q 922 811 917 825 l 939 811 q 942 804 940 808 q 944 797 943 800 l 861 797 q 865 787 864 792 q 868 776 867 782 l 1007 776 q 1010 766 1008 771 q 1013 756 1011 761 l 642 756 l 646 735 l 735 735 q 736 728 736 732 q 736 721 736 724 l 722 721 l 722 714 l 785 714 l 785 700 l 900 700 l 900 697 q 900 685 900 692 q 899 672 900 679 l 896 672 q 895 658 896 665 q 893 644 894 651 l 894 644 q 893 638 894 640 l 938 638 q 935 627 936 632 q 932 617 935 622 l 899 617 l 896 610 l 878 610 l 875 603 l 914 603 q 901 575 910 588 l 883 575 q 875 561 879 568 q 864 547 871 554 l 836 547 l 824 533 l 904 533 q 894 523 900 528 q 883 514 889 518 q 884 513 883 514 q 886 513 885 513 l 883 513 q 894 506 889 510 q 906 499 900 503 l 776 499 q 794 485 788 493 l 921 485 q 947 457 938 471 l 849 457 q 854 450 853 453 l 947 450 q 957 437 953 444 q 965 422 961 429 l 861 422 l 865 415 l 967 415 q 979 388 975 403 l 924 388 q 928 374 926 382 q 932 360 931 367 l 869 360 q 871 353 869 356 l 868 353 q 869 342 869 347 q 871 332 869 338 l 913 332 q 913 325 913 329 q 914 318 913 321 l 931 318 l 931 304 l 946 304 l 946 297 l 940 297 q 940 287 940 292 q 939 276 939 282 l 885 276 q 883 266 883 271 q 882 256 883 261 l 932 256 q 931 249 931 253 l 938 249 q 935 235 936 242 q 932 221 935 228 m 229 721 l 376 721 l 372 714 l 397 714 l 393 721 l 407 721 q 400 728 404 725 q 392 735 396 732 l 303 735 q 244 751 281 751 q 186 735 207 751 l 244 735 q 236 728 240 732 q 229 721 232 725 m 478 610 q 490 606 483 608 q 503 603 496 604 l 506 603 q 519 606 513 604 q 531 610 525 608 l 549 610 q 563 617 554 611 l 596 617 q 617 638 608 625 l 574 638 q 576 644 576 643 l 575 644 q 582 672 582 658 l 585 672 l 585 676 q 581 700 585 690 l 465 700 q 458 714 464 706 l 404 714 q 401 708 403 711 q 397 700 400 704 l 421 700 q 417 676 417 690 q 417 674 417 675 q 418 672 418 674 l 410 672 q 413 658 411 665 q 417 644 414 651 l 432 644 l 436 638 q 456 617 442 626 l 440 617 q 454 610 449 611 l 478 610 m 526 601 q 544 603 539 601 l 507 603 q 516 601 511 601 q 526 601 521 601 m 422 249 q 481 221 443 225 l 517 221 q 574 249 554 225 l 567 249 q 569 253 568 251 q 572 256 571 254 l 522 256 q 533 276 529 265 l 588 276 l 592 297 l 597 297 l 597 304 l 582 304 q 582 311 582 307 q 581 318 582 315 l 564 318 l 560 332 l 518 332 q 506 353 514 344 l 508 353 q 506 357 507 356 q 501 360 504 358 l 565 360 q 493 383 538 383 q 421 360 449 383 l 301 360 q 299 357 300 358 q 294 353 297 356 l 372 353 q 360 332 364 344 l 419 332 l 415 318 l 433 318 l 432 304 l 367 304 l 367 297 l 356 297 q 356 287 356 292 q 358 276 357 282 l 400 276 q 410 256 401 267 l 418 256 q 424 249 419 253 l 422 249 m 658 221 l 619 221 q 628 219 624 219 q 639 219 633 219 q 649 219 644 219 q 658 221 654 219 z "},"9":{"ha":949,"x_min":-71,"x_max":1039,"o":"m 1021 589 l 1039 589 q 1037 575 1038 582 q 1033 561 1036 568 l 939 561 q 936 551 938 556 q 932 540 935 546 l 901 540 l 896 526 l 889 526 q 887 519 888 524 q 883 513 886 515 l 896 513 q 893 506 896 511 l 901 506 q 899 499 901 504 l 885 499 q 881 488 883 493 q 875 478 878 483 l 871 478 l 863 464 l 876 464 q 869 450 872 457 l 882 450 l 869 429 l 865 429 q 859 419 863 424 q 851 408 856 414 l 835 408 l 819 388 l 828 388 q 823 381 825 385 q 818 374 821 376 l 831 374 l 810 346 l 767 346 q 761 339 764 343 q 756 332 758 335 l 790 332 q 785 325 788 329 q 779 318 782 321 l 774 318 l 753 290 l 776 290 q 772 283 775 288 q 767 276 769 279 l 657 276 q 654 272 657 275 l 636 249 l 675 249 l 665 235 l 664 235 l 643 207 l 568 207 l 551 186 l 639 186 l 618 158 l 626 158 l 621 151 l 565 151 l 550 131 l 661 131 l 640 103 l 551 103 l 536 82 l 567 82 l 551 61 l 569 61 l 560 47 l 544 28 l 544 26 l 539 26 l 532 19 l 546 19 q 526 6 540 13 l 529 6 q 517 2 524 4 q 503 0 511 0 l 224 0 q 206 6 213 0 l 201 6 q 192 19 194 11 l 178 19 q 176 26 176 22 l 182 26 q 181 28 182 28 q 181 31 181 29 q 186 47 181 39 l 186 49 l 196 61 l 178 61 l 193 82 l 163 82 l 178 103 l 267 103 l 288 131 l 175 131 l 192 151 l 246 151 l 251 158 l 243 158 l 264 186 l 178 186 l 193 207 l 269 207 l 290 235 l 301 249 l 263 249 l 283 276 l 393 276 l 403 290 l 379 290 l 381 292 q 369 293 374 292 q 320 302 346 296 q 267 318 294 308 l 272 318 q 256 324 265 321 q 240 332 247 328 l 206 332 q 193 338 200 335 q 179 346 186 342 l 222 346 q 179 374 199 360 l 167 374 q 157 381 161 376 q 149 388 153 385 l 140 388 l 118 408 l 136 408 q 126 419 131 414 q 117 429 121 424 l 121 429 l 104 450 l 90 450 l 82 464 l 68 464 l 60 478 l 64 478 l 53 499 l 67 499 q 64 506 67 500 l 56 506 l 53 513 l 40 513 l 35 526 l 42 526 l 38 540 l 31 540 q 28 551 29 546 q 25 561 26 556 l -18 561 l -22 589 l 44 589 q 44 603 44 596 q 43 617 43 610 l -33 617 l -33 631 l 38 631 l 38 644 l 49 644 l 49 651 l 15 651 q 17 662 17 657 q 18 672 17 667 l -4 672 q -1 686 -3 679 q 1 700 0 693 l 90 700 q 93 710 92 706 q 96 721 94 715 l -60 721 q -57 728 -58 724 q -54 735 -56 732 l 118 735 q 122 742 121 738 q 124 749 122 746 l 79 749 q 83 756 82 751 q 85 763 83 760 l -71 763 q -66 773 -68 768 q -61 783 -64 778 l 179 783 l 188 797 l 219 797 q 228 812 224 804 q 238 825 232 819 l 201 825 q 207 832 204 828 q 213 839 210 836 l 135 839 q 148 853 142 846 q 160 867 154 861 l 103 867 q 135 894 118 882 l 231 894 q 236 899 233 897 q 240 901 239 900 l 94 901 l 115 915 l 100 915 q 126 930 113 922 q 153 943 139 938 l 297 943 q 306 947 301 946 q 314 950 310 949 l 236 950 l 256 957 l 281 957 q 368 978 321 971 q 468 986 415 986 q 672 957 585 986 l 647 957 q 658 954 653 956 q 668 950 663 953 l 744 950 q 754 947 750 949 q 763 943 758 946 l 618 943 q 647 930 633 938 q 672 915 660 922 l 688 915 q 699 908 694 913 q 710 901 704 904 l 854 901 q 860 899 857 900 q 864 894 863 897 l 768 894 q 800 867 785 882 l 857 867 q 882 839 871 856 l 960 839 q 965 832 963 836 q 971 825 968 828 l 1006 825 q 1015 812 1011 819 q 1024 797 1019 804 l 992 797 q 996 790 994 794 q 999 783 997 786 l 758 783 l 767 763 l 924 763 l 929 749 l 974 749 l 978 735 l 804 735 l 808 721 l 963 721 l 967 700 l 947 700 l 951 672 l 933 672 q 935 662 935 667 q 935 651 935 657 l 919 651 l 919 644 l 958 644 l 958 617 l 1025 617 l 1021 589 m 569 561 l 664 561 q 679 589 676 575 l 661 589 q 665 603 664 596 q 667 617 667 610 l 600 617 l 600 631 l 599 644 l 560 644 q 559 649 560 647 q 558 651 558 650 l 574 651 q 571 662 572 657 q 567 672 569 667 l 585 672 q 574 688 579 681 q 560 700 568 694 l 579 700 q 525 715 556 715 q 469 700 493 715 l 382 700 q 368 688 374 694 q 357 672 363 681 l 379 672 q 376 662 378 667 q 372 651 374 657 l 404 651 q 403 644 404 647 l 393 644 q 392 638 392 642 q 392 631 392 633 l 321 631 l 321 617 l 397 617 q 400 603 399 610 q 403 589 401 596 l 336 589 q 351 561 339 575 l 394 561 q 426 540 407 547 l 435 540 q 469 535 447 535 q 506 540 490 535 l 538 540 q 569 561 557 547 z "},"A":{"ha":1049,"x_min":-1,"x_max":1092,"o":"m 1065 75 l 1075 47 l 1051 47 l 1054 40 q 1055 37 1054 39 q 1056 33 1056 35 l 1047 33 l 1047 31 q 1035 6 1047 14 l 1036 6 q 1018 0 1029 0 l 761 0 q 745 2 751 0 q 732 6 739 4 q 715 19 721 11 q 707 33 710 26 l 714 33 l 714 35 l 711 40 l 708 47 l 732 47 l 722 75 l 696 75 l 692 89 l 749 89 l 739 117 l 722 117 l 718 126 l 419 126 l 417 117 l 400 117 l 390 89 l 375 89 l 369 75 l 361 75 l 351 47 l 353 47 l 350 40 l 349 35 l 347 33 l 340 33 q 332 19 338 26 q 315 6 326 11 l 357 6 q 344 2 351 4 q 328 0 338 0 l 71 0 q 54 6 60 0 l 13 6 q -1 31 -1 15 l -1 33 l 7 33 q 8 40 7 38 l 10 47 l 8 47 l 18 75 l 26 75 l 32 89 l 47 89 l 57 117 l 72 117 l 82 144 l 28 144 l 33 158 l 29 158 l 36 179 l 50 179 l 53 186 l 22 186 l 32 214 l 79 214 l 83 228 l 40 228 l 43 235 l 50 235 l 60 263 l 56 263 l 63 283 l 68 283 l 78 311 l 96 311 l 103 332 l 106 339 l 175 339 l 178 346 l 174 346 l 181 367 l 103 367 l 113 394 l 138 394 l 140 401 l 125 401 l 128 408 l 172 408 l 182 436 l 128 436 l 133 450 l 154 450 l 164 478 l 151 478 l 158 499 l 174 499 l 183 526 l 179 526 l 182 533 l 150 533 l 156 547 l 186 547 l 193 568 l 179 568 l 181 575 l 206 575 l 215 603 l 185 603 l 192 624 l 176 624 l 181 638 l 85 638 l 89 651 l 71 651 l 81 679 l 63 679 l 71 700 l 125 700 l 135 728 l 274 728 l 281 749 l 214 749 l 219 763 l 271 763 l 281 790 l 235 790 l 242 811 l 271 811 l 281 839 l 276 839 l 286 867 l 247 867 l 249 874 l 382 874 l 392 901 l 388 901 l 390 908 l 342 908 l 347 926 l 351 936 l 365 936 l 374 950 l 369 950 q 389 966 376 960 q 419 972 401 972 l 721 972 q 751 966 739 972 q 771 950 764 960 l 776 950 l 785 936 l 771 936 q 774 926 774 931 l 781 908 l 829 908 l 831 901 l 835 901 l 844 874 l 713 874 l 715 867 l 754 867 l 764 839 l 768 839 l 778 811 l 749 811 l 756 790 l 801 790 l 811 763 l 760 763 l 765 749 l 832 749 l 839 728 l 700 728 l 710 700 l 656 700 l 663 679 l 679 679 l 689 651 l 635 651 l 640 638 l 861 638 l 865 624 l 854 624 l 861 603 l 833 603 l 843 575 l 810 575 l 811 568 l 861 568 l 868 547 l 869 547 l 875 533 l 829 533 l 832 526 l 876 526 l 886 499 l 901 499 l 908 478 l 904 478 l 914 450 l 936 450 l 942 436 l 901 436 l 911 408 l 939 408 l 940 401 l 933 401 l 936 394 l 911 394 l 919 367 l 999 367 l 1006 346 l 1010 346 l 1013 339 l 942 339 l 944 332 l 946 332 l 953 311 l 935 311 l 944 283 l 938 283 l 946 263 l 950 263 l 960 235 l 953 235 l 956 228 l 999 228 l 1004 214 l 956 214 l 965 186 l 996 186 l 999 179 l 985 179 l 993 158 l 996 158 l 1001 144 l 1056 144 l 1065 117 l 1082 117 l 1092 89 l 1035 89 l 1039 75 l 1065 75 m 485 624 l 501 624 l 494 603 l 551 603 l 544 624 l 556 624 l 551 638 l 489 638 l 485 624 m 531 575 l 524 599 l 517 575 l 531 575 m 447 408 l 444 401 l 460 401 l 458 397 l 615 397 l 614 401 l 621 401 l 619 408 l 592 408 l 583 436 l 624 436 l 619 450 l 596 450 l 588 478 l 592 478 l 586 499 l 571 499 l 563 526 l 518 526 l 515 533 l 561 533 l 557 547 l 556 547 l 549 568 l 504 568 l 499 547 l 468 547 l 464 533 l 494 533 l 493 526 l 497 526 l 489 499 l 474 499 l 467 478 l 479 478 l 471 450 l 450 450 l 446 436 l 500 436 l 492 408 l 447 408 z "},"B":{"ha":1019,"x_min":-8,"x_max":1026,"o":"m 1011 138 l 890 138 l 876 117 l 990 117 l 978 103 l 883 103 l 876 96 l 889 96 q 856 68 872 79 l 878 68 q 856 54 868 61 l 849 54 l 836 47 l 839 47 q 832 44 836 46 q 825 40 828 43 l 821 40 q 792 29 807 35 q 760 19 776 24 l 763 19 q 726 12 744 15 q 689 6 708 8 l 693 6 q 647 1 671 3 q 596 0 622 0 l 121 0 q 101 6 108 0 l 96 6 q 83 19 89 10 l 81 19 q 76 38 76 28 l 76 40 l 81 40 l 81 47 l 78 47 l 78 54 l 85 54 l 85 68 l 63 68 l 63 96 l 50 96 l 50 103 l 144 103 l 144 117 l 29 117 l 29 138 l 150 138 l 150 165 l 50 165 l 50 172 l 49 172 l 49 186 l 122 186 l 122 200 l 71 200 l 71 214 l 117 214 l 117 235 l 76 235 l 76 256 l 101 256 l 101 263 l 81 263 l 81 304 l 71 304 l 71 318 l 78 318 l 78 339 l 69 339 l 69 360 l 46 360 l 46 374 l 17 374 l 17 388 l 90 388 l 90 394 l -8 394 l -8 401 l 85 401 l 85 408 l 60 408 l 60 415 l 75 415 l 75 429 l 65 429 l 65 450 l 67 450 l 67 471 l 72 471 l 72 478 l 76 478 l 76 492 l 110 492 l 110 519 l 132 519 l 132 540 l 81 540 l 81 568 l 71 568 l 71 582 l 54 582 l 54 603 l 76 603 l 76 631 l 40 631 l 40 638 l 79 638 l 79 644 l 126 644 l 126 658 l 147 658 l 147 665 l 42 665 l 42 686 l 81 686 l 81 707 l 75 707 l 75 721 l 76 721 l 76 735 l 72 735 l 72 756 l 69 756 l 69 763 l 93 763 l 93 769 l 49 769 l 49 790 l 64 790 l 64 797 l 69 797 l 69 832 l 76 832 l 76 839 l -1 839 l -1 846 l 33 846 l 33 867 l 111 867 l 111 888 l -6 888 l -6 894 l 32 894 l 32 908 l 42 908 l 42 936 l 39 936 q 46 957 39 947 l 96 957 q 125 972 107 972 l 586 972 q 672 968 632 972 q 746 957 711 964 l 697 957 q 733 948 715 953 q 764 936 750 943 l 767 936 q 794 924 782 931 q 819 908 807 917 l 810 908 q 820 901 815 906 q 829 894 825 897 l 792 894 l 800 888 l 917 888 q 927 877 922 882 q 936 867 932 872 l 858 867 q 867 856 863 861 q 874 846 871 851 l 839 846 l 843 839 l 921 839 l 925 832 l 918 832 q 925 818 922 825 q 931 808 928 813 q 935 797 933 803 l 928 797 l 931 790 l 915 790 q 919 780 918 785 q 922 769 921 775 l 967 769 q 967 767 967 768 q 968 763 968 765 l 944 763 q 946 756 946 760 l 949 756 l 953 735 l 957 735 q 957 728 957 732 q 958 721 957 724 q 958 714 958 718 q 960 707 958 710 l 958 707 q 960 697 960 701 q 960 686 960 692 l 947 686 l 947 681 q 947 673 947 676 q 946 665 946 669 l 971 665 q 970 663 971 664 q 969 658 969 661 l 954 658 l 953 644 l 974 644 q 972 638 974 640 l 954 638 q 953 631 953 635 q 942 603 949 618 l 919 603 l 908 582 l 925 582 q 920 575 922 579 q 915 568 918 571 l 924 568 q 899 540 913 551 l 951 540 q 925 519 938 526 l 903 519 q 882 507 893 511 q 897 500 889 504 q 911 492 904 496 l 878 492 q 897 478 886 486 l 893 478 l 901 471 l 896 471 l 917 450 l 915 450 q 924 440 919 444 q 931 429 928 435 l 940 429 l 949 415 l 933 415 l 938 408 l 963 408 q 965 401 963 407 l 872 401 l 876 394 l 975 394 q 978 388 975 393 l 904 388 q 908 381 907 385 q 910 374 908 376 l 961 374 l 965 360 l 972 360 l 976 339 l 975 339 q 977 328 976 333 q 978 318 978 324 l 976 318 l 976 304 l 975 304 l 975 290 l 981 290 q 980 276 981 283 q 978 263 979 269 l 1018 263 q 1017 260 1018 261 q 1017 256 1017 258 l 978 256 q 976 245 976 250 q 975 235 976 240 l 1014 235 l 1010 214 l 964 214 l 960 200 l 1013 200 l 1007 186 l 933 186 q 931 179 932 183 q 928 172 931 175 l 929 172 q 926 165 929 171 l 1026 165 q 1011 138 1021 151 m 388 638 l 388 631 l 424 631 l 424 607 l 540 607 q 586 631 572 607 l 590 638 l 608 638 l 611 644 l 589 644 l 593 658 l 608 658 l 608 665 l 583 665 q 585 669 585 667 q 584 678 585 674 q 582 686 583 682 l 596 686 q 588 707 594 697 q 583 715 586 711 q 576 721 579 718 q 560 730 569 726 q 540 733 551 733 l 424 733 l 424 721 l 422 721 l 422 707 l 428 707 l 428 686 l 389 686 l 389 665 l 494 665 l 494 658 l 474 658 l 474 644 l 426 644 l 426 638 l 388 638 m 428 263 l 449 263 l 449 256 l 424 256 l 424 239 l 553 239 q 578 244 568 239 q 597 256 589 249 l 636 256 q 639 260 638 258 q 642 263 640 261 l 603 263 q 615 290 611 275 l 610 290 q 611 297 611 293 q 611 304 611 301 l 613 304 l 613 318 l 614 318 q 611 328 613 324 q 607 339 610 333 l 608 339 q 593 360 601 353 l 586 360 q 558 374 576 369 l 507 374 q 493 375 503 375 l 364 375 l 364 374 l 393 374 l 393 360 l 417 360 l 417 339 l 425 339 l 425 318 l 418 318 l 418 304 l 428 304 l 428 263 z "},"C":{"ha":1018,"x_min":-129,"x_max":1174,"o":"m 1174 665 l 1174 658 l 1140 658 q 1142 644 1142 651 q 1142 631 1142 638 l 899 631 q 881 603 899 613 q 868 600 872 600 l 585 600 q 574 601 579 600 q 563 603 568 601 l 336 603 l 336 596 l 458 596 q 457 582 457 589 q 457 568 457 575 l 408 568 q 407 561 407 565 q 407 554 407 557 l 411 554 l 411 540 l 390 540 l 390 513 l 457 513 l 457 506 l 232 506 l 232 492 l 303 492 l 303 464 l 446 464 l 446 457 l 388 457 l 388 450 l 350 450 l 350 422 l 457 422 q 458 412 458 417 q 458 401 458 407 l 497 401 l 497 394 l 318 394 l 318 381 l 278 381 l 278 374 l 458 374 l 458 372 l 736 372 q 767 346 763 372 l 972 346 l 972 325 l 963 325 l 960 297 l 944 297 l 943 283 l 979 283 q 978 276 979 279 l 969 276 q 968 269 968 274 l 1014 269 l 1010 249 l 967 249 q 966 246 967 247 q 965 242 965 244 l 954 242 q 951 231 953 236 q 947 221 949 226 l 964 221 q 961 214 964 219 l 933 214 q 927 200 931 207 q 919 186 924 193 l 947 186 l 935 165 l 947 165 l 933 144 l 925 144 q 913 131 919 138 q 900 117 907 124 l 889 117 q 886 114 888 115 q 882 110 885 113 l 822 110 l 815 103 l 1094 103 q 1078 89 1086 96 q 1060 75 1069 82 l 1044 75 q 1011 54 1031 65 l 718 54 q 689 40 704 46 q 658 26 674 33 l 888 26 q 878 24 883 25 q 868 19 874 22 l 813 19 q 801 17 807 18 q 790 13 796 15 l 690 13 q 588 -8 640 -1 l 610 -8 q 564 -12 588 -11 q 517 -14 540 -14 q 466 -12 490 -14 q 418 -8 442 -11 l 396 -8 q 293 13 340 -1 l 393 13 q 383 17 388 15 q 372 19 378 18 l 429 19 l 410 26 l 181 26 q 152 40 167 33 q 124 54 138 46 l 418 54 q 401 65 410 60 q 386 75 393 69 l 401 75 q 369 103 385 88 l 89 103 q 86 107 88 106 q 82 110 85 108 l 143 110 q 140 114 142 113 q 136 117 138 115 l 147 117 q 124 144 135 131 l 132 144 l 119 165 l 107 165 l 94 186 l 67 186 l 54 214 l 83 214 l 81 221 l 63 221 q 60 231 61 226 q 56 242 58 236 l 67 242 l 64 249 l 107 249 q 104 259 106 254 q 101 269 103 264 l 79 269 q 78 276 78 272 l 54 276 q 53 283 53 279 l 54 283 q 51 297 54 289 l -28 297 l -32 325 l 75 325 q 74 335 74 331 q 72 346 74 340 l 99 346 q 99 354 99 350 q 97 363 99 358 l 97 374 l -83 374 l -83 381 l -43 381 l -43 394 l 136 394 l 136 401 l 97 401 q 97 412 97 407 q 96 422 96 417 l -11 422 l -11 450 l 26 450 l 26 457 l 85 457 l 85 464 l -58 464 l -58 492 l -129 492 l -129 506 l 96 506 l 96 513 l 29 513 l 29 540 l 50 540 l 50 554 l 46 554 l 46 568 l 96 568 l 96 596 l -25 596 l -25 603 l 242 603 l 242 610 q 243 620 243 615 q 243 631 243 625 l 169 631 q 170 644 169 638 q 172 658 171 651 l 217 658 q 218 665 218 661 l -69 665 q -68 672 -68 668 q -67 679 -68 676 l 186 679 l 193 707 l 136 707 l 140 721 l 47 721 l 50 728 l 81 728 q 83 735 82 731 q 86 742 85 739 l 71 742 l 76 756 l 83 756 q 89 766 86 761 q 93 776 92 771 l 94 776 l 107 797 l 103 797 q 109 808 106 803 q 117 818 113 813 l 106 818 q 117 833 111 825 q 128 846 122 840 l 115 846 q 118 850 117 849 q 121 853 119 851 l 107 853 l 114 860 l 111 860 q 115 864 114 863 q 118 867 117 865 l 93 867 q 100 874 96 869 q 108 881 104 878 l 142 881 q 156 891 149 886 q 169 901 163 896 l 154 901 l 165 908 l 142 908 q 147 913 144 911 q 153 915 150 914 l 225 915 q 244 926 235 921 q 264 936 254 931 l 260 936 q 276 944 268 940 q 293 950 285 947 l 319 950 q 328 954 324 953 q 339 957 333 956 l 297 957 q 386 978 339 972 l 424 978 q 538 986 478 986 q 650 978 596 986 l 614 978 q 706 957 660 972 l 747 957 q 758 954 753 956 q 768 950 763 953 l 742 950 q 776 936 763 943 l 781 936 q 801 926 792 931 q 821 915 811 921 l 750 915 q 756 913 753 914 q 761 908 758 911 l 785 908 q 790 906 788 907 q 794 901 793 904 l 810 901 l 838 881 l 803 881 l 819 867 l 844 867 l 853 860 l 854 860 l 861 853 l 875 853 l 882 846 l 894 846 q 906 833 900 840 q 917 818 911 825 l 926 818 q 934 808 931 813 q 940 797 938 803 l 944 797 q 950 787 947 792 q 956 776 953 782 l 953 776 q 958 766 956 771 q 963 756 961 761 l 956 756 l 960 742 l 975 742 l 979 728 l 949 728 q 949 725 949 726 q 950 721 950 724 l 1043 721 q 1046 707 1043 715 l 919 707 l 924 679 l 1004 679 l 1006 665 l 1174 665 m 536 707 l 635 707 q 585 715 613 715 q 536 707 557 715 m 776 640 q 774 650 775 646 q 769 658 772 654 l 803 658 l 799 665 l 632 665 q 628 673 631 669 q 622 679 625 676 l 307 679 q 303 673 306 676 q 299 665 301 669 l 586 665 l 583 658 l 539 658 q 535 645 536 653 q 532 631 533 638 l 781 631 l 776 640 m 613 346 l 435 346 l 439 325 l 332 325 q 338 310 335 317 q 344 297 340 304 l 424 297 q 429 290 426 293 q 435 283 432 286 l 432 283 l 439 276 l 463 276 q 468 273 465 275 q 474 269 471 271 l 496 269 q 553 257 519 257 q 608 269 586 257 l 563 269 l 574 276 l 582 276 l 590 283 l 554 283 q 560 290 557 286 q 565 297 564 293 l 581 297 q 594 325 589 310 l 604 325 l 607 332 q 613 346 610 340 z "},"D":{"ha":1028,"x_min":-56,"x_max":1157,"o":"m 1135 756 q 1140 745 1138 750 q 1144 735 1143 740 l 1093 735 q 1099 722 1096 729 q 1104 707 1101 714 l 886 707 l 894 679 l 1007 679 l 1011 658 l 996 658 q 997 651 997 656 q 999 644 997 647 l 961 644 l 963 631 l 992 631 q 992 620 992 625 q 993 610 993 615 l 1044 610 q 1046 600 1046 604 q 1046 590 1046 596 l 1046 589 l 915 589 q 916 575 915 582 q 917 561 917 568 l 946 561 q 947 547 946 554 q 947 533 947 540 l 997 533 l 997 526 l 978 526 l 978 499 l 983 499 l 983 478 l 1065 478 l 1065 450 l 988 450 l 988 436 l 979 436 q 979 429 979 433 q 978 422 979 425 l 953 422 l 953 394 l 956 394 q 954 383 954 390 l 954 381 l 1006 381 q 1005 370 1006 375 q 1004 360 1004 365 l 1025 360 q 1024 346 1025 353 q 1022 332 1024 339 l 992 332 q 990 325 990 329 q 989 318 990 321 l 822 318 q 819 304 822 313 l 965 304 q 963 290 963 296 l 983 290 q 981 280 982 285 q 978 269 981 275 l 974 256 l 933 256 l 931 249 l 996 249 q 993 242 993 243 l 951 242 l 949 235 l 947 235 q 942 221 944 228 q 935 207 939 214 l 914 207 l 899 179 l 922 179 l 914 165 l 915 165 q 910 158 913 163 q 904 151 907 154 l 894 151 q 889 144 890 147 q 881 134 885 139 q 871 124 876 129 l 867 124 q 852 110 860 117 q 836 96 844 103 l 849 96 l 819 75 l 821 75 q 797 61 810 68 q 771 47 785 54 l 769 47 q 735 33 756 40 l 736 33 q 678 17 708 24 q 615 6 647 10 l 644 6 q 599 1 622 3 q 550 0 575 0 l 143 0 q 124 6 131 0 l 94 6 q 78 33 81 14 l 76 33 l 76 47 l 79 47 l 79 75 l 76 75 l 76 96 l 65 96 l 65 124 l 69 124 l 69 144 l 68 144 l 68 151 l 79 151 l 79 165 l 78 165 l 78 179 l 53 179 l 53 207 l 75 207 l 75 235 l 76 235 l 76 242 l 118 242 l 118 249 l 54 249 l 54 256 l 94 256 l 94 290 l 75 290 l 75 304 l 74 304 l 74 318 l 110 318 l 110 332 l -50 332 l -50 360 l -56 360 l -56 381 l -37 381 l -37 394 l 19 394 l 19 422 l 56 422 l 56 436 l 76 436 l 76 450 l 99 450 l 99 478 l 131 478 l 131 499 l 161 499 l 161 526 l 68 526 l 68 533 l 38 533 l 38 561 l -24 561 l -24 589 l 135 589 l 135 610 l 13 610 l 13 631 l 79 631 l 79 644 l 76 644 l 76 658 l 65 658 l 65 679 l 6 679 l 6 707 l 222 707 l 222 735 l 274 735 l 274 756 l 24 756 l 24 783 l 188 783 l 188 790 l 58 790 l 58 797 l 321 797 l 321 825 l 288 825 l 288 832 l -43 832 l -43 860 l -3 860 l -3 881 l 83 881 l 83 888 l 129 888 l 129 901 l 104 901 l 104 908 l 75 908 l 75 922 l 78 922 l 78 935 q 78 940 78 938 q 79 943 79 942 l 85 943 q 122 972 92 972 l 522 972 q 717 943 629 972 l 711 943 q 763 922 736 935 l 760 922 q 774 916 767 919 q 788 908 782 913 l 817 908 l 829 901 l 853 901 q 865 894 860 899 q 875 888 869 890 l 829 888 q 835 885 832 886 q 839 881 838 883 l 753 881 l 779 860 l 738 860 q 765 832 753 847 l 1096 832 q 1099 829 1097 831 q 1101 825 1100 828 l 1136 825 q 1147 812 1142 819 q 1157 797 1153 804 l 894 797 q 897 794 896 796 q 900 790 899 793 l 1029 790 l 1033 783 l 869 783 q 885 756 879 769 l 1135 756 m 644 658 q 624 679 636 671 l 511 679 q 436 701 481 701 l 353 701 l 353 679 l 413 679 l 413 658 l 424 658 l 424 644 l 426 644 l 426 631 l 360 631 l 360 610 l 482 610 l 482 589 l 324 589 l 324 561 l 385 561 l 385 533 l 415 533 l 415 526 l 508 526 l 508 499 l 478 499 l 478 478 l 446 478 l 446 450 l 424 450 l 424 436 l 403 436 l 403 422 l 367 422 l 367 394 l 310 394 l 310 381 l 292 381 l 292 360 l 297 360 l 297 332 l 457 332 l 457 318 l 421 318 l 421 304 l 422 304 l 422 290 l 442 290 l 442 271 l 532 271 q 600 290 572 271 l 578 290 q 586 297 582 293 q 593 304 590 300 l 449 304 q 454 310 451 307 q 458 318 457 314 l 625 318 q 629 324 628 321 q 632 332 631 328 l 664 332 q 668 346 667 339 q 671 360 669 353 l 650 360 q 651 370 651 365 q 653 381 651 375 l 601 381 l 601 383 q 602 389 601 386 q 603 394 603 392 l 600 394 q 600 409 600 401 q 601 422 600 417 l 626 422 l 626 436 l 635 436 l 636 450 l 714 450 l 714 478 l 632 478 l 632 499 l 626 499 l 626 526 l 646 526 l 646 533 l 594 533 l 594 561 l 564 561 q 564 575 564 568 q 563 589 564 582 l 693 589 l 693 590 q 692 601 693 596 q 692 610 692 606 l 640 610 q 638 620 639 615 q 635 631 636 625 l 606 631 q 603 638 604 635 q 600 644 601 642 l 638 644 q 634 652 636 649 q 629 658 632 656 l 644 658 z "},"E":{"ha":926,"x_min":-133,"x_max":1064,"o":"m 954 242 l 1064 242 l 1064 221 l 853 221 l 853 193 l 989 193 l 989 165 l 869 165 l 869 138 l 885 138 l 885 117 l 875 117 l 875 103 l 846 103 l 846 89 l 844 89 l 844 75 l 874 75 l 874 47 l 914 47 l 914 38 q 913 33 914 35 l 665 33 q 664 26 664 31 l 760 26 q 744 6 756 13 l 718 6 q 699 0 711 0 l -25 0 q -46 6 -36 0 l -19 6 q -35 26 -29 13 l -132 26 q -133 33 -133 29 l 115 33 l 115 47 l 75 47 l 75 75 l 46 75 l 46 89 l 47 89 l 47 103 l 76 103 l 76 117 l 86 117 l 86 138 l 71 138 l 71 165 l 190 165 l 190 193 l 54 193 l 54 221 l 265 221 l 265 242 l 156 242 l 156 256 l 188 256 l 188 269 l 201 269 l 201 283 l 47 283 l 47 297 l 11 297 l 11 318 l 140 318 l 140 325 l 38 325 l 38 339 l 68 339 l 68 353 l 90 353 l 90 374 l 88 374 l 88 401 l 74 401 l 74 429 l 53 429 l 53 443 l 69 443 l 69 471 l 54 471 l 54 485 l 76 485 l 76 506 l 82 506 l 82 526 l 107 526 l 107 533 l 83 533 l 83 561 l 63 561 l 63 582 l 68 582 l 68 603 l 71 603 l 71 631 l 92 631 l 92 658 l 61 658 l 61 686 l 65 686 l 65 714 l 104 714 l 104 735 l 83 735 l 83 756 l 72 756 l 72 763 l 131 763 l 131 783 l 233 783 l 233 797 l 192 797 l 192 811 l 57 811 l 57 818 l 72 818 l 72 839 l 74 839 l 74 860 l 78 860 l 78 888 l 76 888 l 76 922 l 74 922 l 74 935 q 75 943 74 940 l 61 943 q 97 972 67 972 l 810 972 q 846 943 842 972 l 860 943 q 861 935 861 940 l 861 922 l 864 922 l 864 888 l 865 888 l 865 860 l 861 860 l 861 839 l 860 839 l 860 818 l 844 818 l 844 811 l 979 811 l 979 797 l 1021 797 l 1021 783 l 918 783 l 918 763 l 860 763 l 860 756 l 871 756 l 871 735 l 892 735 q 882 714 889 721 l 843 714 q 815 701 833 701 l 399 701 l 399 686 l 394 686 l 394 658 l 425 658 l 425 631 l 404 631 l 404 614 l 790 614 q 817 603 806 614 l 814 603 q 824 582 821 596 l 819 582 l 819 561 l 840 561 l 840 533 l 864 533 l 864 526 l 839 526 l 839 506 l 833 506 l 833 485 l 811 485 l 811 471 l 826 471 l 826 443 l 810 443 l 810 429 l 831 429 l 831 401 l 844 401 l 844 396 q 838 374 844 381 l 840 374 q 810 358 829 358 l 424 358 l 424 353 l 401 353 l 401 339 l 371 339 l 371 325 l 474 325 l 474 318 l 344 318 l 344 297 l 381 297 l 381 283 l 535 283 l 535 271 l 963 271 q 974 269 969 271 l 958 269 q 979 256 972 265 l 947 256 q 954 242 953 247 z "},"F":{"ha":897,"x_min":-15,"x_max":992,"o":"m 781 728 l 781 724 q 772 700 781 711 l 964 700 q 935 686 954 686 l 538 686 l 538 679 l 432 679 l 432 658 l 385 658 l 385 631 l 432 631 l 432 610 l 419 610 l 419 589 l 414 589 l 414 583 l 783 583 q 807 575 797 583 l 810 575 q 821 561 817 569 l 813 561 q 817 546 817 556 l 817 533 l 811 533 l 811 526 l 847 526 l 847 499 l 815 499 l 815 485 l 824 485 l 824 464 l 828 464 l 828 457 l 840 457 l 840 436 l 819 436 l 819 429 l 749 429 l 749 401 l 732 401 l 732 381 l 838 381 l 838 353 l 799 353 l 799 336 q 797 325 799 329 l 794 325 q 778 304 789 310 l 750 304 q 731 299 743 299 l 361 299 l 361 283 l 403 283 l 403 269 l 465 269 l 465 249 l 335 249 l 335 235 l 454 235 l 454 214 l 364 214 l 364 207 l 433 207 l 433 179 l 394 179 l 394 151 l 413 151 l 413 144 l 404 144 l 404 117 l 426 117 l 426 110 l 417 110 l 417 103 l 397 103 l 397 89 l 417 89 l 417 75 l 397 75 l 397 54 l 463 54 l 463 47 l 506 47 l 506 38 q 505 35 506 36 q 504 33 504 35 l 621 33 q 619 26 621 29 l 425 26 q 410 6 422 14 l 510 6 q 490 0 503 0 l 225 0 q 206 6 213 0 l 104 6 q 89 26 94 13 l 282 26 q 281 33 282 31 l 165 33 l 165 47 l 122 47 l 122 54 l 57 54 l 57 75 l 76 75 l 76 89 l 57 89 l 57 103 l 76 103 l 76 110 l 86 110 l 86 117 l 64 117 l 64 144 l 72 144 l 72 151 l 54 151 l 54 179 l 93 179 l 93 207 l 24 207 l 24 214 l 114 214 l 114 235 l -6 235 l -6 249 l 125 249 l 125 269 l 63 269 l 63 283 l 21 283 l 21 304 l 49 304 l 49 325 l 51 325 l 51 353 l 90 353 l 90 381 l -15 381 l -15 401 l 1 401 l 1 429 l 72 429 l 72 436 l 93 436 l 93 457 l 81 457 l 81 464 l 76 464 l 76 485 l 68 485 l 68 499 l 100 499 l 100 526 l 64 526 l 64 533 l 69 533 l 69 561 l 76 561 l 76 575 l 74 575 l 74 589 l 79 589 l 79 610 l 92 610 l 92 631 l 44 631 l 44 658 l 92 658 l 92 679 l 197 679 l 197 700 l 6 700 l 6 728 l 217 728 l 217 749 l 13 749 l 13 763 l 18 763 l 18 776 l 136 776 l 136 804 l 85 804 l 85 832 l 108 832 l 108 860 l 72 860 l 72 888 l 76 888 l 76 908 l 64 908 l 64 929 l 71 929 l 71 935 q 72 943 71 940 l 17 943 q 22 955 18 950 q 29 964 25 960 l 18 964 q 42 972 29 972 l 742 972 q 765 964 756 972 l 776 964 q 790 943 786 957 l 844 943 q 846 935 846 940 l 846 929 l 839 929 l 839 908 l 851 908 l 851 888 l 847 888 l 847 860 l 883 860 l 883 832 l 860 832 l 860 804 l 911 804 l 911 776 l 793 776 l 793 763 l 788 763 l 788 749 l 992 749 l 992 728 l 781 728 z "},"G":{"ha":1046,"x_min":-56,"x_max":1144,"o":"m 963 443 l 1144 443 l 1144 415 l 1090 415 l 1090 388 l 1013 388 l 1013 368 q 1012 357 1013 363 q 1011 346 1011 351 l 1015 346 q 1015 335 1015 340 q 1014 325 1014 331 l 1001 325 q 1001 318 1001 322 q 1000 311 1001 314 l 872 311 q 871 304 871 308 q 869 297 871 300 l 871 297 l 867 276 l 967 276 q 964 266 965 271 q 961 256 963 261 l 976 256 q 972 242 975 249 q 967 228 969 235 l 985 228 l 979 214 l 958 214 q 952 200 956 207 q 944 186 949 193 l 1000 186 l 992 172 l 1003 172 q 998 165 1000 169 q 993 158 996 161 l 914 158 q 911 156 913 157 q 908 151 910 154 l 999 151 q 988 138 993 143 l 965 138 q 956 127 961 132 q 946 117 951 122 l 994 117 l 972 96 l 957 96 l 949 89 l 907 89 q 878 68 894 79 l 869 68 q 852 58 861 63 q 833 47 843 53 l 807 47 l 792 40 l 756 40 q 704 19 729 28 l 669 19 q 590 -1 632 7 l 564 -1 q 541 -5 553 -3 q 518 -8 529 -7 l 556 -8 q 509 -12 533 -11 q 460 -14 485 -14 q 409 -12 433 -14 q 361 -8 385 -11 l 325 -8 q 301 -5 313 -7 q 279 -1 290 -3 l 306 -1 q 226 19 264 7 l 261 19 q 211 40 236 28 l 249 40 q 241 44 244 43 q 235 47 238 46 l 263 47 q 244 58 253 53 q 228 68 236 63 l 238 68 l 210 89 l 251 89 l 243 96 l 258 96 l 238 117 l 190 117 q 181 127 185 122 q 172 138 176 132 l 194 138 q 190 144 193 140 q 185 151 188 149 l 94 151 l 90 158 l 169 158 l 161 172 l 151 172 l 143 186 l 88 186 l 75 214 l 96 214 q 93 221 94 217 q 90 228 92 225 l 72 228 q 67 242 69 235 q 63 256 65 249 l 47 256 q 44 266 46 261 q 42 276 43 271 l 31 276 q 28 287 29 282 q 25 297 26 292 l -53 297 q -54 304 -54 300 q -56 311 -54 308 l 72 311 q 72 318 72 314 q 71 325 72 322 l 56 325 q 53 335 54 331 q 53 346 53 340 l 108 346 q 108 356 108 351 q 107 367 108 361 l 160 367 l 160 388 l 3 388 l 3 415 l 119 415 q 118 429 118 422 q 118 443 118 436 l 136 443 l 136 457 l 21 457 l 21 471 l 33 471 l 33 492 l 71 492 l 71 506 l 51 506 l 51 513 l 44 513 l 44 540 l 46 540 l 46 568 l 50 568 l 50 575 l 54 575 l 54 582 l 28 582 l 28 589 l 57 589 l 57 596 l 50 596 q 51 606 51 601 q 51 617 51 611 l 63 617 l 63 624 l 40 624 q 41 638 40 631 q 42 651 42 644 l 51 651 q 53 658 53 654 q 54 665 53 663 l 61 665 l 65 686 l 18 686 l 22 707 l 64 707 q 68 722 67 714 q 72 735 69 729 l 89 735 l 92 742 l 82 742 q 85 752 83 747 q 89 763 88 757 l 88 763 q 92 773 90 768 q 97 783 94 778 l 93 783 l 106 804 l 117 804 l 121 811 l 108 811 l 124 832 l 207 832 q 213 839 211 836 l 135 839 l 147 853 l 140 853 l 161 874 q 178 888 169 881 q 196 901 186 896 l 197 901 q 219 916 208 908 q 243 929 231 924 q 258 937 250 933 q 272 943 265 940 l 275 943 q 338 964 304 956 l 336 964 q 424 981 378 975 q 521 986 471 986 q 620 981 574 986 q 710 964 667 975 q 775 943 744 956 l 772 943 q 789 937 781 940 q 806 929 797 933 q 832 916 819 924 q 857 901 844 908 l 856 901 q 876 888 867 896 q 894 874 885 881 l 893 874 q 906 863 900 868 q 917 853 911 858 l 924 853 l 936 839 l 1014 839 l 1021 832 l 936 832 q 945 822 942 826 q 953 811 949 817 l 965 811 l 969 804 l 958 804 q 965 794 961 799 q 969 783 968 789 l 974 783 q 979 773 976 778 q 983 763 982 768 l 986 763 q 990 752 989 757 q 993 742 992 747 l 1004 742 q 1005 739 1004 740 q 1006 735 1006 738 l 989 735 q 992 721 992 728 q 994 707 993 714 l 997 707 q 998 697 997 701 q 999 686 999 692 l 1021 686 q 1022 676 1022 683 q 1019 665 1022 671 l 996 665 q 985 651 993 656 l 994 651 q 976 646 988 646 l 669 646 q 642 651 651 646 l 632 651 q 621 661 624 657 l 617 665 l 642 665 q 635 675 639 669 q 624 686 631 681 l 601 686 q 569 707 588 700 l 567 707 q 519 715 549 715 q 469 707 490 715 l 428 707 q 397 686 410 701 l 444 686 q 431 665 438 679 l 422 665 q 419 659 421 663 q 417 651 418 656 l 407 651 q 404 638 406 646 q 401 624 403 631 l 425 624 q 424 617 424 621 l 413 617 l 413 596 l 418 596 l 418 589 l 389 589 l 389 582 l 415 582 l 415 575 l 411 575 l 411 568 l 407 568 l 407 540 l 406 540 l 406 513 l 413 513 l 413 506 l 432 506 l 432 492 l 394 492 l 394 471 l 382 471 l 382 457 l 497 457 l 497 443 l 479 443 q 480 429 479 436 q 481 415 481 422 l 364 415 l 364 388 l 521 388 l 521 367 l 469 367 q 470 356 469 361 q 471 346 471 351 l 415 346 q 418 335 417 340 q 421 325 419 331 l 436 325 q 439 317 438 321 q 442 311 440 314 l 314 311 q 322 297 315 304 l 400 297 q 421 276 408 285 l 433 276 q 504 257 458 257 q 549 262 528 257 q 583 276 569 267 l 485 276 q 507 297 496 283 l 506 297 q 513 311 511 306 l 642 311 l 646 325 l 658 325 q 660 335 660 331 q 661 346 661 340 l 657 346 l 658 356 l 658 357 l 593 357 q 567 367 579 357 q 556 388 557 376 l 635 388 q 633 394 633 390 l 633 415 l 688 415 l 688 443 l 506 443 l 506 457 l 579 457 l 579 471 l 528 471 l 528 492 l 542 492 l 542 506 l 551 506 l 551 513 l 540 513 l 540 540 l 544 540 l 544 549 q 550 568 544 561 l 544 568 q 550 575 546 571 l 558 575 q 567 582 564 581 l 542 582 q 558 586 549 586 l 940 586 q 957 582 951 586 l 983 582 q 993 575 988 581 l 985 575 q 990 568 989 571 l 996 568 q 1001 549 1001 561 l 1001 540 l 997 540 l 997 513 l 1008 513 l 1008 506 l 999 506 l 999 492 l 985 492 l 985 471 l 1036 471 l 1036 457 l 963 457 l 963 443 z "},"H":{"ha":1072,"x_min":-224,"x_max":1179,"o":"m 1057 325 l 1057 318 l 1165 318 l 1165 304 l 1160 304 l 1160 283 l 872 283 l 872 276 l 922 276 l 922 256 l 1075 256 l 1075 242 l 996 242 l 996 214 l 992 214 l 992 207 l 900 207 l 900 186 l 1036 186 l 1036 179 l 1042 179 l 1042 158 l 1056 158 l 1056 131 l 788 131 l 788 110 l 1071 110 l 1071 96 l 976 96 l 976 75 l 964 75 l 964 61 l 996 61 l 996 47 l 975 47 l 975 33 l 1024 33 l 1019 19 l 1085 19 q 1078 12 1082 15 q 1071 6 1075 8 l 1103 6 q 1083 0 1096 0 l 811 0 q 792 6 799 0 l 760 6 q 746 19 750 10 l 681 19 l 676 33 l 628 33 l 628 47 l 649 47 l 649 61 l 617 61 l 617 75 l 629 75 l 629 96 l 724 96 l 724 110 l 472 110 l 472 96 l 357 96 l 357 75 l 436 75 l 436 61 l 417 61 l 417 47 l 489 47 l 489 33 l 411 33 l 407 19 l 438 19 q 425 6 432 10 l 392 6 q 372 0 385 0 l 100 0 q 79 6 86 0 l 113 6 q 100 19 106 10 l 68 19 q 64 33 64 26 l 142 33 l 142 47 l 69 47 l 69 61 l 89 61 l 89 75 l 10 75 l 10 96 l 125 96 l 125 110 l 192 110 l 192 131 l -22 131 l -22 158 l 57 158 l 57 179 l 113 179 l 113 186 l 74 186 l 74 207 l 8 207 l 8 214 l 22 214 l 22 242 l 67 242 l 67 256 l 88 256 l 88 276 l -12 276 l -12 283 l 244 283 l 244 304 l -69 304 l -69 318 l 226 318 l 226 325 l 82 325 l 82 346 l 165 346 l 165 353 l 182 353 l 182 360 l 175 360 l 175 388 l 38 388 l 38 408 l 83 408 l 83 415 l 71 415 l 71 436 l 76 436 l 76 443 l 78 443 l 78 457 l 79 457 l 79 464 l 61 464 l 61 471 l 7 471 l 7 492 l 25 492 l 25 513 l -3 513 l -3 533 l 67 533 l 67 561 l 51 561 l 51 575 l -50 575 l -50 582 l 113 582 l 113 596 l 151 596 l 151 603 l -224 603 l -224 610 l -3 610 l -3 617 l 76 617 l 76 638 l -65 638 l -65 665 l -104 665 l -104 686 l 63 686 l 63 714 l 76 714 l 76 735 l 165 735 l 165 742 l 89 742 l 89 769 l 151 769 l 151 783 l 76 783 l 76 790 l 50 790 l 50 804 l 10 804 l 10 818 l -39 818 l -39 846 l 49 846 l 49 867 l 101 867 l 101 888 l 76 888 l 76 901 l 42 901 l 42 908 l 61 908 l 61 922 l 57 922 l 57 935 q 61 950 57 944 l 150 950 q 154 958 151 954 q 160 964 157 961 l 374 964 q 397 972 382 972 l 931 972 q 954 964 944 972 l 1168 964 q 1174 958 1171 961 q 1179 950 1178 954 l 1000 950 q 1003 935 1003 942 l 1003 922 l 1010 922 l 1010 908 l 1029 908 l 1029 901 l 992 901 l 992 888 l 975 888 l 975 867 l 1029 867 l 1029 846 l 899 846 l 899 818 l 1049 818 l 1049 804 l 940 804 l 940 790 l 985 790 l 985 783 l 963 783 l 963 769 l 1067 769 l 1067 742 l 914 742 l 914 735 l 1032 735 l 1032 714 l 1011 714 l 1011 686 l 900 686 l 900 665 l 854 665 l 854 638 l 996 638 l 996 617 l 917 617 l 917 610 l 696 610 l 696 603 l 1071 603 l 1071 596 l 1032 596 l 1032 582 l 869 582 l 869 575 l 971 575 l 971 561 l 986 561 l 986 533 l 917 533 l 917 513 l 944 513 l 944 492 l 926 492 l 926 471 l 981 471 l 981 464 l 999 464 l 999 457 l 997 457 l 997 443 l 996 443 l 996 436 l 990 436 l 990 415 l 1003 415 l 1003 408 l 957 408 l 957 388 l 1094 388 l 1094 360 l 1101 360 l 1101 353 l 1085 353 l 1085 346 l 1001 346 l 1001 325 l 1057 325 m 243 686 l 243 665 l 282 665 l 282 643 l 507 643 l 507 665 l 553 665 l 553 686 l 664 686 l 664 714 l 685 714 l 685 735 l 567 735 l 567 742 l 719 742 l 719 769 l 615 769 l 615 783 l 638 783 l 638 790 l 593 790 l 593 804 l 701 804 l 701 818 l 551 818 l 551 846 l 682 846 l 682 867 l 628 867 l 628 888 l 644 888 l 644 901 l 682 901 l 682 908 l 663 908 l 663 922 l 656 922 l 656 935 q 658 950 656 942 l 838 950 q 843 958 840 954 q 849 964 846 961 l 479 964 q 490 950 486 958 l 401 950 q 404 935 404 946 l 404 922 l 408 922 l 408 908 l 389 908 l 389 901 l 424 901 l 424 888 l 449 888 l 449 867 l 396 867 l 396 846 l 308 846 l 308 818 l 357 818 l 357 804 l 397 804 l 397 790 l 424 790 l 424 783 l 499 783 l 499 769 l 436 769 l 436 742 l 513 742 l 513 735 l 424 735 l 424 714 l 410 714 l 410 686 l 243 686 m 818 304 l 818 318 l 710 318 l 710 325 l 654 325 l 654 338 l 429 338 l 429 325 l 574 325 l 574 318 l 278 318 l 278 304 l 592 304 l 592 283 l 813 283 l 813 304 l 818 304 m 728 256 l 575 256 l 575 276 l 525 276 l 525 283 l 335 283 l 335 276 l 435 276 l 435 256 l 414 256 l 414 242 l 369 242 l 369 214 l 356 214 l 356 207 l 421 207 l 421 186 l 460 186 l 460 179 l 404 179 l 404 158 l 325 158 l 325 131 l 708 131 l 708 158 l 694 158 l 694 179 l 689 179 l 689 186 l 553 186 l 553 207 l 644 207 l 644 214 l 649 214 l 649 242 l 728 242 l 728 256 z "},"I":{"ha":511,"x_min":19,"x_max":607,"o":"m 607 735 l 381 735 l 381 707 l 471 707 l 471 679 l 590 679 l 590 658 l 456 658 l 456 651 l 472 651 l 472 624 l 438 624 l 438 617 l 435 617 l 435 610 l 400 610 l 400 582 l 465 582 l 465 575 l 468 575 l 468 568 l 453 568 l 453 547 l 443 547 l 443 540 l 489 540 l 489 513 l 378 513 l 378 485 l 418 485 l 418 464 l 440 464 l 440 436 l 443 436 l 443 408 l 432 408 l 432 374 l 444 374 l 444 360 l 436 360 l 436 339 l 435 339 l 435 332 l 424 332 l 424 304 l 436 304 l 436 290 l 435 290 l 435 207 l 436 207 l 436 179 l 460 179 l 460 151 l 440 151 l 440 138 l 435 138 l 435 124 l 451 124 l 451 96 l 428 96 l 428 89 l 463 89 l 463 75 l 475 75 l 475 68 l 464 68 l 464 47 l 458 47 l 458 38 q 458 32 458 35 q 456 26 457 29 l 421 26 q 413 13 419 19 l 451 13 q 443 6 446 7 l 364 6 q 344 0 357 0 l 61 0 q 42 6 49 0 l 121 6 q 113 13 115 7 l 74 13 q 65 26 67 19 l 101 26 q 100 38 100 31 l 100 47 l 106 47 l 106 68 l 117 68 l 117 75 l 104 75 l 104 89 l 69 89 l 69 96 l 93 96 l 93 124 l 76 124 l 76 138 l 82 138 l 82 151 l 101 151 l 101 179 l 78 179 l 78 207 l 76 207 l 76 290 l 78 290 l 78 304 l 65 304 l 65 332 l 76 332 l 76 339 l 78 339 l 78 360 l 86 360 l 86 374 l 74 374 l 74 408 l 85 408 l 85 436 l 82 436 l 82 464 l 60 464 l 60 485 l 19 485 l 19 513 l 131 513 l 131 540 l 85 540 l 85 547 l 94 547 l 94 568 l 110 568 l 110 575 l 107 575 l 107 582 l 42 582 l 42 610 l 76 610 l 76 617 l 79 617 l 79 624 l 114 624 l 114 651 l 97 651 l 97 658 l 232 658 l 232 679 l 113 679 l 113 707 l 22 707 l 22 735 l 249 735 l 249 742 l 107 742 l 107 763 l 106 763 l 106 783 l 81 783 l 81 790 l 165 790 l 165 804 l 101 804 l 101 832 l 107 832 l 107 853 l 68 853 l 68 881 l 75 881 l 75 894 l 71 894 l 71 908 l 82 908 l 82 915 l 69 915 l 69 935 q 72 950 69 942 l 79 950 q 114 972 89 972 l 397 972 q 432 950 422 972 l 425 950 q 428 935 428 942 l 428 915 l 440 915 l 440 908 l 429 908 l 429 894 l 433 894 l 433 881 l 426 881 l 426 853 l 465 853 l 465 832 l 460 832 l 460 804 l 524 804 l 524 790 l 439 790 l 439 783 l 464 783 l 464 763 l 465 763 l 465 742 l 607 742 l 607 735 z "},"J":{"ha":975,"x_min":-87,"x_max":1026,"o":"m 867 804 l 789 804 l 789 776 l 904 776 l 904 763 l 728 763 l 728 742 l 854 742 l 854 714 l 901 714 l 901 707 l 950 707 l 950 686 l 908 686 l 908 665 l 907 665 l 907 644 l 903 644 l 903 617 l 888 617 l 888 596 l 911 596 l 911 568 l 876 568 l 876 561 l 983 561 l 983 547 l 958 547 l 958 519 l 871 519 l 871 506 l 949 506 l 949 492 l 932 492 l 932 471 l 907 471 l 907 464 l 913 464 l 913 436 l 783 436 l 783 429 l 840 429 l 840 408 l 968 408 l 968 388 l 750 388 l 750 367 l 782 367 l 782 360 l 842 360 l 842 339 l 904 339 q 903 332 903 336 q 903 325 903 328 l 907 325 q 906 315 906 319 q 904 304 906 310 l 917 304 q 916 294 917 299 q 914 283 915 289 l 847 283 l 843 263 l 821 263 q 819 256 821 258 l 990 256 l 986 242 l 938 242 q 937 239 938 240 q 936 235 936 238 l 889 235 q 886 224 888 229 q 882 214 885 219 l 835 214 l 826 193 l 924 193 l 913 172 l 717 172 l 704 151 l 863 151 l 853 138 l 858 138 q 847 124 853 131 q 833 110 840 117 l 782 110 q 767 96 775 103 q 751 82 760 89 l 733 82 q 725 75 729 79 q 715 68 721 71 l 758 68 q 742 58 750 63 q 724 47 733 53 l 729 47 q 699 33 715 39 q 667 19 683 26 l 668 19 q 645 12 657 15 q 622 6 633 8 q 585 -2 604 1 q 547 -8 567 -6 l 546 -8 q 500 -12 524 -11 q 453 -14 476 -14 q 411 -12 432 -14 q 369 -8 390 -11 l 371 -8 q 335 -2 353 -6 q 301 6 318 1 l 300 6 q 278 12 289 8 q 256 19 267 15 q 224 33 239 26 q 193 47 208 39 l 186 47 l 153 68 l 110 68 q 100 75 104 71 q 90 82 96 79 l 107 82 q 75 110 90 94 l 128 110 q 115 124 121 117 q 101 138 108 131 l 96 138 q 90 144 93 140 q 85 151 88 149 l -74 151 l -87 172 l 108 172 q 103 183 106 178 q 97 193 100 188 l 0 193 q -5 203 -3 199 q -10 214 -7 208 l 36 214 q 33 224 35 219 q 29 235 31 229 l 76 235 l 74 242 l 122 242 l 118 256 l -53 256 q -54 263 -53 260 l -17 263 l -21 283 l 14 283 q 12 294 13 289 q 11 304 11 299 l 15 304 q 15 315 15 310 q 14 325 14 319 l 14 326 q 17 339 14 331 l 26 339 q 54 357 36 357 l 338 357 q 381 339 364 357 l 369 339 l 379 325 q 382 319 381 322 q 385 313 383 315 l 389 304 l 385 304 q 397 283 392 292 l 364 283 q 392 263 374 269 l 354 263 q 390 257 367 257 q 424 263 411 257 l 446 263 q 472 283 463 269 l 540 283 q 551 304 547 293 l 539 304 q 542 314 540 308 q 544 325 543 319 l 540 325 q 542 331 542 328 q 543 339 542 335 l 481 339 q 481 349 481 344 q 482 360 482 354 l 422 360 l 422 367 l 390 367 l 390 388 l 608 388 l 608 408 l 481 408 l 481 429 l 424 429 l 424 436 l 553 436 l 553 464 l 547 464 l 547 471 l 572 471 l 572 492 l 589 492 l 589 506 l 511 506 l 511 519 l 599 519 l 599 547 l 624 547 l 624 561 l 517 561 l 517 568 l 551 568 l 551 596 l 528 596 l 528 617 l 543 617 l 543 644 l 547 644 l 547 665 l 549 665 l 549 686 l 590 686 l 590 690 l 178 690 q 146 707 158 690 l 97 707 l 93 714 l 47 714 q 44 728 44 722 l 44 742 l -82 742 l -82 763 l 94 763 l 94 776 l -21 776 l -21 804 l 57 804 l 57 832 l 217 832 l 217 860 l 58 860 l 58 867 l 81 867 l 81 894 l 47 894 l 47 922 l 157 922 l 157 936 l -39 936 q -36 950 -39 946 l 157 950 q 161 958 158 954 q 167 964 164 961 l 104 964 q 128 972 113 972 l 863 972 q 886 964 876 972 l 949 964 q 960 950 956 958 l 767 950 q 769 936 769 946 l 967 936 l 967 922 l 857 922 l 857 894 l 890 894 l 890 867 l 868 867 l 868 860 l 1026 860 l 1026 832 l 867 832 l 867 804 z "},"K":{"ha":993,"x_min":-82,"x_max":1158,"o":"m 1033 75 l 1050 47 l 989 47 l 990 46 q 992 40 992 44 q 994 33 993 36 l 990 33 l 990 31 q 989 21 990 25 q 985 13 988 17 l 1003 13 q 996 6 1000 8 l 915 6 q 897 0 908 0 l 581 0 q 565 2 572 0 q 553 6 558 4 l 633 6 q 621 13 629 7 l 603 13 q 592 24 596 18 q 586 32 589 29 l 585 33 l 589 33 l 582 47 l 642 47 l 626 75 l 751 75 l 747 82 l 639 82 l 638 85 l 638 82 l 421 82 l 421 75 l 565 75 l 565 47 l 476 47 l 476 33 l 342 33 q 339 22 342 28 q 333 13 336 17 l 321 13 q 313 6 315 7 l 222 6 q 203 0 215 0 l -62 0 q -82 6 -75 0 l 7 6 q -1 13 4 7 l 11 13 q 6 22 8 17 q 3 33 3 28 l 136 33 l 136 47 l 225 47 l 225 75 l 81 75 l 81 82 l 297 82 l 297 103 l 32 103 l 32 124 l 57 124 l 57 151 l 79 151 l 79 165 l 75 165 l 75 193 l 72 193 l 72 221 l 61 221 l 61 242 l 69 242 l 69 256 l 85 256 l 85 283 l 135 283 l 135 304 l -42 304 l -42 318 l -54 318 l -54 325 l 104 325 l 104 339 l 118 339 l 118 346 l -62 346 l -62 367 l -39 367 l -39 381 l -31 381 l -31 408 l 106 408 l 106 422 l 143 422 l 143 443 l -32 443 l -32 471 l 15 471 l 15 492 l 76 492 l 76 499 l 169 499 l 169 513 l 218 513 l 218 533 l 228 533 l 228 540 l 199 540 l 199 561 l 106 561 l 106 568 l 40 568 l 40 596 l 300 596 l 300 610 l -19 610 l -19 624 l 221 624 l 221 644 l -11 644 l -11 658 l 79 658 l 79 672 l 165 672 l 165 700 l 138 700 l 138 721 l 146 721 l 146 742 l 106 742 l 106 749 l 76 749 l 76 769 l 68 769 l 68 776 l 86 776 l 86 790 l 104 790 l 104 818 l -49 818 l -49 825 l -40 825 l -40 832 l 17 832 l 17 839 l -3 839 l -3 846 l 104 846 l 104 853 l 78 853 l 78 860 l 76 860 l 76 888 l 83 888 l 83 901 l 179 901 l 179 915 l 192 915 l 192 929 l 197 929 l 197 936 l 49 936 q 63 964 50 951 l 78 964 q 101 972 86 972 l 367 972 q 390 964 381 972 l 375 964 q 389 936 389 953 l 538 936 l 538 929 l 532 929 l 532 915 l 519 915 l 519 901 l 424 901 l 424 888 l 417 888 l 417 860 l 418 860 l 418 853 l 444 853 l 444 846 l 338 846 l 338 839 l 357 839 l 357 832 l 300 832 l 300 825 l 292 825 l 292 818 l 422 818 l 426 825 l 471 825 l 474 832 l 554 832 l 558 839 l 478 839 l 482 846 l 506 846 l 510 853 l 517 853 l 521 860 l 533 860 l 536 867 l 551 867 l 563 888 l 556 888 l 564 901 l 643 901 l 650 915 l 586 915 l 593 929 l 663 929 l 665 936 l 571 936 l 574 942 q 594 964 581 956 l 583 964 q 617 972 596 972 l 924 972 q 944 964 936 972 l 957 964 q 967 942 967 954 q 965 936 967 938 l 1061 936 q 1060 933 1061 935 q 1060 929 1060 932 l 992 929 l 989 926 l 983 915 l 1047 915 l 1039 901 l 960 901 l 951 888 l 958 888 l 946 867 l 932 867 l 928 860 l 915 860 l 911 853 l 904 853 l 900 846 l 875 846 l 871 839 l 953 839 l 949 832 l 868 832 l 864 825 l 819 825 l 815 818 l 824 818 l 808 790 l 864 790 l 856 776 l 868 776 l 864 769 l 865 769 l 853 749 l 872 749 l 868 742 l 869 742 l 857 721 l 829 721 l 817 700 l 846 700 l 829 672 l 814 672 l 806 658 l 715 658 l 707 644 l 939 644 l 926 624 l 686 624 l 678 610 l 997 610 l 989 596 l 729 596 l 713 568 l 778 568 l 774 561 l 867 561 l 854 540 l 883 540 l 879 533 l 869 533 l 857 513 l 808 513 l 806 507 l 811 499 l 718 499 l 722 492 l 661 492 l 674 471 l 625 471 l 642 443 l 817 443 l 829 422 l 792 422 l 800 408 l 664 408 l 681 381 l 672 381 l 681 367 l 657 367 l 669 346 l 850 346 l 854 339 l 839 339 l 847 325 l 808 325 l 813 318 l 799 318 l 807 304 l 704 304 l 717 283 l 836 283 l 853 256 l 850 256 l 858 242 l 869 242 l 882 221 l 907 221 l 924 193 l 899 193 l 915 165 l 917 165 l 924 151 l 926 151 l 943 124 l 951 124 l 964 103 l 1033 103 l 1046 82 l 1154 82 l 1158 75 l 1033 75 m 417 749 l 446 749 l 446 742 l 478 742 l 482 749 l 463 749 l 474 769 l 472 769 l 476 776 l 464 776 l 471 790 l 426 790 l 426 776 l 408 776 l 408 769 l 417 769 l 417 749 m 426 672 l 419 672 l 419 660 l 426 672 m 444 325 l 449 325 l 444 335 l 444 325 m 286 318 l 299 318 l 299 304 l 408 304 l 400 318 l 414 318 l 410 325 l 286 325 l 286 318 m 372 103 l 558 103 l 547 124 l 538 124 l 522 151 l 519 151 l 513 165 l 511 165 l 496 193 l 521 193 l 506 221 l 481 221 l 468 242 l 457 242 l 450 256 l 453 256 l 436 283 l 425 283 l 425 256 l 410 256 l 410 242 l 401 242 l 401 221 l 413 221 l 413 193 l 415 193 l 415 165 l 419 165 l 419 151 l 397 151 l 397 124 l 372 124 l 372 103 z "},"L":{"ha":869,"x_min":-182,"x_max":972,"o":"m 49 936 q 51 944 50 940 q 53 950 51 947 l -100 950 q -94 958 -97 954 q -89 964 -92 961 l 72 964 q 96 972 83 972 l 374 972 q 397 964 389 972 l 236 964 q 242 958 239 961 q 247 950 246 954 l 399 950 q 401 936 401 942 l 479 936 q 481 935 481 936 q 481 935 481 935 l 481 922 l 293 922 l 293 894 l 371 894 l 371 874 l 363 874 l 363 846 l 313 846 l 313 818 l 425 818 l 425 811 l 433 811 l 433 783 l 439 783 l 439 756 l 429 756 l 429 728 l 422 728 l 422 693 l 446 693 l 446 665 l 419 665 l 419 638 l 425 638 l 425 631 l 524 631 l 524 603 l 575 603 l 575 589 l 361 589 l 361 575 l 432 575 l 432 547 l 374 547 l 374 519 l 424 519 l 424 506 l 433 506 l 433 485 l 619 485 l 619 471 l 749 471 l 749 443 l 396 443 l 396 471 l 267 471 l 267 485 l 81 485 l 81 506 l 71 506 l 71 519 l 21 519 l 21 547 l 79 547 l 79 575 l 8 575 l 8 589 l 222 589 l 222 603 l 171 603 l 171 631 l 72 631 l 72 638 l 67 638 l 67 665 l 93 665 l 93 693 l 69 693 l 69 728 l 76 728 l 76 756 l 86 756 l 86 783 l 81 783 l 81 811 l 72 811 l 72 818 l -40 818 l -40 846 l 10 846 l 10 874 l 18 874 l 18 894 l -60 894 l -60 922 l 128 922 l 128 936 l 49 936 m 972 186 l 593 186 l 593 179 l 621 179 l 621 158 l 818 158 l 818 151 l 757 151 l 757 124 l 854 124 l 854 103 l 868 103 l 868 96 l 858 96 l 858 89 l 854 89 l 854 61 l 857 61 l 857 40 l 851 40 l 851 33 l 844 33 q 843 26 843 31 l 858 26 q 843 6 854 13 l 828 6 q 808 0 821 0 l 108 0 q 89 6 96 0 l 103 6 q 86 26 90 13 l 71 26 q 70 31 71 29 q 69 33 69 32 l 76 33 l 76 40 l 82 40 l 82 61 l 79 61 l 79 89 l 83 89 l 83 96 l 93 96 l 93 103 l 79 103 l 79 124 l -18 124 l -18 151 l 43 151 l 43 158 l -154 158 l -154 179 l -182 179 l -182 186 l 197 186 l 197 207 l 43 207 l 43 228 l 193 228 l 193 235 l -135 235 l -135 256 l -87 256 l -87 263 l 93 263 l 93 269 l 29 269 l 29 290 l 138 290 l 138 318 l 28 318 l 28 332 l 118 332 l 118 339 l 76 339 l 76 360 l 117 360 l 117 374 l 65 374 l 65 388 l 186 388 l 186 408 l 221 408 l 221 422 l 31 422 l 31 443 l 383 443 l 383 422 l 574 422 l 574 408 l 539 408 l 539 388 l 418 388 l 418 374 l 469 374 l 469 360 l 429 360 l 429 339 l 471 339 l 471 332 l 381 332 l 381 318 l 490 318 l 490 290 l 382 290 l 382 285 l 767 285 q 797 269 786 285 l 861 269 l 865 263 l 685 263 l 688 256 l 639 256 q 640 247 640 253 l 640 235 l 968 235 l 968 228 l 818 228 l 818 207 l 972 207 l 972 186 z "},"M":{"ha":1189,"x_min":-97,"x_max":1351,"o":"m 1351 332 l 1047 332 l 1047 318 l 1293 318 l 1293 290 l 1185 290 l 1185 283 l 1076 283 l 1076 263 l 1006 263 l 1006 242 l 975 242 l 975 221 l 829 221 l 829 193 l 1047 193 l 1047 165 l 936 165 l 936 151 l 1033 151 l 1033 138 l 1092 138 l 1092 117 l 1113 117 l 1113 96 l 1132 96 l 1132 82 l 1133 82 l 1133 54 l 1163 54 l 1163 47 l 1147 47 l 1147 40 l 1113 40 l 1113 33 l 1032 33 l 1028 19 l 985 19 q 972 6 979 10 l 1024 6 q 1004 0 1017 0 l 753 0 q 733 6 740 0 l 681 6 q 668 19 674 10 l 710 19 q 706 33 706 26 l 786 33 l 786 40 l 821 40 l 821 47 l 836 47 l 836 54 l 807 54 l 807 82 l 806 82 l 806 96 l 786 96 l 786 117 l 765 117 l 765 138 l 707 138 l 707 151 l 610 151 l 610 165 l 721 165 l 721 193 l 229 193 l 229 165 l 428 165 l 428 151 l 399 151 l 399 117 l 404 117 l 404 96 l 378 96 l 378 82 l 368 82 l 368 54 l 372 54 l 372 47 l 475 47 l 475 40 l 389 40 l 389 33 l 439 33 q 435 19 439 26 l 358 19 q 344 6 354 10 l 336 6 q 315 0 329 0 l 64 0 q 44 6 51 0 l 54 6 q 47 12 50 8 q 40 19 43 15 l 118 19 q 114 33 114 26 l 63 33 l 63 40 l 149 40 l 149 47 l 46 47 l 46 54 l 42 54 l 42 82 l 51 82 l 51 96 l 78 96 l 78 117 l 72 117 l 72 151 l 101 151 l 101 165 l -97 165 l -97 193 l 203 193 l 203 221 l -71 221 l -71 242 l -78 242 l -78 263 l 36 263 l 36 283 l 76 283 l 76 290 l -12 290 l -12 318 l 182 318 l 182 332 l 318 332 l 314 339 l 67 339 l 67 346 l 113 346 l 113 353 l 78 353 l 78 381 l 79 381 l 79 394 l 111 394 l 111 415 l 104 415 l 104 443 l 67 443 l 67 450 l -58 450 l -58 464 l 50 464 l 50 471 l 46 471 l 46 485 l 107 485 l 107 499 l 140 499 l 140 519 l -79 519 l -79 547 l 96 547 l 96 561 l -60 561 l -60 582 l 101 582 l 101 596 l 82 596 l 82 610 l 29 610 l 29 617 l 56 617 l 56 638 l 215 638 l 215 658 l 192 658 l 192 672 l 60 672 l 60 679 l 53 679 l 53 700 l 118 700 l 118 728 l -26 728 l -26 742 l 24 742 l 24 749 l 38 749 l 38 763 l 6 763 l 6 783 l 131 783 l 131 804 l 67 804 l 67 832 l 172 832 l 172 839 l 139 839 l 139 867 l 263 867 l 263 888 l -28 888 l -28 908 l 281 908 l 281 929 l 144 929 l 144 943 l 40 943 q 45 955 42 950 q 53 964 49 960 l 60 964 q 83 972 68 972 l 303 972 q 335 964 322 972 l 328 964 q 342 954 336 960 q 350 943 347 949 l 456 943 l 461 935 l 464 929 l 601 929 l 614 908 l 306 908 l 318 888 l 607 888 l 619 867 l 497 867 l 514 839 l 547 839 l 551 832 l 446 832 l 463 804 l 525 804 l 538 783 l 414 783 l 426 763 l 458 763 l 467 749 l 453 749 l 457 742 l 407 742 l 415 728 l 560 728 l 576 700 l 511 700 l 524 679 l 531 679 l 535 672 l 638 672 l 642 679 l 604 679 l 617 700 l 663 700 l 679 728 l 654 728 l 663 742 l 550 742 l 554 749 l 694 749 l 703 763 l 692 763 l 704 783 l 788 783 l 800 804 l 804 804 l 821 832 l 757 832 l 761 839 l 907 839 l 924 867 l 915 867 l 928 888 l 714 888 l 726 908 l 932 908 l 944 929 l 793 929 l 796 935 q 801 943 799 940 l 804 943 q 814 954 808 949 q 826 964 819 960 l 824 964 q 856 972 836 972 l 1075 972 q 1099 964 1089 972 l 1103 964 q 1110 955 1107 960 q 1115 943 1114 950 l 1113 943 l 1113 929 l 1265 929 l 1265 908 l 1060 908 l 1060 888 l 1274 888 l 1274 867 l 1282 867 l 1282 839 l 1136 839 l 1136 832 l 1200 832 l 1200 804 l 1196 804 l 1196 783 l 1113 783 l 1113 763 l 1124 763 l 1124 749 l 983 749 l 983 742 l 1096 742 l 1096 728 l 1121 728 l 1121 700 l 1076 700 l 1076 679 l 1113 679 l 1113 672 l 1178 672 l 1178 658 l 1035 658 l 1035 638 l 1138 638 l 1138 617 l 1113 617 l 1113 610 l 1118 610 l 1118 596 l 1138 596 l 1138 582 l 976 582 l 976 561 l 1132 561 l 1132 547 l 957 547 l 957 519 l 1176 519 l 1176 499 l 1143 499 l 1143 485 l 1082 485 l 1082 471 l 1086 471 l 1086 464 l 978 464 l 978 450 l 1103 450 l 1103 443 l 1140 443 l 1140 415 l 1108 415 l 1108 394 l 1085 394 l 1085 381 l 1113 381 l 1113 353 l 1125 353 l 1125 346 l 1185 346 l 1185 339 l 1351 339 l 1351 332 m 701 672 l 667 672 l 675 658 l 693 658 l 701 672 m 538 617 l 542 610 l 596 610 l 600 601 l 606 610 l 600 610 l 604 617 l 628 617 l 640 638 l 553 638 l 565 617 l 538 617 m 743 394 l 782 394 l 782 415 l 756 415 l 743 394 m 404 353 l 439 353 l 439 346 l 393 346 l 393 339 l 488 339 l 483 346 l 461 346 l 456 353 l 443 353 l 426 381 l 429 381 l 421 394 l 406 394 l 406 381 l 404 381 l 404 353 m 1025 332 l 1025 339 l 858 339 l 858 346 l 799 346 l 799 353 l 786 353 l 786 381 l 764 381 l 746 353 l 760 353 l 756 346 l 778 346 l 774 339 l 660 339 l 660 332 l 508 332 l 508 318 l 314 318 l 314 290 l 403 290 l 403 283 l 363 283 l 363 263 l 249 263 l 249 242 l 256 242 l 256 221 l 649 221 l 649 242 l 679 242 l 679 263 l 563 263 q 554 251 558 257 q 543 242 550 246 l 539 242 q 511 233 526 233 l 414 233 q 385 242 397 233 l 389 242 q 378 251 383 246 q 369 263 374 257 l 513 263 l 508 268 l 499 283 l 449 283 l 444 290 l 542 290 l 524 318 l 686 318 l 678 332 l 1025 332 m 967 290 l 967 318 l 785 318 l 768 290 l 672 290 l 668 283 l 718 283 l 708 268 l 704 263 l 750 263 l 750 283 l 858 283 l 858 290 l 967 290 z "},"N":{"ha":1028,"x_min":-85,"x_max":1089,"o":"m 1082 75 l 1089 75 l 1089 61 l 1053 61 l 1053 33 l 961 33 q 958 22 961 28 q 953 13 956 17 l 906 13 q 897 6 900 7 l 953 6 q 933 0 946 0 l 714 0 q 699 2 706 0 q 686 6 692 4 l 629 6 q 618 13 624 8 l 665 13 q 654 24 658 18 q 647 32 650 29 l 647 33 l 738 33 l 719 61 l 756 61 l 746 75 l 739 75 l 725 96 l 565 96 l 546 124 l 567 124 l 549 151 l 500 151 l 494 158 l 558 158 l 544 179 l 574 179 l 560 200 l 503 200 l 485 228 l 572 228 l 568 235 l 522 235 l 514 249 l 471 249 l 453 276 l 429 276 l 425 283 l 489 283 l 475 304 l 403 304 l 403 283 l 333 283 l 333 276 l 428 276 l 428 249 l 442 249 l 442 235 l 443 235 l 443 228 l 403 228 l 403 200 l 338 200 l 338 179 l 414 179 l 414 158 l 400 158 l 400 151 l 383 151 l 383 124 l 414 124 l 414 96 l 426 96 l 426 75 l 369 75 l 369 61 l 418 61 l 418 33 l 357 33 q 354 22 357 28 q 349 13 351 17 l 393 13 q 385 6 388 7 l 342 6 q 322 0 335 0 l 71 0 q 50 6 57 0 l 94 6 q 86 13 92 7 l 40 13 q 35 22 38 17 q 32 33 32 28 l 92 33 l 92 61 l 43 61 l 43 75 l 100 75 l 100 96 l 88 96 l 88 124 l 57 124 l 57 151 l 74 151 l 74 158 l 88 158 l 88 179 l 11 179 l 11 200 l 76 200 l 76 228 l 117 228 l 117 235 l 115 235 l 115 249 l 101 249 l 101 276 l 7 276 l 7 283 l 76 283 l 76 304 l 143 304 l 143 311 l 69 311 l 69 318 l 97 318 l 97 346 l 75 346 l 75 374 l 76 374 l 76 381 l 65 381 l 65 388 l 67 388 l 67 408 l 14 408 l 14 415 l 50 415 l 50 429 l -32 429 l -32 457 l 106 457 l 106 471 l 18 471 l 18 499 l 68 499 l 68 506 l 76 506 l 76 526 l 101 526 l 101 540 l 114 540 l 114 561 l 78 561 l 78 568 l 64 568 l 64 582 l 50 582 l 50 610 l 76 610 l 76 631 l 114 631 l 114 644 l 201 644 l 201 651 l 93 651 l 93 658 l 57 658 l 57 679 l 42 679 l 42 700 l 67 700 l 67 728 l 103 728 l 103 749 l 138 749 l 138 763 l 68 763 l 68 769 l 76 769 l 76 797 l 108 797 l 108 804 l 43 804 l 43 818 l 83 818 l 83 846 l 31 846 l 31 867 l 65 867 l 65 881 l -58 881 l -58 901 l -85 901 l -85 915 l 8 915 l 8 935 q 10 943 8 940 l 103 943 q 108 957 103 949 l 83 957 q 114 972 94 972 l 333 972 q 360 968 349 972 q 378 957 371 964 l 403 957 q 414 943 408 951 l 321 943 q 322 942 321 942 q 322 940 322 942 l 338 915 l 244 915 l 253 901 l 279 901 l 292 881 l 415 881 l 424 867 l 390 867 l 403 846 l 454 846 l 472 818 l 432 818 l 440 804 l 506 804 l 510 797 l 478 797 l 494 769 l 486 769 l 490 763 l 560 763 l 568 749 l 533 749 l 547 728 l 511 728 l 528 700 l 501 700 l 514 679 l 529 679 l 543 658 l 579 658 l 583 651 l 604 651 l 604 658 l 646 658 l 646 679 l 606 679 l 606 700 l 615 700 l 615 728 l 643 728 l 643 749 l 676 749 l 676 763 l 610 763 l 610 797 l 692 797 l 692 804 l 690 804 l 690 818 l 603 818 l 603 846 l 633 846 l 633 867 l 674 867 l 674 881 l 589 881 l 589 901 l 697 901 l 697 915 l 689 915 l 689 935 q 690 943 689 940 l 644 943 q 651 957 646 949 l 604 957 q 635 972 615 972 l 886 972 q 917 957 906 972 l 964 957 q 969 943 967 951 l 1015 943 l 1015 915 l 1024 915 l 1024 901 l 915 901 l 915 881 l 1000 881 l 1000 867 l 960 867 l 960 846 l 929 846 l 929 818 l 1017 818 l 1017 804 l 1018 804 l 1018 797 l 936 797 l 936 763 l 1003 763 l 1003 749 l 969 749 l 969 728 l 942 728 l 942 700 l 932 700 l 932 679 l 972 679 l 972 658 l 931 658 l 931 651 l 1028 651 l 1028 644 l 976 644 l 976 631 l 963 631 l 963 610 l 917 610 l 917 582 l 869 582 l 869 568 l 942 568 l 942 561 l 989 561 l 989 540 l 976 540 l 976 526 l 951 526 l 951 506 l 943 506 l 943 499 l 893 499 l 893 471 l 981 471 l 981 457 l 843 457 l 843 429 l 925 429 l 925 415 l 889 415 l 889 408 l 942 408 l 942 388 l 940 388 l 940 381 l 985 381 l 985 374 l 954 374 l 954 346 l 957 346 l 957 318 l 996 318 l 996 311 l 929 311 l 929 304 l 969 304 l 969 283 l 906 283 l 906 276 l 928 276 l 928 249 l 971 249 l 971 235 l 1017 235 l 1017 228 l 928 228 l 928 200 l 985 200 l 985 179 l 956 179 l 956 158 l 893 158 l 893 151 l 942 151 l 942 124 l 921 124 l 921 96 l 1082 96 l 1082 75 m 701 651 l 692 651 l 696 644 l 701 644 l 701 651 m 608 644 l 617 631 l 579 631 l 592 610 l 636 610 l 636 631 l 650 631 l 650 644 l 608 644 m 590 610 l 565 610 l 582 582 l 590 582 l 590 610 m 497 311 l 493 318 l 454 318 l 436 346 l 432 346 l 414 374 l 444 374 l 439 381 l 403 381 l 403 374 l 401 374 l 401 346 l 424 346 l 424 318 l 396 318 l 396 311 l 497 311 z "},"O":{"ha":1031,"x_min":-10,"x_max":1031,"o":"m 961 533 l 1031 533 l 1031 506 l 1018 506 l 1018 478 l 1006 478 l 1006 457 l 976 457 l 976 450 l 988 450 l 988 443 l 949 443 l 949 429 l 1015 429 l 1015 408 l 975 408 l 975 401 l 976 401 q 976 388 976 394 q 975 374 975 381 l 974 374 q 972 361 972 369 l 972 346 l 965 346 q 964 339 964 343 q 964 332 964 335 l 978 332 l 974 304 l 961 304 q 959 290 960 297 q 956 276 958 283 l 971 276 q 970 274 971 275 q 969 269 969 272 l 990 269 q 990 267 990 268 q 989 263 989 265 l 964 263 q 961 252 963 257 q 958 242 960 247 l 954 242 l 946 221 l 931 221 q 926 210 929 215 q 921 200 924 206 l 933 200 q 926 186 931 193 l 918 186 q 913 176 917 181 q 907 165 910 171 l 950 165 l 940 151 l 889 151 l 874 131 l 889 131 l 869 110 l 885 110 q 881 107 883 108 q 878 103 879 106 l 894 103 q 887 96 890 100 q 879 89 883 92 l 853 89 q 844 82 849 86 q 835 75 840 78 l 844 75 q 835 68 840 72 q 825 61 831 64 l 822 61 q 797 47 810 54 q 771 33 785 40 l 767 33 q 758 31 763 32 q 750 26 754 29 q 731 19 740 22 q 711 13 722 15 l 710 13 q 610 -8 664 -1 l 611 -8 q 565 -12 589 -11 q 517 -14 540 -14 q 468 -12 492 -14 q 421 -8 444 -11 q 319 13 368 -3 l 321 13 q 301 19 311 15 q 282 26 292 22 l 281 26 q 272 31 276 29 q 264 33 268 32 l 268 33 q 242 47 254 40 q 217 61 229 54 l 219 61 l 199 75 l 190 75 q 181 82 185 78 q 172 89 176 86 l 199 89 l 182 103 l 165 103 q 163 107 164 106 q 158 110 161 108 l 144 110 q 134 120 139 115 q 125 131 129 125 l 110 131 l 93 151 l 144 151 l 136 165 l 92 165 q 86 176 89 171 q 81 186 83 181 l 89 186 q 82 200 85 193 l 69 200 q 65 210 67 206 q 60 221 63 215 l 76 221 l 68 242 l 72 242 q 69 252 71 247 q 67 263 68 257 l 82 263 q 81 269 81 265 l 67 269 q 66 274 67 272 q 65 276 65 275 l 63 276 q 60 290 61 283 q 57 304 58 297 l 64 304 q 62 318 63 311 q 61 332 61 325 l 53 332 l 51 346 l 61 346 l 61 361 q 60 367 61 364 q 60 374 60 371 l 42 374 q 40 388 40 381 q 40 401 40 394 l 50 401 l 50 408 l 46 408 l 46 429 l 74 429 l 74 443 l 25 443 l 25 450 l 51 450 l 51 457 l 50 457 l 50 478 l 43 478 l 43 506 l 51 506 l 51 533 l 42 533 l 42 554 l -10 554 l -10 582 l 50 582 q 51 589 51 585 l 74 589 l 74 596 l 57 596 l 57 610 l 58 610 l 61 638 l 58 638 q 59 648 58 643 q 61 658 60 653 l 57 658 q 58 669 57 664 q 60 679 58 674 l 57 679 q 60 690 58 685 q 63 700 61 694 l 24 700 q 24 704 24 703 q 25 707 25 706 l 67 707 l 71 721 l 68 721 l 71 728 l 92 728 q 94 735 93 731 q 97 742 96 739 l 83 742 q 94 769 88 754 l 90 769 q 98 784 94 776 q 106 797 101 792 l 110 797 l 114 804 l 92 804 l 96 811 l 118 811 l 122 818 l 119 818 l 136 839 l 126 839 l 144 860 q 159 874 151 867 q 175 888 167 882 l 161 888 l 169 894 l 154 894 q 159 899 157 897 q 164 901 161 900 l 199 901 q 210 908 204 904 q 221 915 215 913 l 225 915 q 253 930 239 922 q 281 943 267 938 l 285 943 q 346 964 313 956 l 353 964 q 438 981 393 975 q 529 986 482 986 q 704 964 628 986 l 696 964 q 726 955 711 960 q 756 943 742 950 l 750 943 q 778 930 765 938 q 806 915 792 922 l 800 915 l 821 901 l 786 901 q 791 899 789 900 q 796 894 793 897 l 811 894 q 817 892 814 893 q 821 888 819 890 l 835 888 q 851 874 843 882 q 865 860 858 867 l 867 860 q 876 849 872 854 q 885 839 881 844 l 894 839 l 911 818 l 914 818 q 919 811 918 814 l 897 811 l 901 804 l 925 804 l 929 797 l 925 797 q 933 784 929 792 q 940 769 936 776 l 944 769 l 957 742 l 971 742 l 975 728 l 954 728 l 957 721 l 960 721 l 964 707 l 960 707 q 960 704 960 706 q 961 700 961 703 l 903 700 q 906 690 906 694 q 908 679 907 685 l 981 679 q 983 669 982 674 q 983 658 983 664 l 964 658 q 966 648 965 653 q 967 638 967 643 l 985 638 l 988 610 l 969 610 l 969 606 q 970 601 969 604 q 971 596 971 599 l 1008 596 l 1008 589 l 975 589 q 976 582 976 586 l 1001 582 q 1003 568 1003 575 q 1003 554 1003 561 l 961 554 l 961 533 m 657 506 l 669 506 l 669 533 l 600 533 l 600 554 l 642 554 q 642 568 642 561 q 640 582 642 575 l 615 582 q 615 586 615 585 q 614 589 614 588 l 647 589 l 647 596 l 610 596 q 609 600 610 599 q 608 603 608 601 l 608 610 l 625 610 q 624 624 625 617 q 622 638 624 632 l 604 638 q 601 648 603 643 q 597 658 600 653 l 617 658 q 606 679 613 669 l 533 679 q 511 700 526 690 l 569 700 q 557 707 561 706 l 561 707 q 515 715 540 715 q 469 707 490 715 l 429 707 q 415 700 424 706 l 454 700 q 432 679 443 693 l 435 679 q 424 658 428 669 l 428 658 q 425 648 426 653 q 421 638 424 643 l 424 638 q 422 624 422 632 q 421 610 421 617 l 418 610 l 418 596 l 435 596 l 435 589 l 413 589 l 413 582 l 351 582 l 351 554 l 403 554 l 403 533 l 413 533 l 413 506 l 404 506 l 404 478 l 411 478 l 411 457 l 413 457 q 414 450 413 453 l 386 450 l 386 443 l 435 443 l 435 429 l 407 429 l 407 408 l 411 408 l 411 401 l 401 401 q 402 388 401 394 q 403 374 403 381 l 422 374 l 422 369 q 422 358 422 364 q 424 346 422 351 l 414 346 q 415 339 415 343 q 417 332 415 335 l 425 332 q 429 318 426 325 q 435 304 432 311 l 428 304 q 450 276 436 289 l 453 276 q 458 273 456 275 q 464 269 461 271 l 476 269 q 485 266 481 268 q 493 263 489 264 l 476 263 q 515 257 493 257 q 554 263 538 257 l 578 263 q 586 266 582 264 q 594 269 590 268 l 572 269 q 578 273 575 271 q 583 276 581 275 l 568 276 q 590 304 581 286 l 603 304 q 614 332 610 319 l 600 332 q 601 339 601 335 q 603 346 601 343 l 610 346 q 611 358 611 351 q 611 369 611 364 l 611 374 l 614 374 q 614 388 614 381 q 615 401 614 394 l 614 401 l 614 408 l 654 408 l 654 429 l 588 429 l 588 443 l 626 443 l 626 450 l 615 450 l 615 457 l 644 457 l 644 478 l 657 478 l 657 506 z "},"P":{"ha":979,"x_min":-111,"x_max":1011,"o":"m 953 624 l 938 624 l 938 603 l 969 603 l 969 596 l 957 596 l 953 568 l 968 568 q 967 561 967 565 l 947 561 q 944 547 946 554 q 940 533 943 540 q 938 519 940 528 l 924 519 l 915 499 l 914 499 q 908 485 913 492 q 901 471 904 478 l 904 471 l 900 464 l 913 464 q 904 450 908 457 q 894 436 900 443 l 904 436 q 892 422 899 429 q 879 408 886 415 l 876 408 q 860 394 868 401 q 843 381 853 388 l 835 381 q 812 367 824 374 q 788 353 800 360 l 792 353 q 785 350 789 351 q 778 346 781 349 l 776 346 q 718 325 750 333 q 686 317 703 321 q 653 311 669 314 l 651 311 q 533 303 596 303 l 436 303 l 436 290 l 446 290 l 446 263 l 463 263 l 463 256 l 429 256 l 429 242 l 442 242 l 442 221 l 407 221 l 407 214 l 450 214 l 450 186 l 438 186 l 438 151 l 443 151 l 443 131 l 426 131 l 426 103 l 419 103 l 419 89 l 465 89 l 465 68 l 426 68 l 426 40 l 453 40 l 453 38 q 451 26 453 31 l 443 26 q 440 19 443 25 l 444 19 q 439 13 443 17 l 440 13 q 432 6 435 7 l 433 6 q 414 0 426 0 l 128 0 q 108 6 115 0 l 106 6 q 97 13 103 7 q 94 17 96 15 q 93 19 93 18 l 89 19 q 86 26 86 25 l 93 26 q 92 38 92 31 l 92 40 l 65 40 l 65 68 l 104 68 l 104 89 l 58 89 l 58 103 l 65 103 l 65 131 l 82 131 l 82 151 l 76 151 l 76 186 l 89 186 l 89 214 l 46 214 l 46 221 l 81 221 l 81 242 l 68 242 l 68 256 l 101 256 l 101 263 l 85 263 l 85 290 l 75 290 l 75 311 l 76 311 l 76 353 l 74 353 l 74 381 l 82 381 l 82 408 l 86 408 l 86 436 l 76 436 l 76 464 l 64 464 l 64 471 l 61 471 l 61 499 l 63 499 l 63 519 l 76 519 l 76 561 l 72 561 l 72 568 l 68 568 l 68 596 l 83 596 l 83 603 l 78 603 l 78 624 l 83 624 l 83 638 l 82 638 l 82 651 l 43 651 l 43 679 l -111 679 l -111 700 l -40 700 l -40 728 l 86 728 l 86 742 l 33 742 l 33 769 l 1 769 l 1 790 l 22 790 l 22 797 l -7 797 l -7 825 l 100 825 l 100 832 l 86 832 l 86 853 l 54 853 l 54 874 l 10 874 l 10 901 l 110 901 l 110 922 l 61 922 l 61 929 l 51 929 l 51 936 l 76 936 q 79 950 76 942 l 64 950 q 68 958 65 954 q 74 964 71 961 l 158 964 q 182 972 169 972 l 603 972 q 715 964 664 972 l 632 964 q 665 958 649 961 q 694 950 681 954 l 711 950 q 733 944 722 947 q 753 936 743 940 l 728 936 q 736 933 732 935 q 744 929 740 932 l 753 929 l 768 922 l 818 922 l 854 901 l 753 901 q 772 888 764 896 q 789 874 781 881 l 833 874 l 854 853 l 886 853 q 895 842 890 847 q 903 832 900 838 l 917 832 q 922 825 921 828 l 815 825 q 824 812 819 819 q 832 797 828 804 l 861 797 l 864 790 l 844 790 l 853 769 l 886 769 l 894 742 l 947 742 l 951 728 l 825 728 q 828 715 828 722 q 831 700 829 707 l 1008 700 q 1010 690 1010 694 q 1011 679 1010 685 l 1004 679 q 1006 665 1006 672 q 1007 651 1007 658 l 953 651 l 953 624 m 604 603 l 572 603 l 576 624 l 592 624 l 592 638 q 592 644 592 640 q 590 651 592 649 l 644 651 q 642 666 643 658 q 638 679 640 674 l 643 679 q 629 700 640 690 l 451 700 q 411 714 435 714 l 314 714 l 314 700 l 243 700 l 243 679 l 397 679 l 397 651 l 436 651 l 436 638 l 438 638 l 438 624 l 432 624 l 432 603 l 438 603 l 438 596 l 422 596 l 422 568 l 426 568 l 426 561 l 431 561 l 431 560 l 528 560 q 540 561 536 560 l 560 561 q 569 565 565 563 q 578 568 574 567 l 564 568 q 589 596 581 578 l 601 596 q 604 603 604 601 z "},"Q":{"ha":1031,"x_min":-124,"x_max":1179,"o":"m 1101 492 l 1101 464 l 1128 464 l 1128 443 l 1099 443 l 1099 436 l 965 436 l 965 422 l 971 422 l 971 394 l 932 394 l 932 381 l 899 381 l 899 353 l 992 353 q 992 342 992 347 q 990 332 992 338 l 886 332 q 885 325 886 328 l 882 325 l 878 297 l 1065 297 l 1065 290 l 985 290 q 984 288 985 289 q 983 283 983 286 l 975 283 q 972 273 974 278 q 969 263 971 268 l 949 263 l 940 235 l 981 235 l 976 221 l 949 221 l 943 207 l 950 207 q 943 193 947 200 q 936 179 939 186 l 910 179 q 901 165 906 172 q 892 151 897 158 l 915 151 q 905 138 910 144 q 894 124 900 131 l 901 124 q 899 121 900 122 q 896 117 897 119 l 890 117 q 887 114 889 115 q 883 110 885 113 l 888 103 l 882 103 l 888 96 l 922 96 l 942 68 l 949 68 l 968 40 l 903 40 l 922 13 l 946 13 l 956 -1 l 968 -1 l 988 -29 l 992 -29 l 997 -36 l 979 -36 l 988 -47 q 989 -50 988 -49 l 994 -50 q 995 -53 994 -51 q 996 -57 996 -54 l 993 -57 l 993 -60 q 983 -85 996 -75 l 924 -85 q 907 -90 918 -90 l 635 -90 q 619 -88 626 -90 q 607 -85 613 -86 l 665 -85 q 647 -72 654 -79 q 635 -58 639 -64 l 633 -57 l 638 -57 l 632 -50 l 626 -50 l 615 -36 l 633 -36 l 628 -29 l 622 -29 l 607 -10 q 526 -14 569 -14 q 388 -1 453 -14 l 375 -1 q 347 5 361 1 q 319 13 332 8 l 296 13 q 260 25 278 18 q 225 40 242 32 l 289 40 q 265 54 276 47 q 242 68 253 61 l 235 68 q 217 82 225 75 q 200 96 208 89 l 165 96 l 157 103 l 164 103 q 156 110 160 106 q 150 117 153 114 l 156 117 l 149 124 l 142 124 q 131 138 136 131 q 119 151 125 144 l 96 151 q 88 165 92 158 q 79 179 83 172 l 106 179 q 98 193 101 186 q 92 207 94 200 l 85 207 q 82 214 83 210 q 79 221 81 218 l 106 221 l 100 235 l 60 235 l 51 263 l 58 263 l 54 283 l 100 283 q 99 290 99 286 l -57 290 q -58 297 -58 293 l 150 297 l 146 325 l 40 325 q 40 329 40 328 q 39 332 39 331 l -121 332 q -122 342 -122 338 q -124 353 -122 347 l 100 353 l 100 381 l -3 381 l -3 394 l 19 394 l 19 422 l 49 422 l 49 436 l 125 436 q 124 443 125 440 l 157 443 l 157 464 l 288 464 l 288 492 l 235 492 l 235 519 l -49 519 l -49 547 l 194 547 l 194 568 l 60 568 l 60 575 l 47 575 l 47 603 l 33 603 l 33 606 q 33 619 33 613 q 35 631 33 625 l 51 631 q 53 638 51 635 l 1 638 q 2 648 1 643 q 4 658 3 653 l 96 658 l 100 679 l -10 679 q -6 693 -8 686 q -3 707 -4 700 l -7 707 q -4 717 -6 713 q -1 728 -3 722 l 106 728 l 114 749 l 168 749 l 181 776 l 93 776 l 96 783 l 99 783 l 111 804 l 104 804 q 124 832 113 818 l 79 832 q 85 839 81 835 l 49 839 l 61 853 l 85 853 l 99 867 l 156 867 l 181 888 l 97 888 q 111 898 104 893 q 126 908 118 903 l 189 908 l 200 915 l 224 915 l 263 936 l 301 936 q 318 944 310 940 q 335 950 326 947 l 357 950 q 464 978 410 969 l 478 978 q 589 986 531 986 q 700 978 649 986 l 686 978 q 793 950 743 969 l 771 950 q 788 944 779 947 q 804 936 796 940 l 765 936 l 804 915 l 779 915 q 785 913 782 914 q 790 908 789 911 l 728 908 l 757 888 l 839 888 l 864 867 l 806 867 q 813 860 810 864 q 819 853 817 856 l 796 853 l 808 839 l 843 839 l 850 832 l 894 832 q 914 804 906 818 l 921 804 l 933 783 l 931 783 l 935 776 l 1024 776 l 1036 749 l 982 749 q 986 738 985 743 q 989 728 988 733 l 883 728 q 886 717 885 722 q 889 707 888 713 l 825 707 l 832 679 l 968 679 q 969 669 969 674 q 971 658 969 664 l 949 658 q 950 648 950 653 q 951 638 950 643 l 1040 638 q 1042 631 1042 635 l 942 631 q 943 619 943 625 q 944 606 943 613 l 944 603 l 924 603 q 924 589 924 596 q 925 575 924 582 l 1003 575 l 1003 568 l 1068 568 l 1068 547 l 965 547 l 965 519 l 1178 519 q 1178 506 1178 513 q 1179 492 1179 499 l 1101 492 m 400 707 q 365 679 378 699 l 457 679 q 422 707 442 700 l 486 707 q 442 715 468 715 q 396 707 417 715 l 400 707 m 765 443 q 767 453 767 449 q 767 464 767 458 l 740 464 l 740 492 l 818 492 q 817 506 818 499 q 817 519 817 513 l 604 519 l 604 547 l 707 547 l 707 568 l 642 568 l 642 575 l 564 575 q 563 589 563 582 q 563 603 563 596 l 583 603 q 582 617 582 610 q 579 631 582 625 l 679 631 q 678 635 679 633 q 678 638 678 636 l 589 638 q 586 648 588 643 q 582 658 585 653 l 604 658 q 593 679 600 669 l 474 679 q 463 658 467 669 l 371 658 q 367 648 369 653 q 364 638 365 643 l 415 638 q 415 635 415 636 q 414 631 414 633 l 397 631 q 395 617 396 625 q 394 603 394 610 l 408 603 l 408 575 l 421 575 l 421 568 l 556 568 l 556 547 l 313 547 l 313 519 l 596 519 l 596 492 l 649 492 l 649 464 l 518 464 l 518 443 l 486 443 l 486 436 l 410 436 l 410 422 l 381 422 l 381 394 l 358 394 l 358 381 l 461 381 l 461 369 q 461 361 461 365 q 463 353 461 357 l 239 353 q 240 342 239 347 q 242 332 240 338 l 403 332 q 404 325 404 329 l 511 325 q 513 321 513 324 q 514 315 513 318 q 515 321 515 318 q 517 325 515 324 l 521 325 q 522 329 521 328 q 522 332 522 331 l 626 332 l 631 353 l 536 353 q 538 361 538 357 q 538 369 538 365 l 538 381 l 571 381 l 571 394 l 610 394 l 610 422 l 604 422 l 604 436 l 738 436 l 738 443 l 765 443 m 688 290 q 693 297 692 294 l 314 297 q 319 290 318 293 l 475 290 q 478 288 476 289 q 481 283 479 286 l 435 283 q 469 263 450 268 l 461 263 q 500 257 478 257 q 539 263 522 257 l 560 263 q 593 283 579 269 l 603 283 q 606 288 604 286 q 608 290 607 289 l 688 290 z "},"R":{"ha":1003,"x_min":-43,"x_max":1029,"o":"m 961 554 l 893 554 q 890 544 892 549 q 886 533 889 539 l 925 533 l 921 519 l 888 519 q 876 492 883 507 l 856 492 q 840 464 850 478 l 843 464 q 833 450 838 457 q 824 436 829 443 l 974 436 l 956 415 l 832 415 q 818 401 826 408 q 803 388 810 394 l 821 388 q 808 377 815 382 q 793 367 800 372 l 839 367 l 833 363 l 846 339 l 813 339 l 828 311 l 832 311 l 836 304 l 835 304 l 849 276 l 863 276 l 871 263 l 764 263 l 775 242 l 872 242 l 881 228 l 850 228 l 861 207 l 999 207 l 1014 179 l 922 179 l 933 158 l 890 158 l 913 117 l 922 117 l 931 103 l 926 103 l 931 96 l 865 96 l 881 68 l 883 61 l 840 61 l 847 46 q 851 33 851 40 l 881 33 l 881 31 q 868 6 881 15 l 906 6 q 888 0 899 0 l 603 0 q 588 2 594 0 q 575 6 582 4 l 538 6 q 519 19 526 11 q 507 33 511 28 l 479 33 l 476 38 l 467 61 l 511 61 l 507 68 l 375 68 l 375 61 l 304 61 l 304 33 l 417 33 q 399 6 414 14 l 389 6 q 368 0 379 0 l 96 0 q 76 6 83 0 l 88 6 q 69 33 72 14 l -42 33 q -42 35 -42 35 q -43 38 -43 36 l -43 61 l 28 61 l 28 68 l 167 68 l 167 96 l 18 96 l 18 103 l 106 103 l 106 117 l 76 117 l 76 138 l 125 138 l 125 158 l 46 158 l 46 179 l 153 179 l 153 207 l 92 207 l 92 228 l 90 228 l 90 235 l 82 235 l 82 242 l 44 242 l 44 263 l 92 263 l 92 276 l 79 276 l 79 304 l 81 304 l 81 311 l 76 311 l 76 339 l 110 339 l 110 367 l 63 367 l 63 388 l 44 388 l 44 415 l 167 415 l 167 436 l 17 436 l 17 464 l 14 464 l 14 492 l 35 492 l 35 519 l 67 519 l 67 533 l 28 533 l 28 554 l 96 554 l 96 568 l 196 568 l 196 582 l 58 582 l 58 589 l 65 589 l 65 596 l 78 596 l 78 603 l 79 603 l 79 617 l 76 617 l 76 638 l 82 638 l 82 665 l 75 665 l 75 679 l 82 679 l 82 700 l 76 700 l 76 707 l 81 707 l 81 721 l 79 721 l 79 728 l 74 728 l 74 735 l 86 735 l 86 756 l 97 756 l 97 776 l 32 776 l 32 804 l 47 804 l 47 832 l 39 832 l 39 853 l 76 853 l 76 874 l 90 874 l 90 894 l 65 894 l 65 908 l 75 908 l 75 915 l 78 915 l 78 936 l 81 936 q 93 964 81 951 l 168 964 q 192 972 176 972 l 603 972 q 714 964 663 972 l 640 964 q 746 936 696 956 l 743 936 q 789 915 767 928 l 786 915 l 799 908 l 788 908 q 799 901 794 906 q 810 894 804 897 l 835 894 q 849 884 842 889 q 861 874 856 879 l 847 874 q 859 863 854 868 q 869 853 864 858 l 832 853 q 842 842 838 847 q 850 832 846 838 l 857 832 q 876 804 868 818 l 863 804 q 870 791 867 799 q 878 776 874 783 l 943 776 l 951 756 l 940 756 q 944 745 942 750 q 947 735 946 740 l 933 735 l 936 728 l 942 728 q 943 721 943 725 l 947 707 l 951 707 q 953 700 951 703 l 954 700 q 956 690 956 694 q 957 679 957 685 l 939 679 q 939 672 939 676 q 940 665 939 668 l 949 665 q 949 651 949 658 q 950 638 950 644 l 950 624 l 958 624 l 958 617 l 950 617 l 950 603 l 936 603 q 935 600 936 601 q 935 596 935 599 l 949 596 q 948 593 949 594 q 947 589 947 592 l 1013 589 q 1011 582 1011 586 l 1029 582 l 1028 568 l 964 568 q 961 554 961 560 m 406 582 l 543 582 l 543 568 l 443 568 l 443 567 l 544 567 q 560 568 554 567 l 624 568 q 651 582 639 572 l 632 582 l 639 589 l 574 589 q 579 596 578 593 l 565 596 l 569 603 l 583 603 l 588 617 l 594 617 q 596 624 596 619 l 588 624 l 589 638 q 585 665 589 651 l 576 665 q 574 672 575 668 q 571 679 574 676 l 590 679 q 575 700 585 690 l 572 700 q 563 707 568 704 l 558 707 q 529 714 544 714 l 428 714 l 428 707 l 424 707 l 424 700 l 429 700 l 429 679 l 422 679 l 422 665 l 429 665 l 429 638 l 424 638 l 424 617 l 426 617 l 426 603 l 425 603 l 425 596 l 413 596 l 413 589 l 406 589 l 406 582 m 515 263 l 510 276 l 494 276 l 483 303 l 426 303 l 426 276 l 439 276 l 439 263 l 515 263 m 392 263 l 392 242 l 418 242 l 410 263 l 392 263 m 518 235 l 515 242 l 429 242 l 429 235 l 438 235 l 438 228 l 439 228 l 439 207 l 500 207 l 500 179 l 393 179 l 393 158 l 472 158 l 472 138 l 424 138 l 424 117 l 453 117 l 453 103 l 365 103 l 365 96 l 561 96 l 557 103 l 561 103 l 554 117 l 543 117 l 535 138 l 525 158 l 569 158 l 560 179 l 650 179 l 638 207 l 500 207 l 492 228 l 522 228 l 518 235 z "},"S":{"ha":968,"x_min":-149,"x_max":1126,"o":"m 933 138 l 876 138 l 864 124 l 1076 124 q 1074 121 1075 122 q 1069 117 1072 119 l 742 117 q 727 103 735 110 q 711 89 719 96 l 813 89 l 794 75 l 983 75 l 972 68 l 890 68 q 885 65 889 67 q 879 61 882 64 l 786 61 l 747 40 l 801 40 q 765 26 783 32 q 728 13 747 19 l 678 13 q 575 -8 631 -1 l 582 -8 q 536 -12 560 -11 q 489 -14 513 -14 q 437 -12 463 -14 q 388 -8 411 -11 l 382 -8 q 275 13 322 -1 l 325 13 q 286 26 304 19 q 250 40 268 32 l 196 40 q 176 51 186 46 q 157 61 167 56 l 251 61 l 240 68 l 322 68 q 318 72 321 71 q 313 75 315 74 l 124 75 q 114 82 118 78 q 106 89 110 86 l 3 89 q -12 103 -4 96 q -26 117 -19 110 l 301 117 q 299 121 300 119 q 296 124 297 122 l 83 124 q 72 138 78 129 l 129 138 q 126 142 128 140 q 124 144 125 143 l 297 144 l 285 165 l 199 165 l 194 172 l -1 172 q -6 183 -3 178 q -11 193 -8 188 l 82 193 l 74 214 l 40 214 l 38 221 l 53 221 q 50 231 51 226 q 47 242 49 236 l 36 242 q 35 252 36 247 q 33 263 35 257 l 22 263 q 22 272 22 268 q 21 282 21 276 l 21 283 l 19 283 q 20 288 19 286 q 21 290 21 289 l 53 290 q 82 313 60 313 l 346 313 q 379 307 368 313 q 404 290 390 301 l 372 290 l 374 289 q 378 286 376 288 q 382 283 381 285 l 383 283 q 428 263 401 269 l 440 263 q 489 257 458 257 q 522 258 507 257 q 549 263 538 260 l 544 263 q 585 283 576 269 l 582 283 q 585 290 585 289 l 599 290 l 600 296 q 590 318 600 308 l 579 318 q 535 339 567 331 l 531 339 q 501 347 518 343 q 463 353 485 350 l 454 353 l 397 361 q 378 364 388 363 q 360 367 369 365 q 250 394 303 376 l 225 394 q 189 408 206 401 l 169 408 q 156 415 163 411 q 142 422 149 418 l 21 422 q 3 433 11 428 q -14 443 -6 438 l 244 443 q 231 453 238 449 q 218 464 225 458 l -58 464 q -66 471 -62 467 q -72 478 -69 475 l 0 478 q -24 506 -12 492 l -3 506 l -11 519 l -144 519 q -147 524 -146 522 q -149 526 -149 525 l 168 526 q 163 537 165 532 q 157 547 160 542 l -86 547 l -94 568 l 101 568 l 99 575 l 40 575 l 38 582 l 65 582 q 65 586 65 585 q 64 589 64 588 l 58 589 l 54 603 l 46 603 l 44 617 l 42 617 l 42 624 l -3 624 q -4 631 -4 626 q -4 638 -4 635 l -44 638 l -46 651 l 113 651 q 111 658 111 654 q 111 665 111 663 l 133 665 l 133 667 q 133 681 133 674 q 135 693 133 688 l 75 693 q 76 703 76 699 q 78 714 76 708 l 175 714 q 176 718 175 717 q 176 721 176 719 l 78 721 q 81 735 81 729 l 65 735 l 69 749 l 46 749 q 56 776 50 764 l 67 776 l 72 790 l 88 790 l 100 811 l 86 811 q 94 822 90 817 q 100 832 97 826 l 89 832 l 106 853 l 135 853 q 138 857 136 856 q 140 860 139 858 l 101 860 q 113 870 107 865 q 124 881 118 875 l 146 881 q 163 895 154 888 q 181 908 171 903 l 206 908 q 222 919 214 914 q 240 929 231 924 l 236 929 q 243 933 239 932 q 250 936 247 935 l 231 936 q 238 940 233 939 q 246 943 242 942 l 232 943 q 273 958 251 951 q 317 971 294 965 l 338 971 q 405 982 369 978 q 479 986 440 986 q 618 971 553 986 l 599 971 q 685 943 643 961 l 697 943 q 706 940 701 942 q 714 936 710 939 l 733 936 q 740 933 736 935 q 747 929 744 932 l 751 929 q 770 919 761 924 q 788 908 779 914 l 764 908 q 784 895 775 903 q 801 881 793 888 l 781 881 l 803 860 l 842 860 l 849 853 l 819 853 q 830 842 825 847 q 839 832 835 838 l 850 832 l 867 811 l 879 811 l 892 790 l 876 790 q 883 776 881 783 l 872 776 q 879 763 876 769 q 885 749 882 756 l 908 749 q 911 735 911 740 l 928 735 q 929 728 929 732 q 931 721 929 724 l 1029 721 l 1029 714 l 940 714 q 942 699 942 708 l 942 693 l 890 693 q 863 668 885 668 l 585 668 q 553 674 565 668 q 529 690 542 679 l 525 693 l 576 693 q 557 705 569 699 q 525 714 544 711 l 475 714 q 435 693 446 710 l 494 693 q 490 676 490 685 q 492 665 490 669 l 471 665 q 482 651 472 658 l 325 651 q 354 638 333 644 l 394 638 q 422 630 406 633 q 456 624 438 626 l 500 624 q 524 621 511 622 q 550 617 536 619 l 551 617 q 597 610 575 614 q 639 603 619 607 l 647 603 q 678 597 664 600 q 707 589 693 593 l 713 589 q 725 586 719 588 q 736 582 731 585 l 710 582 q 720 579 715 581 q 731 575 725 578 l 789 575 q 798 572 793 574 q 807 568 803 571 l 611 568 q 656 547 639 557 l 899 547 q 915 537 907 542 q 931 526 924 532 l 614 526 q 619 524 617 525 q 624 519 622 522 l 757 519 q 765 513 761 517 q 772 506 769 508 l 751 506 q 775 478 765 493 l 703 478 q 708 471 706 475 q 713 464 711 467 l 988 464 l 1000 443 l 742 443 q 747 433 744 438 q 751 422 750 428 l 871 422 l 875 408 l 894 408 l 899 394 l 924 394 q 927 381 926 389 q 929 367 928 374 l 931 353 l 939 353 q 940 346 940 350 q 940 339 940 342 l 944 339 l 944 318 l 957 318 l 957 314 q 956 303 957 308 q 956 290 956 297 l 942 290 l 942 283 l 944 283 q 944 273 944 278 q 942 263 943 268 l 946 263 l 942 242 l 953 242 q 950 231 951 236 q 946 221 949 226 l 931 221 q 930 218 931 219 q 929 214 929 217 l 963 214 l 954 193 l 861 193 q 856 183 860 188 q 850 172 853 178 l 1046 172 l 1042 165 l 1126 165 q 1120 155 1124 160 q 1113 144 1117 150 l 939 144 q 936 142 938 143 q 933 138 935 140 m 572 714 l 614 714 q 605 715 610 715 q 594 715 600 715 q 583 715 589 715 q 572 714 578 715 z "},"T":{"ha":936,"x_min":-154,"x_max":993,"o":"m 993 846 l 735 846 l 735 818 l 833 818 l 833 797 l 940 797 l 940 776 l 938 776 l 938 756 l 978 756 l 978 728 l 826 728 l 826 721 l 797 721 l 797 711 q 793 693 797 701 l 892 693 q 860 674 882 674 l 629 674 l 629 672 l 643 672 l 643 644 l 646 644 l 646 617 l 639 617 l 639 589 l 621 589 l 621 568 l 690 568 l 690 554 l 632 554 l 632 533 l 601 533 l 601 506 l 654 506 l 654 492 l 644 492 l 644 464 l 635 464 l 635 436 l 618 436 l 618 408 l 603 408 l 603 388 l 654 388 l 654 367 l 633 367 l 633 339 l 642 339 l 642 332 l 651 332 l 651 318 l 721 318 l 721 297 l 674 297 l 674 269 l 694 269 l 694 242 l 636 242 l 636 214 l 660 214 l 660 200 l 669 200 l 669 179 l 692 179 l 692 151 l 683 151 l 683 131 l 647 131 l 647 110 l 643 110 l 643 96 l 642 96 l 642 75 l 657 75 l 657 54 l 644 54 l 644 38 q 643 26 644 31 l 629 26 q 614 6 625 13 l 617 6 q 597 0 610 0 l 319 0 q 299 6 308 0 l 296 6 q 281 26 286 13 l 293 26 q 292 38 292 31 l 292 54 l 304 54 l 304 75 l 289 75 l 289 96 l 290 96 l 290 110 l 294 110 l 294 131 l 331 131 l 331 151 l 339 151 l 339 179 l 317 179 l 317 200 l 307 200 l 307 214 l 283 214 l 283 242 l 342 242 l 342 269 l 321 269 l 321 297 l 368 297 l 368 318 l 299 318 l 299 332 l 289 332 l 289 339 l 281 339 l 281 367 l 301 367 l 301 388 l 250 388 l 250 408 l 265 408 l 265 436 l 282 436 l 282 464 l 292 464 l 292 492 l 301 492 l 301 506 l 249 506 l 249 533 l 279 533 l 279 554 l 338 554 l 338 568 l 268 568 l 268 589 l 286 589 l 286 617 l 293 617 l 293 644 l 290 644 l 290 672 l 276 672 l 276 674 l 46 674 q 13 693 25 674 l -86 693 q -90 701 -87 697 q -92 711 -92 706 l -92 721 l -62 721 l -62 728 l 89 728 l 89 756 l 49 756 l 49 776 l 51 776 l 51 797 l -56 797 l -56 818 l -154 818 l -154 846 l 104 846 l 104 867 l -40 867 l -40 894 l -12 894 l -12 922 l 24 922 l 24 929 l 44 929 l 44 935 q 53 957 44 949 l 22 957 q 53 972 33 972 l 867 972 q 897 957 886 972 l 926 957 q 933 935 933 947 l 933 929 l 913 929 l 913 922 l 876 922 l 876 894 l 849 894 l 849 867 l 993 867 l 993 846 z "},"U":{"ha":1036,"x_min":-192,"x_max":1151,"o":"m 890 471 l 1151 471 l 1151 464 l 1081 464 l 1081 436 l 968 436 l 968 408 l 958 408 l 958 401 l 971 401 l 971 374 l 894 374 l 894 367 q 894 356 894 361 q 893 346 893 351 l 949 346 q 948 335 949 340 q 947 325 947 331 l 918 325 l 914 297 l 936 297 q 935 290 935 294 q 933 283 935 286 l 950 283 q 947 269 949 276 q 944 256 946 263 l 946 256 q 943 242 944 249 q 939 228 942 235 l 944 228 q 942 221 944 226 l 949 221 q 943 207 946 214 q 938 193 940 200 l 933 193 l 922 172 l 919 172 l 907 151 l 911 151 q 903 141 907 146 q 896 131 899 136 l 879 131 q 868 117 874 122 l 856 117 l 835 96 l 838 96 l 829 89 l 738 89 l 729 82 l 738 82 l 719 68 l 804 68 l 793 61 l 864 61 q 839 47 851 54 q 813 33 826 40 l 785 33 q 776 31 781 32 q 768 26 772 29 l 822 26 q 813 24 817 25 q 804 19 808 22 l 621 19 q 599 12 611 15 q 575 6 588 8 l 715 6 q 678 -2 697 1 q 640 -8 660 -6 l 472 -8 q 426 -12 450 -11 q 378 -14 401 -14 q 329 -12 353 -14 q 282 -8 306 -11 l 450 -8 q 412 -2 431 -6 q 375 6 393 1 l 235 6 q 211 12 222 8 q 189 19 200 15 l 371 19 q 362 24 367 22 q 353 26 357 25 l 299 26 l 283 33 l 313 33 q 286 47 299 40 q 261 61 274 54 l 192 61 q 187 65 189 64 q 182 68 185 67 l 97 68 q 88 75 92 71 q 79 82 83 79 l 71 82 l 63 89 l 154 89 l 146 96 l 144 96 l 124 117 l 138 117 l 125 131 l 140 131 l 126 151 l 122 151 l 110 172 l 113 172 q 108 183 110 178 q 103 193 106 188 l 106 193 q 100 207 103 200 q 94 221 97 214 l 89 221 l 86 228 l 81 228 q 72 256 75 240 l 69 256 q 67 269 68 263 q 64 283 65 276 l 71 283 q 69 290 69 286 q 68 297 69 294 l 78 297 l 75 325 l 78 325 q 76 335 76 331 q 76 346 76 340 l 65 346 l 65 374 l 4 374 l 4 401 l -47 401 l -47 408 l -3 408 l -3 436 l 114 436 l 114 464 l 257 464 l 257 471 l 144 471 l 144 492 l 104 492 l 104 513 l 56 513 l 56 533 l -3 533 l -3 561 l 56 561 l 56 610 l 71 610 l 71 624 l 78 624 l 78 631 l 82 631 l 82 658 l 69 658 l 69 672 l 76 672 l 76 679 l 56 679 l 56 707 l 40 707 l 40 721 l -67 721 l -67 735 l -192 735 l -192 749 l 150 749 l 150 756 l 49 756 l 49 783 l 72 783 l 72 797 l 57 797 l 57 818 l 208 818 l 208 846 l -18 846 l -18 853 l 138 853 l 138 867 l 61 867 l 61 881 l 29 881 l 29 894 l 132 894 l 132 922 l 71 922 l 71 929 l 68 929 l 68 935 q 71 950 68 946 l 63 950 q 97 972 72 972 l 369 972 q 403 950 393 972 l 411 950 q 415 935 415 944 l 415 929 l 418 929 l 418 922 l 479 922 l 479 894 l 376 894 l 376 881 l 408 881 l 408 867 l 485 867 l 485 853 l 329 853 l 329 846 l 556 846 l 556 818 l 404 818 l 404 797 l 419 797 l 419 783 l 396 783 l 396 756 l 608 756 l 608 783 l 621 783 l 621 797 l 686 797 l 686 818 l 794 818 l 794 846 l 678 846 l 678 853 l 586 853 l 586 867 l 607 867 l 607 881 l 717 881 l 717 894 l 650 894 l 650 922 l 619 922 l 619 929 l 590 929 l 590 935 q 593 950 590 946 l 624 950 q 658 972 633 972 l 931 972 q 965 950 956 972 l 933 950 q 938 935 938 944 l 938 929 l 967 929 l 967 922 l 997 922 l 997 894 l 1064 894 l 1064 881 l 954 881 l 954 867 l 933 867 l 933 853 l 1025 853 l 1025 846 l 1142 846 l 1142 818 l 1033 818 l 1033 797 l 968 797 l 968 783 l 956 783 l 956 756 l 811 756 l 811 749 l 957 749 l 957 735 l 886 735 l 886 721 l 789 721 l 789 707 l 890 707 l 890 679 l 946 679 l 946 672 l 979 672 l 979 658 l 985 658 l 985 631 l 968 631 l 968 624 l 967 624 l 967 610 l 978 610 l 978 582 l 994 582 l 994 561 l 999 561 l 999 533 l 888 533 l 888 513 l 938 513 l 938 492 l 890 492 l 890 471 m 451 492 l 492 492 l 492 471 l 543 471 l 543 492 l 590 492 l 590 513 l 540 513 l 540 533 l 651 533 l 651 561 l 647 561 l 647 582 l 631 582 l 631 610 l 619 610 l 619 624 l 621 624 l 621 631 l 638 631 l 638 658 l 632 658 l 632 672 l 599 672 l 599 679 l 543 679 l 543 707 l 442 707 l 442 721 l 539 721 l 539 735 l 610 735 l 610 749 l 156 749 l 156 735 l 281 735 l 281 721 l 388 721 l 388 707 l 403 707 l 403 679 l 424 679 l 424 672 l 417 672 l 417 658 l 429 658 l 429 631 l 425 631 l 425 624 l 418 624 l 418 610 l 403 610 l 403 561 l 344 561 l 344 533 l 403 533 l 403 513 l 451 513 l 451 492 m 733 464 l 804 464 l 804 471 l 604 471 l 604 464 l 461 464 l 461 436 l 344 436 l 344 408 l 300 408 l 300 401 l 351 401 l 351 374 l 413 374 l 413 372 q 413 359 413 365 q 414 346 413 353 l 425 346 l 429 325 l 428 325 q 443 297 431 311 l 433 297 q 447 283 439 289 l 440 283 q 507 265 464 265 q 572 283 549 265 l 557 283 q 571 297 565 289 l 550 297 q 565 325 558 308 l 594 325 q 598 335 597 331 q 600 346 599 340 l 544 346 q 547 359 546 353 q 547 372 547 365 l 547 374 l 624 374 l 624 401 l 611 401 l 611 408 l 621 408 l 621 436 l 733 436 l 733 464 z "},"V":{"ha":1008,"x_min":-103,"x_max":1086,"o":"m 964 700 l 918 700 l 917 693 l 1049 693 l 1040 665 l 929 665 l 922 638 l 917 638 l 913 624 l 807 624 l 799 596 l 735 596 l 731 582 l 892 582 l 890 575 l 899 575 l 890 547 l 871 547 l 865 526 l 890 526 l 886 513 l 892 513 l 888 499 l 850 499 l 844 478 l 871 478 l 867 464 l 829 464 l 826 450 l 796 450 l 790 429 l 776 429 l 772 415 l 838 415 l 833 401 l 879 401 l 876 394 l 742 394 l 733 367 l 789 367 l 783 346 l 725 346 l 717 318 l 792 318 l 785 297 l 797 297 l 796 290 l 804 290 l 801 283 l 807 283 l 806 276 l 796 276 l 792 263 l 778 263 l 772 242 l 779 242 l 775 228 l 778 228 l 771 207 l 772 207 l 767 186 l 765 186 l 758 165 l 740 165 l 736 151 l 742 151 l 740 144 l 751 144 l 743 117 l 754 117 l 750 103 l 743 103 l 738 82 l 749 82 l 744 68 l 731 68 l 728 54 l 697 54 l 694 46 l 693 40 l 767 40 q 746 13 760 25 l 568 13 q 557 6 564 8 l 710 6 q 697 2 704 4 q 682 0 690 0 l 365 0 q 351 2 357 0 q 338 6 344 4 l 183 6 q 172 13 178 8 l 349 13 q 328 40 335 25 l 256 40 q 254 43 254 42 q 253 46 254 44 l 250 54 l 281 54 l 276 68 l 290 68 l 286 82 l 274 82 l 268 103 l 274 103 l 269 117 l 260 117 l 251 144 l 240 144 l 239 151 l 233 151 l 229 165 l 247 165 l 240 186 l 242 186 l 236 207 l 235 207 l 229 228 l 226 228 l 222 242 l 215 242 l 210 263 l 222 263 l 218 276 l 228 276 l 226 283 l 221 283 l 218 290 l 210 290 l 208 297 l 196 297 l 189 318 l 114 318 l 106 346 l 164 346 l 158 367 l 103 367 l 94 394 l 229 394 l 228 401 l 183 401 l 179 415 l 222 415 l 218 429 l 158 429 l 153 450 l 172 450 l 168 464 l 160 464 l 156 478 l 178 478 l 172 499 l 143 499 l 139 513 l 192 513 l 188 526 l 135 526 l 129 547 l 144 547 l 136 575 l 88 575 l 85 582 l 92 582 l 88 596 l 147 596 l 139 624 l 101 624 l 97 638 l 108 638 l 101 665 l 185 665 l 176 693 l 47 693 l 44 700 l 333 700 l 329 714 l 174 714 l 167 735 l 265 735 l 257 763 l 246 763 l 238 790 l 189 790 l 185 804 l 50 804 l 42 832 l 51 832 l 47 846 l 46 853 l 39 853 l 36 860 l 28 888 l 21 888 l 18 894 l 7 894 l 1 915 l -100 915 l -103 922 l -24 922 l -26 932 q -27 934 -26 933 q -28 936 -28 935 l -11 936 l -11 942 q -1 964 -11 954 l -62 964 q -42 972 -54 972 l 217 972 q 250 964 238 972 l 311 964 q 338 936 328 954 l 319 936 l 324 926 l 325 922 l 246 922 l 247 915 l 349 915 l 354 894 l 365 894 l 367 888 l 375 888 l 382 860 l 383 853 l 392 853 l 393 846 l 392 846 l 396 832 l 388 832 l 394 804 l 529 804 l 532 790 l 588 790 l 592 804 l 599 804 l 606 832 l 610 832 l 613 846 l 617 846 l 618 853 l 582 853 l 583 860 l 618 860 l 625 888 l 599 888 l 600 894 l 493 894 l 499 915 l 547 915 l 549 922 l 457 922 l 458 926 q 460 932 460 929 q 461 936 460 935 l 628 936 q 653 964 635 954 l 704 964 q 739 972 719 972 l 997 972 q 1018 964 1010 972 l 965 964 q 975 942 975 954 l 975 936 l 810 936 q 808 932 808 935 l 806 922 l 897 922 l 896 915 l 846 915 l 840 894 l 947 894 l 946 888 l 971 888 l 963 860 l 929 860 l 928 853 l 964 853 l 963 846 l 958 846 l 954 832 l 950 832 l 942 804 l 935 804 l 931 790 l 921 790 l 914 763 l 1086 763 l 1078 735 l 982 735 l 975 714 l 967 714 l 964 700 m 508 735 l 513 714 l 635 714 l 640 735 l 738 735 l 744 763 l 599 763 l 606 735 l 508 735 m 701 665 l 708 693 l 578 693 l 579 700 l 385 700 l 386 693 l 515 693 l 524 665 l 439 665 l 446 638 l 435 638 l 439 624 l 576 624 l 579 638 l 585 638 l 592 665 l 701 665 m 564 575 l 556 575 l 557 582 l 421 582 l 422 575 l 471 575 l 478 547 l 463 547 l 468 526 l 519 526 l 524 513 l 471 513 l 475 499 l 504 499 l 508 478 l 486 478 l 490 464 l 497 464 l 499 460 l 500 464 l 536 464 l 540 478 l 514 478 l 518 499 l 557 499 l 560 513 l 554 513 l 557 526 l 533 526 l 538 547 l 557 547 l 564 575 z "},"W":{"ha":1189,"x_min":-42,"x_max":1186,"o":"m 954 575 l 950 554 l 1179 554 l 1176 540 l 965 540 l 964 533 l 1051 533 l 1047 506 l 1076 506 l 1074 485 l 1090 485 l 1086 464 l 1088 464 l 1085 443 l 1090 443 l 1090 436 l 1088 436 l 1083 408 l 1079 408 l 1075 381 l 1072 353 l 1099 353 l 1097 346 l 1082 346 l 1082 339 l 1110 339 l 1110 332 l 1065 332 l 1064 325 l 1049 325 l 1046 304 l 1092 304 l 1088 276 l 1140 276 l 1138 256 l 1096 256 l 1094 249 l 1074 249 l 1069 221 l 1081 221 l 1079 207 l 1092 207 l 1089 186 l 1068 186 l 1065 165 l 1019 165 l 1018 151 l 1065 151 l 1061 124 l 1031 124 l 1028 96 l 1056 96 l 1053 75 l 946 75 l 943 61 l 983 61 l 982 53 l 982 47 l 1019 47 q 1017 40 1018 44 q 1014 33 1017 36 l 999 33 q 981 13 992 21 l 993 13 q 981 6 985 7 l 992 6 q 964 0 981 0 l 765 0 q 751 2 757 0 q 739 6 744 4 l 728 6 q 721 9 724 7 q 715 13 718 11 l 704 13 q 694 24 699 18 q 688 33 690 29 l 703 33 q 701 38 701 35 l 697 47 l 660 47 l 654 61 l 614 61 l 608 75 l 715 75 l 707 96 l 678 96 l 667 124 l 697 124 l 686 151 l 639 151 l 633 165 l 678 165 l 669 186 l 690 186 l 682 207 l 669 207 l 664 221 l 653 221 l 642 249 l 663 249 l 660 256 l 701 256 l 693 276 l 640 276 l 629 304 l 583 304 l 576 322 l 569 304 l 564 304 l 553 276 l 639 276 l 631 256 l 563 256 l 560 249 l 572 249 l 561 221 l 586 221 l 581 207 l 511 207 l 503 186 l 540 186 l 532 165 l 486 165 l 481 151 l 503 151 l 492 124 l 493 124 l 482 96 l 390 96 l 382 75 l 528 75 l 522 61 l 492 61 l 486 47 l 483 47 l 479 38 l 476 33 l 433 33 q 427 24 431 29 q 417 13 424 18 l 425 13 q 414 6 421 8 l 451 6 q 439 2 446 4 q 424 0 432 0 l 225 0 q 197 6 208 0 l 161 6 q 149 13 157 7 l 139 13 q 121 33 126 22 l 165 33 q 163 40 164 36 q 160 47 161 44 l 164 47 l 163 53 l 161 61 l 192 61 l 189 75 l 44 75 l 42 96 l 132 96 l 129 124 l 128 124 l 124 151 l 101 151 l 100 165 l 144 165 l 142 186 l 106 186 l 103 207 l 172 207 l 169 221 l 144 221 l 140 249 l 128 249 l 126 256 l 194 256 l 192 276 l 106 276 l 101 304 l 107 304 l 103 325 l 118 325 l 118 332 l 163 332 l 161 339 l 132 339 l 131 346 l 146 346 l 146 353 l 118 353 l 117 367 l 115 367 l 114 381 l 110 408 l 114 408 l 110 436 l 113 436 l 111 443 l 106 443 l 103 464 l 101 464 l 99 485 l 82 485 l 79 506 l 50 506 l 46 533 l -42 533 l -42 540 l 169 540 l 168 554 l 85 554 l 82 575 l -6 575 l -7 589 l 119 589 l 115 617 l 82 617 l 82 624 l 101 624 l 100 631 l 129 631 l 126 651 l 79 651 l 78 658 l -31 658 l -33 686 l 88 686 l 83 714 l 53 714 l 51 728 l 64 728 l 61 749 l 65 749 l 64 756 l 21 756 l 19 769 l 49 769 l 46 790 l 49 790 l 46 811 l 69 811 l 67 825 l -8 825 l -10 839 l 50 839 l 49 853 l 14 853 l 13 867 l 56 867 l 53 888 l 39 888 l 35 915 l 50 915 l 49 922 l 46 938 l 46 943 l 25 943 q 56 972 28 972 l 314 972 q 363 943 357 972 l 383 943 q 385 935 385 940 l 386 922 l 388 915 l 374 915 l 376 888 l 390 888 l 393 867 l 349 867 l 351 853 l 385 853 l 386 839 l 326 839 l 328 825 l 403 825 l 406 811 l 382 811 l 383 790 l 382 790 l 383 769 l 353 769 l 356 756 l 397 756 l 399 749 l 394 749 l 397 728 l 385 728 l 386 714 l 417 714 l 421 686 l 299 686 l 301 658 l 410 658 l 411 651 l 458 651 l 461 631 l 432 631 l 432 624 l 413 624 l 414 617 l 443 617 l 446 624 l 460 624 l 463 631 l 521 631 l 528 651 l 464 651 l 465 658 l 572 658 l 582 686 l 469 686 l 478 714 l 465 714 l 465 717 l 469 728 l 496 728 q 502 739 499 733 q 511 749 506 744 l 503 749 q 518 756 510 754 l 531 756 q 543 757 535 757 l 685 757 q 696 756 693 757 l 683 756 q 692 753 689 754 q 699 749 696 751 l 707 749 q 717 739 714 744 q 722 728 721 733 l 697 728 q 701 717 701 722 l 703 714 l 717 714 l 725 686 l 779 686 l 783 714 l 775 714 l 776 728 l 842 728 l 843 749 l 782 749 l 783 756 l 772 756 l 775 769 l 799 769 l 801 790 l 793 790 l 796 811 l 815 811 l 817 825 l 732 825 l 733 839 l 758 839 l 760 853 l 807 853 l 808 867 l 807 867 l 810 888 l 813 915 l 785 915 l 786 922 l 819 922 l 822 935 l 822 943 l 849 943 q 897 972 854 972 l 1156 972 q 1176 964 1167 972 q 1186 943 1185 956 l 1161 943 l 1161 938 l 1158 922 l 1124 922 l 1122 915 l 1151 915 l 1147 888 l 1144 867 l 1146 867 l 1143 853 l 1096 853 l 1094 839 l 1069 839 l 1067 825 l 1153 825 l 1151 811 l 1132 811 l 1129 790 l 1136 790 l 1133 769 l 1110 769 l 1107 756 l 1118 756 l 1117 749 l 1178 749 l 1175 728 l 1111 728 l 1108 714 l 1117 714 l 1113 686 l 1063 686 l 1058 658 l 1119 658 l 1118 651 l 1047 651 l 1044 631 l 1110 631 l 1110 624 l 1106 624 l 1104 617 l 1108 617 l 1104 589 l 1126 589 l 1124 575 l 954 575 m 788 658 l 740 658 l 742 651 l 786 651 l 788 658 m 754 631 l 757 624 l 743 624 l 746 617 l 756 589 l 606 589 l 610 575 l 794 575 l 796 589 l 774 589 l 778 617 l 774 617 l 775 624 l 778 624 l 779 631 l 754 631 m 501 554 l 497 554 l 499 543 l 501 554 m 849 544 l 850 554 l 844 554 l 849 544 z "},"X":{"ha":1026,"x_min":-11,"x_max":1078,"o":"m 943 846 l 1078 846 l 1069 832 l 1042 832 l 1029 811 l 889 811 l 881 797 l 900 797 l 886 776 l 904 776 l 886 749 l 865 749 l 853 728 l 903 728 l 894 714 l 871 714 l 861 700 l 851 700 l 847 693 l 829 693 l 813 665 l 800 665 l 786 644 l 803 644 l 794 631 l 803 631 l 786 603 l 672 603 l 658 582 l 661 582 l 643 554 l 767 554 l 758 540 l 792 540 l 788 533 l 783 533 l 774 519 l 793 519 l 785 506 l 672 506 l 669 501 l 675 492 l 769 492 l 788 464 l 761 464 l 769 450 l 763 450 l 767 443 l 757 443 l 771 422 l 799 422 l 803 415 l 850 415 l 854 408 l 786 408 l 796 394 l 806 394 l 824 367 l 814 367 l 832 339 l 808 339 l 814 332 l 828 311 l 800 311 l 806 304 l 811 304 l 825 283 l 863 283 l 867 276 l 881 276 l 885 269 l 917 269 l 935 242 l 931 242 l 944 221 l 892 221 l 896 214 l 913 214 l 926 193 l 885 193 l 893 179 l 856 179 l 868 158 l 978 158 l 992 138 l 979 138 l 989 124 l 972 124 l 990 96 l 997 96 l 1007 82 l 1017 82 l 1021 75 l 1004 75 l 1022 47 l 1032 47 l 1033 46 q 1037 37 1036 40 q 1038 31 1038 33 l 1038 26 l 1026 26 q 1014 6 1024 14 l 1011 6 q 993 0 1004 0 l 681 0 q 666 2 672 0 q 653 6 660 4 l 656 6 q 631 26 639 13 l 642 26 q 638 32 640 29 l 628 47 l 617 47 l 599 75 l 617 75 l 613 82 l 601 82 l 593 96 l 585 96 l 567 124 l 583 124 l 575 138 l 588 138 l 574 158 l 464 158 l 450 179 l 489 179 l 479 193 l 522 193 l 508 214 l 492 214 l 489 218 l 486 214 l 476 214 l 464 193 l 424 193 l 415 179 l 443 179 l 429 158 l 413 158 l 400 138 l 449 138 l 440 124 l 447 124 l 431 96 l 450 96 l 440 82 l 414 82 l 410 75 l 415 75 l 397 47 l 400 47 l 390 32 q 386 26 388 29 l 376 26 q 351 6 368 13 l 346 6 q 333 2 340 4 q 318 0 326 0 l 15 0 q -1 6 4 0 l 3 6 q -10 26 -7 14 l 0 26 l 0 31 q 1 37 0 33 q 4 46 1 40 l 6 47 l 3 47 l 21 75 l 17 75 l 21 82 l 47 82 l 56 96 l 36 96 l 54 124 l 47 124 l 57 138 l 7 138 l 21 158 l 38 158 l 51 179 l 24 179 l 32 193 l 74 193 l 86 214 l 96 214 l 100 221 l 153 221 l 167 242 l 169 242 l 188 269 l 157 269 l 161 276 l 147 276 l 151 283 l 114 283 l 128 304 l 122 304 l 126 311 l 153 311 l 167 332 l 165 332 l 171 339 l 193 339 l 211 367 l 221 367 l 239 394 l 229 394 l 238 408 l 306 408 l 311 415 l 264 415 l 268 422 l 240 422 l 254 443 l 263 443 l 268 450 l 275 450 l 285 464 l 311 464 l 329 492 l 235 492 l 239 497 l 233 506 l 347 506 l 338 519 l 319 519 l 310 533 l 315 533 l 311 540 l 276 540 l 268 554 l 144 554 l 128 582 l 125 582 l 113 603 l 226 603 l 210 631 l 200 631 l 192 644 l 175 644 l 163 665 l 175 665 l 158 693 l 176 693 l 172 700 l 182 700 l 174 714 l 197 714 l 189 728 l 138 728 l 125 749 l 146 749 l 129 776 l 117 776 l 103 797 l 165 797 l 157 811 l 88 811 l 75 832 l 61 832 l 53 846 l 132 846 l 124 860 l 104 860 l 96 874 l 63 874 l 54 888 l 56 888 l 51 894 l 61 894 l 44 922 l -7 922 l -10 926 q -10 928 -10 928 q -11 929 -11 928 l 26 929 q 24 935 25 932 q 24 942 24 938 l 24 943 l 25 943 q 35 964 28 957 l 24 964 q 44 972 32 972 l 346 972 q 364 969 356 972 q 378 964 372 967 l 390 964 q 404 954 399 960 q 413 943 410 949 l 411 943 q 414 938 414 938 l 419 929 l 382 929 l 385 922 l 436 922 l 453 894 l 443 894 l 447 888 l 446 888 l 454 874 l 486 874 l 494 860 l 514 860 l 521 846 l 442 846 l 450 832 l 464 832 l 476 811 l 651 811 l 664 832 l 692 832 l 700 846 l 565 846 l 574 860 l 599 860 l 608 874 l 551 874 l 561 888 l 592 888 l 596 894 l 586 894 l 604 922 l 626 922 l 631 929 l 618 929 l 624 938 q 626 943 624 938 l 631 943 q 639 954 633 949 q 653 964 644 960 l 621 964 q 636 969 628 967 q 654 972 644 972 l 942 972 q 961 964 956 972 l 993 964 q 1003 943 1003 954 l 1000 943 l 1000 942 q 997 929 1000 933 l 1010 929 q 1009 928 1010 928 q 1008 926 1008 928 l 1006 922 l 983 922 l 965 894 l 974 894 l 969 888 l 939 888 l 931 874 l 986 874 l 978 860 l 953 860 l 943 846 m 490 797 l 503 776 l 508 776 l 521 797 l 490 797 m 521 768 l 525 776 l 515 776 l 521 768 z "},"Y":{"ha":986,"x_min":-78,"x_max":1024,"o":"m 953 957 q 957 943 957 951 l 1006 943 l 1006 942 q 1003 929 1006 935 l 999 922 l 947 922 l 933 894 l 944 894 l 938 881 l 960 881 l 956 874 l 911 874 l 901 853 l 910 853 l 906 846 l 889 846 l 882 832 l 975 832 l 961 804 l 879 804 l 876 797 l 858 797 l 847 776 l 886 776 l 872 749 l 901 749 l 897 742 l 888 742 l 883 735 l 875 735 l 861 707 l 863 707 l 856 693 l 876 693 l 872 686 l 858 686 l 854 679 l 885 679 l 878 665 l 929 665 l 922 651 l 794 651 l 788 638 l 875 638 l 864 617 l 846 617 l 836 596 l 801 596 l 799 589 l 807 589 l 800 575 l 792 575 l 789 568 l 818 568 l 811 554 l 825 554 l 815 533 l 789 533 l 786 526 l 779 526 l 765 499 l 761 499 l 757 492 l 792 492 l 785 478 l 807 478 l 797 457 l 714 457 l 707 443 l 754 443 l 743 422 l 724 422 l 719 415 l 708 394 l 736 394 l 732 388 l 783 388 l 781 381 l 774 367 l 661 367 l 654 353 l 796 353 l 782 325 l 706 325 l 699 311 l 699 297 l 660 297 l 660 283 l 667 283 l 667 256 l 703 256 l 703 228 l 544 228 l 544 200 l 707 200 l 707 179 l 651 179 l 651 158 l 667 158 l 667 151 l 686 151 l 686 124 l 697 124 l 697 117 l 661 117 l 661 103 l 688 103 l 688 75 l 588 75 l 588 47 l 565 47 l 565 33 l 663 33 q 646 6 663 15 l 629 6 q 610 0 622 0 l 338 0 q 318 6 325 0 l 333 6 q 317 33 319 15 l 218 33 l 218 47 l 240 47 l 240 75 l 340 75 l 340 103 l 314 103 l 314 117 l 350 117 l 350 124 l 339 124 l 339 151 l 319 151 l 319 158 l 304 158 l 304 179 l 360 179 l 360 200 l 197 200 l 197 228 l 356 228 l 356 256 l 319 256 l 319 283 l 313 283 l 313 297 l 351 297 l 351 311 l 344 325 l 421 325 l 407 353 l 265 353 l 258 367 l 369 367 l 363 381 l 360 388 l 308 388 l 304 394 l 276 394 l 267 415 l 268 415 l 264 422 l 283 422 l 274 443 l 226 443 l 219 457 l 303 457 l 292 478 l 269 478 l 263 492 l 228 492 l 224 499 l 229 499 l 215 526 l 221 526 l 218 533 l 243 533 l 232 554 l 218 554 l 211 568 l 182 568 l 178 575 l 186 575 l 179 589 l 171 589 l 167 596 l 201 596 l 190 617 l 208 617 l 197 638 l 110 638 l 103 651 l 231 651 l 224 665 l 96 665 l 89 679 l 117 679 l 114 686 l 178 686 l 175 693 l 182 693 l 175 707 l 126 707 l 113 735 l 119 735 l 115 742 l 104 742 l 100 749 l 99 749 l 85 776 l 53 776 l 42 797 l 58 797 l 56 804 l -64 804 l -78 832 l -46 832 l -53 846 l 32 846 l 29 853 l 64 853 l 53 874 l -4 874 l -7 881 l 69 881 l 63 894 l -19 894 l -35 922 l 11 922 l 7 929 q 4 942 4 935 l 4 943 l 42 943 q 43 951 42 947 q 46 957 44 954 l 71 957 q 97 972 79 972 l 358 972 q 384 968 374 972 q 401 957 394 964 l 376 957 q 384 950 381 954 q 389 943 388 946 l 351 943 q 354 938 354 938 l 361 922 l 317 922 l 331 894 l 414 894 l 421 881 l 343 881 l 347 874 l 404 874 l 414 853 l 379 853 l 383 846 l 299 846 l 306 832 l 272 832 l 286 804 l 406 804 l 410 797 l 392 797 l 403 776 l 435 776 l 449 749 l 450 749 l 454 742 l 465 742 l 468 735 l 461 735 l 475 707 l 511 707 l 525 735 l 533 735 l 538 742 l 549 742 l 551 749 l 522 749 l 536 776 l 497 776 l 507 797 l 526 797 l 529 804 l 611 804 l 625 832 l 531 832 l 538 846 l 556 846 l 558 853 l 550 853 l 560 874 l 604 874 l 608 881 l 586 881 l 593 894 l 582 894 l 596 922 l 647 922 l 656 938 q 658 943 656 938 l 610 943 q 615 950 613 946 q 622 957 618 954 l 693 957 q 711 968 700 964 q 736 972 722 972 l 997 972 q 1024 957 1015 972 l 953 957 m 529 665 l 536 679 l 506 679 l 508 686 l 463 686 l 467 679 l 438 679 l 444 665 l 529 665 z "},"Z":{"ha":963,"x_min":25,"x_max":956,"o":"m 908 6 q 888 0 899 0 l 94 0 q 75 6 82 0 l 67 6 q 59 12 63 8 q 53 19 56 15 l 42 19 l 39 26 l 36 26 q 35 32 36 29 q 35 38 35 35 l 35 68 l 56 68 l 56 75 l 46 75 l 46 103 l 42 103 l 42 110 l 51 110 l 51 138 l 49 138 l 49 165 l 43 165 l 43 179 l 49 179 l 49 214 l 67 214 l 67 235 l 65 235 l 65 238 q 66 247 65 243 q 68 256 67 251 l 47 256 q 50 263 49 260 q 53 269 51 267 l 57 269 q 61 276 60 275 l 38 276 q 42 282 40 279 q 46 286 44 285 l 57 297 l 83 297 l 97 311 l 83 311 l 110 339 l 94 339 l 108 353 l 133 353 l 147 367 l 183 367 l 203 388 l 192 388 l 206 401 l 189 401 l 196 408 l 231 408 l 236 415 l 201 415 l 222 436 l 229 436 l 236 443 l 208 443 l 235 471 l 263 471 l 283 492 l 310 519 l 294 519 l 307 533 l 332 533 l 358 561 l 350 561 l 376 589 l 390 589 l 404 603 l 386 603 l 393 610 l 390 610 l 397 617 l 379 617 l 386 624 l 408 624 l 435 651 l 411 651 l 425 665 l 426 665 l 446 686 l 454 686 l 458 690 l 100 690 q 75 700 88 690 l 86 700 q 76 714 81 706 l 74 714 q 71 728 71 722 l 71 742 l 79 742 l 79 756 l 67 756 l 67 783 l 49 783 l 49 804 l 61 804 l 61 832 l 65 832 l 65 839 l 25 839 l 25 867 l 61 867 l 61 894 l 63 894 l 63 922 l 42 922 l 42 936 l 119 936 q 122 950 119 942 l 100 950 q 104 958 101 954 q 110 964 107 961 l 81 964 q 104 972 92 972 l 865 972 q 889 964 881 972 l 919 964 q 929 950 925 958 l 953 950 q 956 936 956 942 l 878 936 l 878 922 l 899 922 l 899 894 l 897 894 l 897 867 l 861 867 l 861 839 l 901 839 l 901 832 l 897 832 l 897 804 l 885 804 l 885 783 l 903 783 l 903 756 l 915 756 l 915 742 l 907 742 l 907 738 q 903 714 907 725 l 907 714 q 903 706 906 710 q 899 700 901 703 l 888 700 q 881 692 886 697 l 875 686 l 867 686 l 849 665 l 847 665 l 835 651 l 858 651 l 832 624 l 811 624 l 804 617 l 822 617 l 815 610 l 818 610 l 813 603 l 831 603 l 818 589 l 804 589 l 779 561 l 788 561 l 763 533 l 738 533 l 725 519 l 740 519 l 715 492 l 696 471 l 669 471 l 644 443 l 671 443 l 665 436 l 657 436 l 639 415 l 674 415 l 667 408 l 633 408 l 626 401 l 643 401 l 631 388 l 642 388 l 622 367 l 586 367 l 574 353 l 549 353 l 536 339 l 551 339 l 526 311 l 540 311 l 528 297 l 500 297 l 489 285 l 856 285 q 879 276 871 285 l 903 276 q 910 269 907 274 l 907 269 q 913 256 910 264 l 933 256 l 933 235 l 935 235 l 935 214 l 917 214 l 917 179 l 911 179 l 911 165 l 917 165 l 917 138 l 919 138 l 919 110 l 910 110 l 910 103 l 914 103 l 914 75 l 924 75 l 924 68 l 903 68 l 903 38 q 901 26 903 31 l 904 26 l 901 19 l 913 19 q 906 12 910 15 q 899 6 903 8 l 908 6 z "},"А":{"ha":1049,"x_min":-1,"x_max":1092,"o":"m 1065 75 l 1075 47 l 1051 47 l 1054 40 q 1055 37 1054 39 q 1056 33 1056 35 l 1047 33 l 1047 31 q 1035 6 1047 14 l 1036 6 q 1018 0 1029 0 l 761 0 q 745 2 751 0 q 732 6 739 4 q 715 19 721 11 q 707 33 710 26 l 714 33 l 714 35 l 711 40 l 708 47 l 732 47 l 722 75 l 696 75 l 692 89 l 749 89 l 739 117 l 722 117 l 718 126 l 419 126 l 417 117 l 400 117 l 390 89 l 375 89 l 369 75 l 361 75 l 351 47 l 353 47 l 350 40 l 349 35 l 347 33 l 340 33 q 332 19 338 26 q 315 6 326 11 l 357 6 q 344 2 351 4 q 328 0 338 0 l 71 0 q 54 6 60 0 l 13 6 q -1 31 -1 15 l -1 33 l 7 33 q 8 40 7 38 l 10 47 l 8 47 l 18 75 l 26 75 l 32 89 l 47 89 l 57 117 l 72 117 l 82 144 l 28 144 l 33 158 l 29 158 l 36 179 l 50 179 l 53 186 l 22 186 l 32 214 l 79 214 l 83 228 l 40 228 l 43 235 l 50 235 l 60 263 l 56 263 l 63 283 l 68 283 l 78 311 l 96 311 l 103 332 l 106 339 l 175 339 l 178 346 l 174 346 l 181 367 l 103 367 l 113 394 l 138 394 l 140 401 l 125 401 l 128 408 l 172 408 l 182 436 l 128 436 l 133 450 l 154 450 l 164 478 l 151 478 l 158 499 l 174 499 l 183 526 l 179 526 l 182 533 l 150 533 l 156 547 l 186 547 l 193 568 l 179 568 l 181 575 l 206 575 l 215 603 l 185 603 l 192 624 l 176 624 l 181 638 l 85 638 l 89 651 l 71 651 l 81 679 l 63 679 l 71 700 l 125 700 l 135 728 l 274 728 l 281 749 l 214 749 l 219 763 l 271 763 l 281 790 l 235 790 l 242 811 l 271 811 l 281 839 l 276 839 l 286 867 l 247 867 l 249 874 l 382 874 l 392 901 l 388 901 l 390 908 l 342 908 l 347 926 l 351 936 l 365 936 l 374 950 l 369 950 q 389 966 376 960 q 419 972 401 972 l 721 972 q 751 966 739 972 q 771 950 764 960 l 776 950 l 785 936 l 771 936 q 774 926 774 931 l 781 908 l 829 908 l 831 901 l 835 901 l 844 874 l 713 874 l 715 867 l 754 867 l 764 839 l 768 839 l 778 811 l 749 811 l 756 790 l 801 790 l 811 763 l 760 763 l 765 749 l 832 749 l 839 728 l 700 728 l 710 700 l 656 700 l 663 679 l 679 679 l 689 651 l 635 651 l 640 638 l 861 638 l 865 624 l 854 624 l 861 603 l 833 603 l 843 575 l 810 575 l 811 568 l 861 568 l 868 547 l 869 547 l 875 533 l 829 533 l 832 526 l 876 526 l 886 499 l 901 499 l 908 478 l 904 478 l 914 450 l 936 450 l 942 436 l 901 436 l 911 408 l 939 408 l 940 401 l 933 401 l 936 394 l 911 394 l 919 367 l 999 367 l 1006 346 l 1010 346 l 1013 339 l 942 339 l 944 332 l 946 332 l 953 311 l 935 311 l 944 283 l 938 283 l 946 263 l 950 263 l 960 235 l 953 235 l 956 228 l 999 228 l 1004 214 l 956 214 l 965 186 l 996 186 l 999 179 l 985 179 l 993 158 l 996 158 l 1001 144 l 1056 144 l 1065 117 l 1082 117 l 1092 89 l 1035 89 l 1039 75 l 1065 75 m 485 624 l 501 624 l 494 603 l 551 603 l 544 624 l 556 624 l 551 638 l 489 638 l 485 624 m 531 575 l 524 599 l 517 575 l 531 575 m 447 408 l 444 401 l 460 401 l 458 397 l 615 397 l 614 401 l 621 401 l 619 408 l 592 408 l 583 436 l 624 436 l 619 450 l 596 450 l 588 478 l 592 478 l 586 499 l 571 499 l 563 526 l 518 526 l 515 533 l 561 533 l 557 547 l 556 547 l 549 568 l 504 568 l 499 547 l 468 547 l 464 533 l 494 533 l 493 526 l 497 526 l 489 499 l 474 499 l 467 478 l 479 478 l 471 450 l 450 450 l 446 436 l 500 436 l 492 408 l 447 408 z "},"Б":{"ha":933,"x_min":-68,"x_max":1039,"o":"m 863 117 l 1039 117 q 1010 89 1025 100 l 804 89 l 776 68 l 826 68 q 815 60 821 64 q 804 54 810 57 l 790 54 q 768 43 779 49 q 744 33 757 38 l 985 33 q 950 22 968 28 q 913 13 932 17 l 643 13 q 623 9 633 11 q 601 6 613 7 l 475 6 q 432 1 454 3 q 386 0 410 0 l -49 0 q -68 6 -61 0 l 58 6 q 50 13 56 7 l 318 13 q 313 22 315 17 q 310 33 310 28 l 69 33 l 69 54 l 83 54 l 83 68 l 32 68 l 32 89 l 239 89 l 239 117 l 63 117 l 63 131 l 74 131 l 74 138 l 92 138 l 92 144 l 49 144 l 49 151 l 65 151 l 65 179 l 54 179 l 54 207 l 76 207 l 76 221 l 119 221 l 119 249 l 106 249 l 106 256 l 139 256 l 139 269 l 140 269 l 140 276 l 58 276 l 58 283 l 79 283 l 79 297 l 72 297 l 72 318 l 43 318 l 43 332 l 46 332 l 46 346 l 40 346 l 40 353 l 67 353 l 67 360 l 79 360 l 79 367 l 69 367 l 69 374 l 74 374 l 74 394 l 93 394 l 93 422 l 72 422 l 72 436 l 38 436 l 38 443 l 94 443 l 94 464 l 76 464 l 76 492 l 103 492 l 103 519 l 114 519 l 114 547 l 7 547 l 7 554 l 111 554 l 111 610 l 119 610 l 119 617 l 83 617 l 83 631 l 86 631 l 86 638 l 76 638 l 76 651 l 75 651 l 75 658 l 76 658 l 76 665 l 25 665 l 25 686 l 40 686 l 40 693 l 118 693 l 118 714 l -36 714 l -36 721 l 121 721 l 121 728 l 33 728 l 33 756 l -58 756 l -58 763 l 76 763 l 76 790 l 92 790 l 92 811 l 76 811 l 76 853 l 81 853 l 81 860 l 74 860 l 74 867 l 79 867 l 79 894 l 56 894 l 56 901 l 83 901 l 83 929 l 74 929 l 74 943 l 78 943 q 83 957 78 949 l 85 957 q 115 972 96 972 l 835 972 q 865 957 854 972 l 864 957 q 869 943 869 949 l 867 943 q 867 940 867 942 q 868 935 868 938 l 868 929 l 878 929 l 878 901 l 850 901 l 850 894 l 874 894 l 874 867 l 868 867 l 868 860 l 875 860 l 875 853 l 871 853 l 871 811 l 886 811 l 886 790 l 871 790 l 871 763 l 736 763 l 736 756 l 828 756 l 828 728 l 915 728 l 915 721 l 758 721 q 757 714 757 718 l 911 714 q 894 693 907 700 l 817 693 q 797 688 810 688 l 388 688 l 388 686 l 372 686 l 372 665 l 424 665 l 424 658 l 422 658 l 422 651 l 424 651 l 424 638 l 433 638 l 433 631 l 431 631 l 431 621 l 556 621 q 633 617 596 621 l 669 617 q 692 614 681 615 q 715 610 704 613 l 707 610 q 756 598 732 604 q 800 582 779 592 l 799 582 q 827 569 814 576 q 851 554 840 563 l 749 554 l 760 547 l 865 547 q 899 519 882 536 l 889 519 q 903 506 896 514 q 915 492 910 499 l 888 492 q 907 464 899 478 l 925 464 l 936 443 l 879 443 q 882 436 879 442 l 918 436 q 921 429 919 433 q 924 422 922 425 l 943 422 q 949 409 946 417 q 953 394 951 401 l 933 394 q 937 384 936 389 q 939 374 938 379 l 949 374 q 950 367 950 371 l 946 367 q 947 364 946 365 q 947 360 947 363 l 943 360 l 943 353 l 953 353 l 953 346 l 983 346 l 983 332 l 967 332 l 967 318 l 947 318 l 947 297 l 946 297 l 944 283 l 928 283 l 928 276 l 999 276 l 999 269 l 936 269 l 935 256 l 985 256 q 984 253 985 254 q 983 249 983 251 l 982 249 q 979 235 981 242 q 975 221 978 228 l 933 221 l 929 207 l 907 207 q 901 193 904 200 q 894 179 899 186 l 907 179 q 892 151 901 165 l 874 151 l 869 144 l 914 144 q 911 142 913 143 q 908 138 910 140 l 889 138 l 885 131 l 874 131 q 863 117 868 122 m 453 256 l 453 249 l 467 249 l 467 239 l 564 239 q 597 249 581 239 l 599 249 q 607 256 601 250 l 557 256 q 567 269 563 261 l 629 269 q 632 276 632 275 l 561 276 q 564 283 561 278 l 579 283 q 582 290 582 286 q 583 297 582 294 l 585 297 q 586 306 586 301 q 586 314 586 310 l 586 318 l 606 318 q 603 332 606 324 l 621 332 q 617 346 621 340 l 588 346 l 583 353 l 575 353 l 571 360 l 576 360 q 571 367 572 364 l 575 367 q 572 371 574 369 q 568 374 571 372 l 557 374 q 518 389 542 389 l 421 389 l 421 374 l 417 374 l 417 367 l 426 367 l 426 360 l 414 360 l 414 353 l 388 353 l 388 346 l 393 346 l 393 332 l 390 332 l 390 318 l 419 318 l 419 297 l 426 297 l 426 283 l 406 283 l 406 276 l 488 276 l 488 269 l 486 269 l 486 256 l 453 256 z "},"В":{"ha":1019,"x_min":-8,"x_max":1026,"o":"m 1011 138 l 890 138 l 876 117 l 990 117 l 978 103 l 883 103 l 876 96 l 889 96 q 856 68 872 79 l 878 68 q 856 54 868 61 l 849 54 l 836 47 l 839 47 q 832 44 836 46 q 825 40 828 43 l 821 40 q 792 29 807 35 q 760 19 776 24 l 763 19 q 726 12 744 15 q 689 6 708 8 l 693 6 q 647 1 671 3 q 596 0 622 0 l 121 0 q 101 6 108 0 l 96 6 q 83 19 89 10 l 81 19 q 76 38 76 28 l 76 40 l 81 40 l 81 47 l 78 47 l 78 54 l 85 54 l 85 68 l 63 68 l 63 96 l 50 96 l 50 103 l 144 103 l 144 117 l 29 117 l 29 138 l 150 138 l 150 165 l 50 165 l 50 172 l 49 172 l 49 186 l 122 186 l 122 200 l 71 200 l 71 214 l 117 214 l 117 235 l 76 235 l 76 256 l 101 256 l 101 263 l 81 263 l 81 304 l 71 304 l 71 318 l 78 318 l 78 339 l 69 339 l 69 360 l 46 360 l 46 374 l 17 374 l 17 388 l 90 388 l 90 394 l -8 394 l -8 401 l 85 401 l 85 408 l 60 408 l 60 415 l 75 415 l 75 429 l 65 429 l 65 450 l 67 450 l 67 471 l 72 471 l 72 478 l 76 478 l 76 492 l 110 492 l 110 519 l 132 519 l 132 540 l 81 540 l 81 568 l 71 568 l 71 582 l 54 582 l 54 603 l 76 603 l 76 631 l 40 631 l 40 638 l 79 638 l 79 644 l 126 644 l 126 658 l 147 658 l 147 665 l 42 665 l 42 686 l 81 686 l 81 707 l 75 707 l 75 721 l 76 721 l 76 735 l 72 735 l 72 756 l 69 756 l 69 763 l 93 763 l 93 769 l 49 769 l 49 790 l 64 790 l 64 797 l 69 797 l 69 832 l 76 832 l 76 839 l -1 839 l -1 846 l 33 846 l 33 867 l 111 867 l 111 888 l -6 888 l -6 894 l 32 894 l 32 908 l 42 908 l 42 936 l 39 936 q 46 957 39 947 l 96 957 q 125 972 107 972 l 586 972 q 672 968 632 972 q 746 957 711 964 l 697 957 q 733 948 715 953 q 764 936 750 943 l 767 936 q 794 924 782 931 q 819 908 807 917 l 810 908 q 820 901 815 906 q 829 894 825 897 l 792 894 l 800 888 l 917 888 q 927 877 922 882 q 936 867 932 872 l 858 867 q 867 856 863 861 q 874 846 871 851 l 839 846 l 843 839 l 921 839 l 925 832 l 918 832 q 925 818 922 825 q 931 808 928 813 q 935 797 933 803 l 928 797 l 931 790 l 915 790 q 919 780 918 785 q 922 769 921 775 l 967 769 q 967 767 967 768 q 968 763 968 765 l 944 763 q 946 756 946 760 l 949 756 l 953 735 l 957 735 q 957 728 957 732 q 958 721 957 724 q 958 714 958 718 q 960 707 958 710 l 958 707 q 960 697 960 701 q 960 686 960 692 l 947 686 l 947 681 q 947 673 947 676 q 946 665 946 669 l 971 665 q 970 663 971 664 q 969 658 969 661 l 954 658 l 953 644 l 974 644 q 972 638 974 640 l 954 638 q 953 631 953 635 q 942 603 949 618 l 919 603 l 908 582 l 925 582 q 920 575 922 579 q 915 568 918 571 l 924 568 q 899 540 913 551 l 951 540 q 925 519 938 526 l 903 519 q 882 507 893 511 q 897 500 889 504 q 911 492 904 496 l 878 492 q 897 478 886 486 l 893 478 l 901 471 l 896 471 l 917 450 l 915 450 q 924 440 919 444 q 931 429 928 435 l 940 429 l 949 415 l 933 415 l 938 408 l 963 408 q 965 401 963 407 l 872 401 l 876 394 l 975 394 q 978 388 975 393 l 904 388 q 908 381 907 385 q 910 374 908 376 l 961 374 l 965 360 l 972 360 l 976 339 l 975 339 q 977 328 976 333 q 978 318 978 324 l 976 318 l 976 304 l 975 304 l 975 290 l 981 290 q 980 276 981 283 q 978 263 979 269 l 1018 263 q 1017 260 1018 261 q 1017 256 1017 258 l 978 256 q 976 245 976 250 q 975 235 976 240 l 1014 235 l 1010 214 l 964 214 l 960 200 l 1013 200 l 1007 186 l 933 186 q 931 179 932 183 q 928 172 931 175 l 929 172 q 926 165 929 171 l 1026 165 q 1011 138 1021 151 m 388 638 l 388 631 l 424 631 l 424 607 l 540 607 q 586 631 572 607 l 590 638 l 608 638 l 611 644 l 589 644 l 593 658 l 608 658 l 608 665 l 583 665 q 585 669 585 667 q 584 678 585 674 q 582 686 583 682 l 596 686 q 588 707 594 697 q 583 715 586 711 q 576 721 579 718 q 560 730 569 726 q 540 733 551 733 l 424 733 l 424 721 l 422 721 l 422 707 l 428 707 l 428 686 l 389 686 l 389 665 l 494 665 l 494 658 l 474 658 l 474 644 l 426 644 l 426 638 l 388 638 m 428 263 l 449 263 l 449 256 l 424 256 l 424 239 l 553 239 q 578 244 568 239 q 597 256 589 249 l 636 256 q 639 260 638 258 q 642 263 640 261 l 603 263 q 615 290 611 275 l 610 290 q 611 297 611 293 q 611 304 611 301 l 613 304 l 613 318 l 614 318 q 611 328 613 324 q 607 339 610 333 l 608 339 q 593 360 601 353 l 586 360 q 558 374 576 369 l 507 374 q 493 375 503 375 l 364 375 l 364 374 l 393 374 l 393 360 l 417 360 l 417 339 l 425 339 l 425 318 l 418 318 l 418 304 l 428 304 l 428 263 z "},"Г":{"ha":832,"x_min":-68,"x_max":940,"o":"m 818 811 l 747 811 l 747 783 l 861 783 l 861 756 l 782 756 l 782 749 l 804 749 l 804 735 l 736 735 l 736 725 q 735 715 736 719 q 731 707 733 711 l 761 707 l 757 700 l 713 700 q 685 688 703 688 l 342 688 l 342 679 l 417 679 l 417 658 l 421 658 l 421 644 l 433 644 l 433 624 l 481 624 l 481 610 l 418 610 l 418 589 l 415 589 l 415 561 l 424 561 l 424 540 l 418 540 l 418 513 l 449 513 l 449 506 l 410 506 l 410 499 l 424 499 l 424 485 l 428 485 l 428 457 l 496 457 l 496 436 l 643 436 l 643 415 l 715 415 l 715 388 l 368 388 l 368 415 l 296 415 l 296 436 l 149 436 l 149 457 l 81 457 l 81 485 l 76 485 l 76 499 l 63 499 l 63 506 l 101 506 l 101 513 l 71 513 l 71 540 l 76 540 l 76 561 l 68 561 l 68 589 l 71 589 l 71 610 l 133 610 l 133 624 l 86 624 l 86 644 l 74 644 l 74 658 l 69 658 l 69 679 l -6 679 l -6 700 l 39 700 l 39 707 l 8 707 l 8 735 l 76 735 l 76 749 l 54 749 l 54 756 l 133 756 l 133 783 l 19 783 l 19 811 l 90 811 l 90 832 l 213 832 l 213 839 l 36 839 l 36 853 l 75 853 l 75 881 l 72 881 l 72 908 l 79 908 l 79 922 l 76 922 l 76 936 l 97 936 q 100 950 97 942 l 85 950 q 89 957 85 953 l 65 957 q 96 972 76 972 l 749 972 q 778 957 767 972 l 801 957 l 806 950 l 822 950 q 825 936 825 942 l 804 936 l 804 922 l 807 922 l 807 908 l 800 908 l 800 881 l 803 881 l 803 853 l 764 853 l 764 839 l 940 839 l 940 832 l 818 832 l 818 811 m 494 360 l 494 346 l 608 346 l 608 325 l 518 325 l 518 311 l 503 311 l 503 297 l 472 297 l 472 290 l 365 290 l 365 276 l 396 276 l 396 269 l 538 269 l 538 263 l 482 263 l 482 235 l 400 235 l 400 228 l 424 228 l 424 221 l 436 221 l 436 207 l 407 207 l 407 193 l 347 193 l 347 165 l 438 165 l 438 151 l 322 151 l 322 124 l 279 124 l 279 96 l 458 96 l 458 89 l 403 89 l 403 75 l 454 75 l 454 68 l 372 68 l 372 54 l 403 54 l 403 47 l 424 47 l 424 38 q 419 19 424 28 l 432 19 l 428 13 l 372 13 q 364 6 367 7 l 511 6 q 492 0 504 0 l 219 0 q 199 6 208 0 l 51 6 q 43 13 49 7 l 100 13 q 94 19 96 17 l 81 19 q 76 38 76 28 l 76 47 l 56 47 l 56 54 l 25 54 l 25 68 l 107 68 l 107 75 l 56 75 l 56 89 l 111 89 l 111 96 l -68 96 l -68 124 l -25 124 l -25 151 l 90 151 l 90 165 l 0 165 l 0 193 l 60 193 l 60 207 l 89 207 l 89 221 l 76 221 l 76 228 l 53 228 l 53 235 l 135 235 l 135 263 l 190 263 l 190 269 l 49 269 l 49 276 l 18 276 l 18 290 l 125 290 l 125 297 l 156 297 l 156 311 l 171 311 l 171 325 l 261 325 l 261 346 l 147 346 l 147 360 l -54 360 l -54 388 l 293 388 l 293 360 l 494 360 z "},"Д":{"ha":1174,"x_min":-175,"x_max":1360,"o":"m 1178 26 l 1161 26 l 1161 6 l 1260 6 l 1260 -22 l 1164 -22 l 1164 -36 l 1253 -36 l 1253 -64 l 1210 -64 l 1210 -71 l 1092 -71 l 1092 -99 l 924 -99 l 924 -119 l 1151 -119 l 1151 -147 l 899 -147 l 899 -157 q 894 -175 899 -167 l 1056 -175 q 1042 -189 1051 -185 l 1117 -189 q 1097 -194 1110 -194 l 825 -194 q 806 -189 813 -194 l 731 -189 q 718 -175 724 -185 l 556 -175 q 551 -157 551 -167 l 551 -147 l 804 -147 l 804 -119 l 576 -119 l 576 -99 l 744 -99 l 744 -71 l 863 -71 l 863 -64 l 906 -64 l 906 -36 l 817 -36 l 817 -22 l 913 -22 l 913 0 l 524 0 l 524 -1 l 458 -1 l 458 -22 l 342 -22 l 342 -36 l 349 -36 l 349 -64 l 396 -64 l 396 -71 l 376 -71 l 376 -99 l 172 -99 l 172 -119 l 339 -119 l 339 -147 l 481 -147 l 481 -157 q 479 -167 481 -162 q 475 -175 478 -171 l 399 -175 q 386 -189 393 -185 l 363 -189 q 343 -194 356 -194 l 71 -194 q 50 -189 57 -194 l 74 -189 q 61 -175 67 -185 l 138 -175 q 133 -157 133 -167 l 133 -147 l -8 -147 l -8 -119 l -175 -119 l -175 -99 l 29 -99 l 29 -71 l 49 -71 l 49 -64 l 1 -64 l 1 -36 l -6 -36 l -6 -22 l 111 -22 l 111 -1 l 176 -1 l 176 6 l 78 6 l 78 26 l 94 26 l 94 47 l 276 47 l 276 75 l 265 75 l 265 103 l 76 103 l 76 110 l 88 110 l 88 131 l 56 131 l 56 158 l 6 158 l 6 172 l 50 172 l 50 186 l 49 186 l 49 193 l 46 193 l 46 214 l 49 214 l 49 242 l 47 242 l 47 263 l 50 263 l 50 276 l 61 276 q 68 290 64 286 l 21 290 q 28 297 24 294 l -46 297 q -22 306 -37 306 l -1 306 q 42 325 22 306 l 125 325 q 131 331 128 328 q 136 339 133 335 l 204 339 q 209 345 207 342 q 213 353 211 349 l 219 353 q 231 381 226 368 l 118 381 q 121 391 119 386 q 124 401 122 396 l 171 401 q 172 406 171 404 q 172 408 172 407 l 133 408 q 134 413 133 411 q 135 415 135 414 l 121 415 q 124 429 124 424 l 192 429 q 195 443 194 436 q 197 457 196 450 l 206 457 q 208 467 207 463 q 208 478 208 472 l 197 478 q 199 492 199 485 q 200 506 200 499 l 236 506 q 237 516 236 511 q 238 526 238 521 l 207 526 l 207 533 l 175 533 q 176 547 175 540 q 176 561 176 554 l 211 561 l 211 568 l 169 568 l 169 575 l 218 575 q 219 582 218 579 l 151 582 l 151 603 l 193 603 l 193 617 l 276 617 l 276 644 l 181 644 l 181 658 l 196 658 l 196 672 l 403 672 l 403 686 l 69 686 l 69 714 l 121 714 l 121 721 l 368 721 l 368 735 l 453 735 l 453 756 l 151 756 l 151 763 l 282 763 l 282 776 l 200 776 l 200 804 l 231 804 l 231 825 l 242 825 l 242 853 l 247 853 l 247 874 l 218 874 l 218 888 l 217 888 l 217 894 l 190 894 l 190 901 l 210 901 l 210 908 l 239 908 l 239 922 l 233 922 l 233 935 q 234 940 233 938 q 235 943 235 942 l 229 943 q 234 955 231 950 q 242 964 238 960 l 232 964 q 256 972 240 972 l 1003 972 q 1026 964 1017 972 l 1036 964 q 1050 943 1046 957 l 1056 943 l 1056 922 l 1061 922 l 1061 908 l 1032 908 l 1032 901 l 1013 901 l 1013 894 l 1039 894 l 1039 888 l 1040 888 l 1040 874 l 1069 874 l 1069 853 l 1064 853 l 1064 825 l 1053 825 l 1053 804 l 1022 804 l 1022 776 l 1104 776 l 1104 763 l 974 763 l 974 756 l 1275 756 l 1275 735 l 1190 735 l 1190 721 l 943 721 l 943 714 l 892 714 l 892 686 l 1225 686 l 1225 672 l 1018 672 l 1018 658 l 1093 658 l 1093 644 l 1139 644 l 1139 617 l 1032 617 l 1032 603 l 931 603 l 931 582 l 1054 582 l 1054 575 l 949 575 l 949 568 l 1008 568 l 1008 561 l 1018 561 l 1018 533 l 1032 533 l 1032 526 l 1061 526 l 1061 506 l 1035 506 l 1035 478 l 1032 478 l 1032 429 l 994 429 l 994 415 l 1025 415 l 1025 408 l 1103 408 l 1103 401 l 924 401 l 924 381 l 915 381 l 915 353 l 843 353 l 843 339 l 918 339 l 918 325 l 924 325 l 924 306 l 986 306 q 1010 297 1000 306 l 1083 297 q 1088 294 1086 296 q 1090 290 1089 293 l 1136 290 q 1143 276 1142 282 l 1132 276 q 1133 273 1132 275 q 1133 268 1133 271 l 1133 263 l 1131 263 l 1131 242 l 1132 242 l 1132 214 l 1129 214 l 1129 193 l 1132 193 l 1132 186 l 1133 186 l 1133 172 l 1089 172 l 1089 158 l 1139 158 l 1139 131 l 1171 131 l 1171 110 l 1160 110 l 1160 103 l 1349 103 l 1349 75 l 1360 75 l 1360 47 l 1178 47 l 1178 26 m 464 401 l 460 381 l 576 381 l 576 401 l 756 401 l 756 408 l 678 408 l 678 415 l 647 415 l 647 429 l 685 429 l 685 478 l 688 478 l 688 506 l 714 506 l 714 526 l 685 526 l 685 533 l 671 533 l 671 561 l 661 561 l 661 568 l 601 568 l 601 575 l 707 575 l 707 582 l 583 582 l 583 603 l 685 603 l 685 617 l 792 617 l 792 644 l 746 644 l 746 658 l 671 658 l 671 667 l 529 667 l 529 658 l 514 658 l 514 644 l 610 644 l 610 617 l 526 617 l 526 603 l 485 603 l 485 582 l 553 582 l 553 575 l 504 575 q 503 572 504 574 q 503 568 503 571 l 546 568 l 546 561 l 511 561 q 510 547 511 554 q 510 533 510 540 l 542 533 l 542 526 l 572 526 q 572 516 572 521 q 571 506 572 511 l 536 506 l 533 478 l 544 478 q 544 467 544 472 q 543 457 543 463 l 533 457 q 532 443 532 450 q 531 429 532 436 l 463 429 q 461 422 461 426 q 460 415 461 418 l 474 415 q 473 413 474 414 q 472 408 472 411 l 511 408 q 510 401 511 404 l 464 401 m 483 325 l 400 325 q 397 315 399 319 q 394 306 396 311 l 576 306 l 576 325 l 571 325 l 571 339 l 488 339 l 483 325 z "},"Е":{"ha":926,"x_min":-133,"x_max":1064,"o":"m 954 242 l 1064 242 l 1064 221 l 853 221 l 853 193 l 989 193 l 989 165 l 869 165 l 869 138 l 885 138 l 885 117 l 875 117 l 875 103 l 846 103 l 846 89 l 844 89 l 844 75 l 874 75 l 874 47 l 914 47 l 914 38 q 913 33 914 35 l 665 33 q 664 26 664 31 l 760 26 q 744 6 756 13 l 718 6 q 699 0 711 0 l -25 0 q -46 6 -36 0 l -19 6 q -35 26 -29 13 l -132 26 q -133 33 -133 29 l 115 33 l 115 47 l 75 47 l 75 75 l 46 75 l 46 89 l 47 89 l 47 103 l 76 103 l 76 117 l 86 117 l 86 138 l 71 138 l 71 165 l 190 165 l 190 193 l 54 193 l 54 221 l 265 221 l 265 242 l 156 242 l 156 256 l 188 256 l 188 269 l 201 269 l 201 283 l 47 283 l 47 297 l 11 297 l 11 318 l 140 318 l 140 325 l 38 325 l 38 339 l 68 339 l 68 353 l 90 353 l 90 374 l 88 374 l 88 401 l 74 401 l 74 429 l 53 429 l 53 443 l 69 443 l 69 471 l 54 471 l 54 485 l 76 485 l 76 506 l 82 506 l 82 526 l 107 526 l 107 533 l 83 533 l 83 561 l 63 561 l 63 582 l 68 582 l 68 603 l 71 603 l 71 631 l 92 631 l 92 658 l 61 658 l 61 686 l 65 686 l 65 714 l 104 714 l 104 735 l 83 735 l 83 756 l 72 756 l 72 763 l 131 763 l 131 783 l 233 783 l 233 797 l 192 797 l 192 811 l 57 811 l 57 818 l 72 818 l 72 839 l 74 839 l 74 860 l 78 860 l 78 888 l 76 888 l 76 922 l 74 922 l 74 935 q 75 943 74 940 l 61 943 q 97 972 67 972 l 810 972 q 846 943 842 972 l 860 943 q 861 935 861 940 l 861 922 l 864 922 l 864 888 l 865 888 l 865 860 l 861 860 l 861 839 l 860 839 l 860 818 l 844 818 l 844 811 l 979 811 l 979 797 l 1021 797 l 1021 783 l 918 783 l 918 763 l 860 763 l 860 756 l 871 756 l 871 735 l 892 735 q 882 714 889 721 l 843 714 q 815 701 833 701 l 399 701 l 399 686 l 394 686 l 394 658 l 425 658 l 425 631 l 404 631 l 404 614 l 790 614 q 817 603 806 614 l 814 603 q 824 582 821 596 l 819 582 l 819 561 l 840 561 l 840 533 l 864 533 l 864 526 l 839 526 l 839 506 l 833 506 l 833 485 l 811 485 l 811 471 l 826 471 l 826 443 l 810 443 l 810 429 l 831 429 l 831 401 l 844 401 l 844 396 q 838 374 844 381 l 840 374 q 810 358 829 358 l 424 358 l 424 353 l 401 353 l 401 339 l 371 339 l 371 325 l 474 325 l 474 318 l 344 318 l 344 297 l 381 297 l 381 283 l 535 283 l 535 271 l 963 271 q 974 269 969 271 l 958 269 q 979 256 972 265 l 947 256 q 954 242 953 247 z "},"Ё":{"ha":926,"x_min":-133,"x_max":1064,"o":"m 954 242 l 1064 242 l 1064 221 l 853 221 l 853 193 l 989 193 l 989 165 l 869 165 l 869 138 l 885 138 l 885 117 l 875 117 l 875 103 l 846 103 l 846 89 l 844 89 l 844 75 l 874 75 l 874 47 l 914 47 l 914 38 q 913 33 914 35 l 665 33 q 664 26 664 31 l 760 26 q 744 6 756 13 l 718 6 q 699 0 711 0 l -25 0 q -46 6 -36 0 l -19 6 q -35 26 -29 13 l -132 26 q -133 33 -133 29 l 115 33 l 115 47 l 75 47 l 75 75 l 46 75 l 46 89 l 47 89 l 47 103 l 76 103 l 76 117 l 86 117 l 86 138 l 71 138 l 71 165 l 190 165 l 190 193 l 54 193 l 54 221 l 265 221 l 265 242 l 156 242 l 156 256 l 188 256 l 188 269 l 201 269 l 201 283 l 47 283 l 47 297 l 11 297 l 11 318 l 140 318 l 140 325 l 38 325 l 38 339 l 68 339 l 68 353 l 90 353 l 90 374 l 88 374 l 88 401 l 74 401 l 74 429 l 53 429 l 53 443 l 69 443 l 69 471 l 54 471 l 54 485 l 76 485 l 76 506 l 82 506 l 82 526 l 107 526 l 107 533 l 83 533 l 83 561 l 63 561 l 63 582 l 68 582 l 68 603 l 71 603 l 71 631 l 92 631 l 92 658 l 61 658 l 61 686 l 65 686 l 65 714 l 104 714 l 104 735 l 83 735 l 83 756 l 72 756 l 72 763 l 131 763 l 131 783 l 233 783 l 233 797 l 192 797 l 192 811 l 57 811 l 57 818 l 72 818 l 72 839 l 74 839 l 74 860 l 78 860 l 78 888 l 76 888 l 76 922 l 74 922 l 74 935 q 75 943 74 940 l 61 943 q 97 972 67 972 l 810 972 q 846 943 842 972 l 860 943 q 861 935 861 940 l 861 922 l 864 922 l 864 888 l 865 888 l 865 860 l 861 860 l 861 839 l 860 839 l 860 818 l 844 818 l 844 811 l 979 811 l 979 797 l 1021 797 l 1021 783 l 918 783 l 918 763 l 860 763 l 860 756 l 871 756 l 871 735 l 892 735 q 882 714 889 721 l 843 714 q 815 701 833 701 l 399 701 l 399 686 l 394 686 l 394 658 l 425 658 l 425 631 l 404 631 l 404 614 l 790 614 q 817 603 806 614 l 814 603 q 824 582 821 596 l 819 582 l 819 561 l 840 561 l 840 533 l 864 533 l 864 526 l 839 526 l 839 506 l 833 506 l 833 485 l 811 485 l 811 471 l 826 471 l 826 443 l 810 443 l 810 429 l 831 429 l 831 401 l 844 401 l 844 396 q 838 374 844 381 l 840 374 q 810 358 829 358 l 424 358 l 424 353 l 401 353 l 401 339 l 371 339 l 371 325 l 474 325 l 474 318 l 344 318 l 344 297 l 381 297 l 381 283 l 535 283 l 535 271 l 963 271 q 974 269 969 271 l 958 269 q 979 256 972 265 l 947 256 q 954 242 953 247 m 825 1221 l 694 1221 l 694 1193 l 793 1193 l 793 1179 l 768 1179 l 768 1158 l 781 1158 l 781 1138 l 771 1138 l 771 1131 l 779 1131 l 779 1110 l 822 1110 l 822 1108 q 815 1089 822 1099 l 806 1089 q 797 1082 800 1083 l 764 1082 q 746 1076 757 1076 l 574 1076 q 556 1082 561 1076 l 589 1082 q 582 1089 585 1085 l 592 1089 q 586 1108 586 1096 l 586 1110 l 543 1110 l 543 1131 l 535 1131 l 535 1138 l 544 1138 l 544 1158 l 532 1158 l 532 1179 l 557 1179 l 557 1193 l 424 1193 l 424 1179 l 443 1179 l 443 1158 l 449 1158 l 449 1138 l 458 1138 l 458 1110 l 442 1110 l 442 1108 q 436 1089 442 1096 l 431 1089 q 428 1085 429 1088 q 424 1082 426 1083 l 419 1082 q 400 1076 413 1076 l 228 1076 q 210 1082 217 1076 l 214 1082 q 207 1089 210 1085 l 213 1089 q 206 1108 206 1099 l 206 1110 l 222 1110 l 222 1138 l 213 1138 l 213 1158 l 207 1158 l 207 1179 l 188 1179 l 188 1193 l 232 1193 l 232 1221 l 181 1221 l 181 1249 l 239 1249 l 239 1256 l 163 1256 l 163 1276 l 194 1276 l 194 1281 q 199 1297 194 1292 l 215 1297 q 243 1313 224 1313 l 415 1313 q 443 1297 435 1313 l 426 1297 q 431 1281 431 1292 l 431 1276 l 399 1276 l 399 1256 l 507 1256 l 507 1276 l 528 1276 l 528 1281 q 532 1297 528 1292 l 513 1297 q 540 1313 521 1313 l 713 1313 q 740 1297 732 1313 l 758 1297 q 764 1281 764 1289 l 764 1276 l 743 1276 l 743 1256 l 703 1256 l 703 1249 l 825 1249 l 825 1221 m 589 1221 l 589 1249 l 417 1249 l 417 1221 l 589 1221 z "},"Ж":{"ha":1578,"x_min":-142,"x_max":1854,"o":"m 1532 19 l 1854 19 q 1843 6 1850 10 l 1589 6 q 1571 0 1582 0 l 1254 0 q 1239 2 1246 0 q 1226 6 1232 4 l 1481 6 q 1461 19 1467 13 l 1139 19 q 1134 27 1136 24 q 1129 32 1132 31 l 1121 47 l 1211 47 l 1203 61 l 1181 61 l 1169 82 l 1139 82 l 1128 103 l 1147 103 l 1140 117 l 1115 117 l 1111 124 l 1090 124 l 1083 138 l 1101 138 l 1085 165 l 1067 165 l 1060 179 l 1100 179 l 1085 207 l 1069 207 l 1054 235 l 1046 235 l 1043 242 l 1038 242 l 1022 269 l 1017 269 l 1001 297 l 1017 297 l 1001 325 l 997 325 l 990 338 l 957 338 l 957 325 l 956 325 l 956 297 l 958 297 l 958 269 l 953 269 l 953 242 l 954 242 l 954 235 l 939 235 l 939 207 l 961 207 l 961 179 l 935 179 l 935 165 l 967 165 l 967 138 l 925 138 l 925 124 l 951 124 l 951 117 l 956 117 l 956 103 l 958 103 l 958 82 l 933 82 l 933 61 l 925 61 l 925 47 l 931 47 l 931 38 q 926 19 931 28 l 1013 19 q 1000 6 1007 10 l 1001 6 q 982 0 994 0 l 724 0 q 703 6 710 0 l 700 6 q 688 19 692 11 l 640 19 q 621 6 635 13 l 474 6 q 461 2 468 4 q 446 0 454 0 l 129 0 q 111 6 118 0 l 258 6 q 247 19 253 10 l -139 19 q -142 31 -142 25 q -137 46 -142 40 l -136 47 l 153 47 l 161 61 l 24 61 l 36 82 l 69 82 l 81 103 l 57 103 l 65 117 l 96 117 l 100 124 l 94 124 l 103 138 l 104 138 l 121 165 l 88 165 l 96 179 l 69 179 l 86 207 l 111 207 l 128 235 l 131 235 l 135 242 l 143 242 l 160 269 l 151 269 l 167 297 l 174 297 l 190 325 l 185 325 l 197 346 l 190 346 l 199 360 l 214 360 l 226 381 l 214 381 l 231 408 l 251 408 l 256 415 l 238 415 l 254 443 l 260 443 l 264 450 l 265 450 l 272 464 l 267 464 l 271 471 l 283 471 l 300 499 l 288 499 l 292 507 l 285 519 l 226 519 l 222 526 l 163 526 l 158 533 l 106 533 l 89 561 l 301 561 l 293 575 l 113 575 l 104 589 l 154 589 l 146 603 l 10 603 l 1 617 l 265 617 l 261 624 l 182 624 l 165 651 l 190 651 l 174 679 l 175 679 l 158 707 l 124 707 l 115 721 l 185 721 l 176 735 l 153 735 l 144 749 l 203 749 l 194 763 l 144 763 l 136 776 l 167 776 l 150 804 l 63 804 l 46 832 l 79 832 l 63 860 l 82 860 l 65 888 l 29 888 l 17 908 l -17 908 l -25 922 l 43 922 l 40 926 q 36 942 36 933 l 36 943 l 42 943 q 43 950 42 947 l 39 950 l 42 957 q 47 964 44 963 l 46 964 q 67 972 54 972 l 374 972 q 408 964 396 972 l 410 964 q 418 957 413 963 l 419 957 q 422 954 421 956 q 425 950 424 953 l 429 950 l 433 943 l 429 943 l 429 942 l 440 922 l 372 922 l 381 908 l 414 908 l 425 888 l 463 888 l 478 860 l 458 860 l 475 832 l 440 832 l 457 804 l 544 804 l 560 776 l 531 776 l 538 763 l 588 763 l 594 749 l 704 749 l 704 763 l 653 763 l 653 776 l 744 776 l 744 804 l 619 804 l 619 832 l 622 832 l 622 860 l 585 860 l 585 888 l 532 888 l 532 908 l 592 908 l 592 922 l 647 922 l 647 935 q 649 943 647 940 l 594 943 l 597 950 l 629 950 l 633 957 l 629 957 q 633 961 632 960 q 636 964 635 963 l 635 964 q 658 972 643 972 l 917 972 q 940 964 931 972 l 942 964 q 949 957 946 961 l 953 957 l 957 950 l 924 950 l 926 943 l 981 943 l 981 922 l 925 922 l 925 908 l 865 908 l 865 888 l 918 888 l 918 860 l 956 860 l 956 832 l 953 832 l 953 804 l 1049 804 l 1064 832 l 1076 832 l 1092 860 l 1025 860 l 1040 888 l 1051 908 l 1143 908 l 1150 922 l 1151 922 l 1163 942 q 1164 942 1164 942 q 1164 943 1164 943 l 1111 943 l 1115 950 l 1156 950 q 1158 954 1157 953 q 1161 957 1160 956 l 1154 957 q 1164 964 1158 961 l 1172 964 q 1207 972 1185 972 l 1514 972 q 1535 964 1526 972 l 1526 964 q 1532 957 1531 960 l 1539 957 l 1542 950 l 1501 950 q 1503 943 1503 947 l 1556 943 l 1556 942 q 1551 926 1556 933 l 1550 922 l 1547 922 l 1539 908 l 1449 908 l 1436 888 l 1438 888 l 1421 860 l 1488 860 l 1471 832 l 1460 832 l 1443 804 l 1619 804 l 1603 776 l 1354 776 l 1346 763 l 1422 763 l 1414 749 l 1513 749 l 1504 735 l 1456 735 l 1447 721 l 1414 721 l 1406 707 l 1422 707 l 1406 679 l 1335 679 l 1318 651 l 1332 651 l 1315 624 l 1394 624 l 1390 617 l 1126 617 l 1118 603 l 1254 603 l 1246 589 l 1196 589 l 1188 575 l 1368 575 l 1360 561 l 1147 561 l 1131 533 l 1185 533 l 1181 526 l 1240 526 l 1236 519 l 1293 519 l 1286 507 l 1292 499 l 1304 499 l 1321 471 l 1307 471 l 1311 464 l 1318 464 l 1326 450 l 1325 450 l 1329 443 l 1325 443 l 1340 415 l 1360 415 l 1364 408 l 1342 408 l 1358 381 l 1371 381 l 1383 360 l 1367 360 l 1375 346 l 1383 346 l 1396 325 l 1399 325 l 1415 297 l 1400 297 l 1417 269 l 1422 269 l 1439 242 l 1443 242 l 1447 235 l 1456 235 l 1472 207 l 1488 207 l 1503 179 l 1463 179 l 1471 165 l 1489 165 l 1506 138 l 1488 138 l 1496 124 l 1515 124 l 1519 117 l 1544 117 l 1553 103 l 1533 103 l 1546 82 l 1576 82 l 1589 61 l 1610 61 l 1618 47 l 1529 47 l 1529 46 q 1533 31 1533 40 q 1532 19 1533 22 m 1225 804 l 1078 804 l 1078 776 l 1210 776 l 1225 804 m 564 679 l 581 651 l 556 651 l 560 643 l 582 643 l 582 651 l 621 651 l 621 679 l 592 679 l 592 707 l 608 707 l 608 721 l 590 721 l 590 735 l 571 735 l 571 749 l 536 749 l 544 735 l 568 735 l 576 721 l 507 721 l 515 707 l 550 707 l 565 679 l 564 679 m 904 749 l 904 735 l 924 735 l 924 721 l 942 721 l 942 707 l 925 707 l 925 679 l 1015 679 l 1031 707 l 1014 707 l 1022 721 l 1056 721 l 1063 735 l 1111 735 l 1119 749 l 904 749 m 915 651 l 915 643 l 938 643 l 943 651 l 915 651 m 625 297 l 622 297 l 622 325 l 624 325 l 624 338 l 590 338 l 583 325 l 589 325 l 572 297 l 567 297 l 551 269 l 560 269 l 544 242 l 535 242 l 532 235 l 529 235 l 513 207 l 489 207 l 472 179 l 499 179 l 490 165 l 525 165 l 510 138 l 507 138 l 499 124 l 506 124 l 501 117 l 469 117 l 463 103 l 488 103 l 475 82 l 443 82 l 431 61 l 568 61 l 561 47 l 271 47 l 263 32 q 253 19 260 26 l 601 19 q 597 38 597 28 l 597 47 l 592 47 l 592 61 l 600 61 l 600 82 l 625 82 l 625 103 l 622 103 l 622 117 l 618 117 l 618 124 l 592 124 l 592 138 l 633 138 l 633 165 l 601 165 l 601 179 l 628 179 l 628 207 l 606 207 l 606 235 l 621 235 l 621 242 l 619 242 l 619 269 l 625 269 l 625 297 z "},"З":{"ha":993,"x_min":-12,"x_max":1061,"o":"m 1051 179 l 854 179 l 843 158 l 944 158 l 936 144 l 907 144 q 904 142 906 143 q 901 138 903 140 l 914 138 q 908 131 910 133 l 925 131 q 917 120 921 125 q 907 110 913 115 l 964 110 l 957 103 l 807 103 q 799 96 803 100 q 792 89 796 92 l 960 89 l 942 75 l 785 75 q 763 61 775 68 q 739 47 751 54 l 794 47 q 763 33 779 39 q 728 19 746 26 l 706 19 q 624 -1 669 7 l 647 -1 q 624 -5 636 -3 q 600 -8 613 -7 l 533 -8 q 485 -12 510 -11 q 433 -14 460 -14 q 381 -12 406 -14 q 332 -8 356 -11 l 399 -8 q 376 -5 388 -7 q 353 -1 364 -3 l 331 -1 q 250 19 286 7 l 271 19 q 208 47 235 33 l 153 47 q 130 61 140 54 q 108 75 119 68 l 267 75 q 257 82 261 78 q 249 89 253 86 l 81 89 q 73 96 76 92 q 65 103 69 100 l 215 103 q 213 107 214 106 q 208 110 211 108 l 151 110 l 133 131 l 117 131 q 111 138 113 135 l 100 138 q 94 144 96 142 l 124 144 l 115 158 l 13 158 q 7 169 10 164 q 1 179 4 174 l 199 179 q 194 190 197 185 q 189 200 192 194 l 42 200 l 38 214 l 89 214 q 86 224 88 219 q 83 235 85 229 l 110 235 l 106 249 l 75 249 q 73 262 74 256 q 72 274 72 268 l 72 276 l 50 276 q 60 297 50 288 l 54 297 q 74 304 64 304 l 346 304 q 375 297 364 304 l 382 297 l 400 282 l 406 276 l 428 276 q 462 260 442 267 q 515 254 482 254 q 606 276 583 254 l 568 276 q 579 297 578 286 l 579 311 l 593 311 q 592 323 593 318 q 588 332 590 328 l 594 332 q 582 346 590 339 l 525 346 q 511 353 518 350 l 514 353 q 482 360 499 358 l 525 360 q 510 361 518 361 q 494 361 503 361 l 390 361 q 358 381 371 361 l 364 381 q 358 401 358 388 l 358 408 l 326 408 l 326 415 l 306 415 l 306 443 l 390 443 l 390 471 l 350 471 l 350 478 l 292 478 l 292 506 l 349 506 l 349 526 l 383 526 l 383 547 l 303 547 l 303 575 l 361 575 q 379 603 365 594 l 310 603 q 329 608 317 608 l 433 608 q 494 624 475 608 l 433 624 q 440 630 436 626 q 444 638 443 633 l 514 638 q 518 658 518 646 l 518 665 l 557 665 q 554 679 557 671 l 607 679 q 579 707 600 697 l 560 707 q 508 715 542 715 q 477 713 490 715 q 453 707 464 710 l 435 707 q 415 697 422 703 q 406 688 408 692 l 399 679 l 326 679 q 289 665 314 665 l 14 665 q -12 679 -3 665 l 60 679 q 56 696 56 686 q 56 701 56 699 q 57 707 57 704 l 75 707 l 76 721 l 158 721 q 160 728 160 724 l 51 728 q 54 738 53 733 q 57 749 56 743 l 33 749 l 42 769 l 71 769 q 74 776 74 775 l 69 776 q 74 787 72 782 q 79 797 76 792 l 63 797 l 71 811 l 121 811 l 125 818 l 6 818 l 15 832 l 143 832 l 160 853 l 88 853 q 93 860 89 856 l 171 860 q 174 864 172 863 q 178 867 176 865 l 42 867 q 56 881 49 874 q 72 894 64 889 l 183 894 l 192 901 l 10 901 q 25 912 17 907 q 42 922 33 917 l 56 922 q 76 933 65 928 q 99 943 88 938 l 232 943 q 250 951 240 947 q 269 957 260 954 l 296 957 q 392 978 339 971 q 508 986 444 986 q 610 978 561 986 q 703 957 660 971 l 676 957 q 695 951 686 954 q 714 943 704 947 l 579 943 q 601 933 590 938 q 622 922 613 928 l 608 922 q 642 901 628 913 l 825 901 q 831 899 828 900 q 835 894 833 897 l 724 894 q 757 867 740 883 l 893 867 q 897 864 894 865 q 900 860 899 863 l 822 860 q 825 857 824 858 q 828 853 826 856 l 900 853 q 910 842 906 847 q 918 832 914 838 l 790 832 l 799 818 l 919 818 l 924 811 l 872 811 l 881 797 l 896 797 q 901 787 899 792 q 906 776 904 782 l 910 776 q 913 769 913 771 l 882 769 q 886 759 885 764 q 889 749 888 754 l 913 749 q 915 738 914 743 q 915 728 915 733 l 1025 728 l 1025 721 l 943 721 q 944 714 944 718 q 944 707 944 710 l 965 707 l 965 679 l 913 679 q 913 672 913 676 q 911 665 913 668 l 872 665 q 870 651 871 658 q 867 638 869 644 l 797 638 l 793 624 l 854 624 l 846 603 l 915 603 q 908 589 913 596 q 900 575 904 582 l 840 575 q 817 547 832 560 l 899 547 l 874 526 l 839 526 q 827 518 833 522 q 814 511 821 514 q 819 508 817 510 q 825 506 822 507 l 768 506 q 808 478 790 493 l 868 478 q 872 475 871 476 q 875 471 874 474 l 915 471 q 940 443 929 460 l 856 443 q 866 430 861 438 q 874 415 871 422 l 894 415 l 899 408 l 931 408 q 933 401 933 403 q 939 391 936 396 q 943 381 942 386 l 938 381 q 940 370 939 375 q 943 360 942 365 l 900 360 q 901 353 901 357 l 899 353 q 900 346 899 349 l 957 346 l 958 332 l 951 332 q 953 322 953 326 q 953 311 953 317 l 940 311 l 940 276 l 976 276 q 976 263 976 269 q 974 249 975 256 l 1004 249 l 1003 235 l 975 235 l 971 214 l 918 214 l 914 200 l 1061 200 q 1057 190 1060 194 q 1051 179 1054 185 z "},"И":{"ha":1125,"x_min":-104,"x_max":1256,"o":"m 1076 568 l 1028 568 l 1028 540 l 1042 540 l 1042 526 l 954 526 l 954 519 l 968 519 l 968 499 l 989 499 l 989 492 l 975 492 l 975 478 l 1039 478 l 1039 464 l 1049 464 l 1049 443 l 1043 443 l 1043 422 l 1056 422 l 1056 394 l 1019 394 l 1019 374 l 1139 374 l 1139 353 l 1079 353 l 1079 332 l 1028 332 l 1028 304 l 1044 304 l 1044 290 l 1106 290 l 1106 283 l 1031 283 l 1031 276 l 969 276 l 969 256 l 910 256 l 910 228 l 1131 228 l 1131 207 l 1047 207 l 1047 179 l 1058 179 l 1058 165 l 1032 165 l 1032 158 l 1047 158 l 1047 144 l 1050 144 l 1050 138 l 1056 138 l 1056 131 l 1031 131 l 1031 117 l 1050 117 l 1050 103 l 1049 103 l 1049 75 l 1029 75 l 1029 68 l 1049 68 l 1049 47 l 993 47 l 993 33 l 1050 33 q 1033 6 1047 14 l 1026 6 q 1006 0 1019 0 l 733 0 q 714 6 721 0 l 721 6 q 704 33 707 14 l 646 33 l 646 47 l 701 47 l 701 68 l 682 68 l 682 75 l 701 75 l 701 103 l 703 103 l 703 117 l 683 117 l 683 131 l 708 131 l 708 138 l 703 138 l 703 144 l 700 144 l 700 158 l 685 158 l 685 165 l 711 165 l 711 179 l 700 179 l 700 207 l 783 207 l 783 228 l 563 228 l 563 256 l 622 256 l 622 276 l 683 276 l 683 283 l 758 283 l 758 290 l 697 290 l 697 304 l 681 304 l 681 332 l 732 332 l 732 353 l 792 353 l 792 374 l 657 374 l 642 353 l 646 353 l 631 332 l 588 332 l 567 304 l 599 304 l 589 290 l 665 290 l 660 283 l 442 283 l 436 276 l 410 276 l 394 256 l 513 256 l 492 228 l 540 228 l 525 207 l 544 207 l 524 179 l 510 179 l 500 165 l 508 165 l 504 158 l 485 158 l 474 144 l 514 144 l 510 138 l 483 138 l 467 117 l 474 117 l 463 103 l 450 103 l 429 75 l 446 75 l 440 68 l 443 68 l 428 47 l 442 47 l 431 33 l 413 33 l 411 32 q 399 17 406 24 q 383 6 393 10 l 379 6 q 367 2 374 4 q 350 0 360 0 l 110 0 q 90 6 97 0 l 94 6 q 76 33 79 14 l 96 33 l 96 47 l 82 47 l 82 68 l 79 68 l 79 75 l 63 75 l 63 103 l 76 103 l 76 117 l 71 117 l 71 138 l 97 138 l 97 144 l 57 144 l 57 158 l 76 158 l 76 165 l 68 165 l 68 179 l 82 179 l 82 207 l 63 207 l 63 228 l 14 228 l 14 256 l -104 256 l -104 276 l -78 276 l -78 283 l 142 283 l 142 290 l 64 290 l 64 304 l 33 304 l 33 332 l 76 332 l 76 353 l 72 353 l 72 374 l 174 374 l 174 394 l 85 394 l 85 422 l 71 422 l 71 443 l 76 443 l 76 464 l 67 464 l 67 478 l 3 478 l 3 492 l 17 492 l 17 499 l -4 499 l -4 519 l 114 519 l 114 526 l 56 526 l 56 540 l 79 540 l 79 568 l 76 568 l 76 575 l 150 575 l 150 589 l 40 589 l 40 610 l 289 610 l 289 631 l 210 631 l 210 638 l 101 638 l 101 658 l 268 658 l 268 672 l 6 672 l 6 686 l 82 686 l 82 700 l 85 700 l 85 714 l 76 714 l 76 735 l 68 735 l 68 756 l 78 756 l 78 776 l 68 776 l 68 790 l 76 790 l 76 818 l 74 818 l 74 832 l 82 832 l 82 853 l 58 853 l 58 867 l 63 867 l 63 894 l 76 894 l 76 901 l 68 901 l 68 915 l 72 915 l 72 936 l 92 936 q 106 964 94 954 l 100 964 q 124 972 111 972 l 396 972 q 419 964 410 972 l 425 964 q 439 936 439 953 l 419 936 l 419 915 l 415 915 l 415 901 l 424 901 l 424 894 l 410 894 l 410 867 l 406 867 l 406 853 l 429 853 l 429 832 l 421 832 l 421 818 l 424 818 l 424 790 l 415 790 l 415 776 l 425 776 l 425 756 l 415 756 l 415 735 l 424 735 l 424 714 l 432 714 l 432 700 l 429 700 l 429 686 l 353 686 l 353 672 l 603 672 l 613 686 l 532 686 l 542 700 l 529 700 l 539 714 l 561 714 l 575 735 l 561 735 l 576 756 l 593 756 l 607 776 l 599 776 l 608 790 l 614 790 l 628 811 l 626 811 l 631 818 l 628 818 l 638 832 l 617 832 l 631 853 l 671 853 l 681 867 l 658 867 l 678 894 l 679 894 l 685 901 l 660 901 l 669 915 l 696 915 l 713 940 q 724 953 718 947 q 736 964 729 960 l 713 964 q 747 972 728 972 l 988 972 q 1011 964 1001 972 l 1033 964 q 1047 936 1047 953 l 1047 915 l 1021 915 l 1021 901 l 1046 901 l 1046 894 l 1043 894 l 1043 867 l 1065 867 l 1065 853 l 1025 853 l 1025 832 l 1046 832 l 1046 818 l 1049 818 l 1049 811 l 1050 811 l 1050 790 l 1044 790 l 1044 776 l 1053 776 l 1053 756 l 1036 756 l 1036 735 l 1050 735 l 1050 714 l 1028 714 l 1028 700 l 1040 700 l 1040 686 l 1119 686 l 1119 672 l 1154 672 l 1154 658 l 965 658 l 965 638 l 1107 638 l 1107 631 l 1118 631 l 1118 610 l 1256 610 l 1256 589 l 1108 589 l 1108 575 l 1076 575 l 1076 568 m 638 672 l 615 672 l 615 658 l 628 658 l 638 672 m 388 610 l 388 589 l 497 589 l 497 575 l 525 575 l 535 589 l 682 589 l 696 610 l 388 610 m 439 568 l 489 568 l 493 575 l 424 575 l 424 568 l 426 568 l 426 549 l 439 568 m 425 526 l 435 540 l 403 540 l 403 526 l 425 526 m 708 394 l 708 422 l 706 422 l 685 394 l 708 394 z "},"Й":{"ha":1125,"x_min":-104,"x_max":1256,"o":"m 1076 568 l 1028 568 l 1028 540 l 1042 540 l 1042 526 l 954 526 l 954 519 l 968 519 l 968 499 l 989 499 l 989 492 l 975 492 l 975 478 l 1039 478 l 1039 464 l 1049 464 l 1049 443 l 1043 443 l 1043 422 l 1056 422 l 1056 394 l 1019 394 l 1019 374 l 1139 374 l 1139 353 l 1079 353 l 1079 332 l 1028 332 l 1028 304 l 1044 304 l 1044 290 l 1106 290 l 1106 283 l 1031 283 l 1031 276 l 969 276 l 969 256 l 910 256 l 910 228 l 1131 228 l 1131 207 l 1047 207 l 1047 179 l 1058 179 l 1058 165 l 1032 165 l 1032 158 l 1047 158 l 1047 144 l 1050 144 l 1050 138 l 1056 138 l 1056 131 l 1031 131 l 1031 117 l 1050 117 l 1050 103 l 1049 103 l 1049 75 l 1029 75 l 1029 68 l 1049 68 l 1049 47 l 993 47 l 993 33 l 1050 33 q 1033 6 1047 14 l 1026 6 q 1006 0 1019 0 l 733 0 q 714 6 721 0 l 721 6 q 704 33 707 14 l 646 33 l 646 47 l 701 47 l 701 68 l 682 68 l 682 75 l 701 75 l 701 103 l 703 103 l 703 117 l 683 117 l 683 131 l 708 131 l 708 138 l 703 138 l 703 144 l 700 144 l 700 158 l 685 158 l 685 165 l 711 165 l 711 179 l 700 179 l 700 207 l 783 207 l 783 228 l 563 228 l 563 256 l 622 256 l 622 276 l 683 276 l 683 283 l 758 283 l 758 290 l 697 290 l 697 304 l 681 304 l 681 332 l 732 332 l 732 353 l 792 353 l 792 374 l 657 374 l 642 353 l 646 353 l 631 332 l 588 332 l 567 304 l 599 304 l 589 290 l 665 290 l 660 283 l 442 283 l 436 276 l 410 276 l 394 256 l 513 256 l 492 228 l 540 228 l 525 207 l 544 207 l 524 179 l 510 179 l 500 165 l 508 165 l 504 158 l 485 158 l 474 144 l 514 144 l 510 138 l 483 138 l 467 117 l 474 117 l 463 103 l 450 103 l 429 75 l 446 75 l 440 68 l 443 68 l 428 47 l 442 47 l 431 33 l 413 33 l 411 32 q 399 17 406 24 q 383 6 393 10 l 379 6 q 367 2 374 4 q 350 0 360 0 l 110 0 q 90 6 97 0 l 94 6 q 76 33 79 14 l 96 33 l 96 47 l 82 47 l 82 68 l 79 68 l 79 75 l 63 75 l 63 103 l 76 103 l 76 117 l 71 117 l 71 138 l 97 138 l 97 144 l 57 144 l 57 158 l 76 158 l 76 165 l 68 165 l 68 179 l 82 179 l 82 207 l 63 207 l 63 228 l 14 228 l 14 256 l -104 256 l -104 276 l -78 276 l -78 283 l 142 283 l 142 290 l 64 290 l 64 304 l 33 304 l 33 332 l 76 332 l 76 353 l 72 353 l 72 374 l 174 374 l 174 394 l 85 394 l 85 422 l 71 422 l 71 443 l 76 443 l 76 464 l 67 464 l 67 478 l 3 478 l 3 492 l 17 492 l 17 499 l -4 499 l -4 519 l 114 519 l 114 526 l 56 526 l 56 540 l 79 540 l 79 568 l 76 568 l 76 575 l 150 575 l 150 589 l 40 589 l 40 610 l 289 610 l 289 631 l 210 631 l 210 638 l 101 638 l 101 658 l 268 658 l 268 672 l 6 672 l 6 686 l 82 686 l 82 700 l 85 700 l 85 714 l 76 714 l 76 735 l 68 735 l 68 756 l 78 756 l 78 776 l 68 776 l 68 790 l 76 790 l 76 818 l 74 818 l 74 832 l 82 832 l 82 853 l 58 853 l 58 867 l 63 867 l 63 894 l 76 894 l 76 901 l 68 901 l 68 915 l 72 915 l 72 936 l 92 936 q 106 964 94 954 l 100 964 q 124 972 111 972 l 396 972 q 419 964 410 972 l 425 964 q 439 936 439 953 l 419 936 l 419 915 l 415 915 l 415 901 l 424 901 l 424 894 l 410 894 l 410 867 l 406 867 l 406 853 l 429 853 l 429 832 l 421 832 l 421 818 l 424 818 l 424 790 l 415 790 l 415 776 l 425 776 l 425 756 l 415 756 l 415 735 l 424 735 l 424 714 l 432 714 l 432 700 l 429 700 l 429 686 l 353 686 l 353 672 l 603 672 l 613 686 l 532 686 l 542 700 l 529 700 l 539 714 l 561 714 l 575 735 l 561 735 l 576 756 l 593 756 l 607 776 l 599 776 l 608 790 l 614 790 l 628 811 l 626 811 l 631 818 l 628 818 l 638 832 l 617 832 l 631 853 l 671 853 l 681 867 l 658 867 l 678 894 l 679 894 l 685 901 l 660 901 l 669 915 l 696 915 l 713 940 q 724 953 718 947 q 736 964 729 960 l 713 964 q 747 972 728 972 l 988 972 q 1011 964 1001 972 l 1033 964 q 1047 936 1047 953 l 1047 915 l 1021 915 l 1021 901 l 1046 901 l 1046 894 l 1043 894 l 1043 867 l 1065 867 l 1065 853 l 1025 853 l 1025 832 l 1046 832 l 1046 818 l 1049 818 l 1049 811 l 1050 811 l 1050 790 l 1044 790 l 1044 776 l 1053 776 l 1053 756 l 1036 756 l 1036 735 l 1050 735 l 1050 714 l 1028 714 l 1028 700 l 1040 700 l 1040 686 l 1119 686 l 1119 672 l 1154 672 l 1154 658 l 965 658 l 965 638 l 1107 638 l 1107 631 l 1118 631 l 1118 610 l 1256 610 l 1256 589 l 1108 589 l 1108 575 l 1076 575 l 1076 568 m 638 672 l 615 672 l 615 658 l 628 658 l 638 672 m 388 610 l 388 589 l 497 589 l 497 575 l 525 575 l 535 589 l 682 589 l 696 610 l 388 610 m 439 568 l 489 568 l 493 575 l 424 575 l 424 568 l 426 568 l 426 549 l 439 568 m 425 526 l 435 540 l 403 540 l 403 526 l 425 526 m 708 394 l 708 422 l 706 422 l 685 394 l 708 394 m 847 1214 q 845 1200 846 1207 q 842 1186 844 1193 l 839 1179 l 853 1179 q 851 1172 851 1176 q 847 1165 850 1168 l 817 1165 q 815 1158 815 1163 q 811 1151 814 1154 l 806 1151 l 797 1138 l 817 1138 q 811 1131 813 1133 l 781 1131 q 775 1124 779 1128 l 826 1124 q 815 1110 821 1115 l 760 1110 l 753 1103 l 683 1103 q 676 1096 681 1100 q 668 1089 672 1092 l 843 1089 q 828 1078 836 1083 q 813 1068 821 1074 l 651 1068 q 581 1040 619 1050 l 756 1040 q 737 1037 746 1039 q 718 1033 728 1035 l 636 1033 q 572 1029 607 1029 q 508 1033 538 1029 l 590 1033 q 572 1037 581 1035 q 553 1040 563 1039 l 379 1040 q 340 1053 358 1046 q 307 1068 322 1060 l 468 1068 q 452 1078 460 1074 q 438 1089 444 1083 l 264 1089 q 256 1096 260 1092 q 249 1103 251 1100 l 318 1103 l 311 1110 l 367 1110 q 356 1124 361 1118 l 306 1124 q 300 1131 304 1126 l 332 1131 l 328 1138 l 308 1138 q 306 1144 307 1140 q 301 1151 304 1149 l 307 1151 l 301 1165 l 332 1165 l 326 1179 l 313 1179 q 312 1183 313 1182 q 311 1186 311 1185 q 308 1200 310 1193 q 306 1214 307 1207 l 315 1214 l 314 1228 l 319 1228 q 318 1238 318 1233 q 318 1249 318 1243 l 281 1249 l 281 1251 q 283 1263 281 1257 l 349 1263 q 358 1274 351 1269 q 374 1278 364 1278 l 539 1278 q 563 1263 557 1278 l 497 1263 q 499 1251 499 1260 l 499 1249 l 536 1249 q 536 1238 536 1243 q 538 1228 536 1233 l 533 1228 l 538 1214 l 528 1214 q 576 1189 539 1189 q 625 1214 614 1189 l 626 1214 q 632 1228 629 1219 l 660 1228 q 662 1238 661 1233 q 663 1249 663 1243 l 610 1249 l 610 1251 q 613 1263 610 1257 l 658 1263 q 683 1278 667 1278 l 849 1278 q 872 1263 867 1278 l 825 1263 q 828 1251 828 1257 l 828 1249 l 881 1249 q 880 1238 881 1243 q 879 1228 879 1233 l 850 1228 q 850 1221 850 1225 q 849 1214 850 1217 l 847 1214 z "},"К":{"ha":1046,"x_min":24,"x_max":1047,"o":"m 924 19 q 913 6 919 10 l 971 6 q 954 0 964 0 l 638 0 q 622 2 628 0 q 608 6 615 4 l 550 6 q 531 19 536 13 l 653 19 q 643 32 646 26 l 638 40 l 619 40 l 603 68 l 607 68 l 600 82 l 611 82 l 607 89 l 599 89 l 590 103 l 589 103 l 585 110 l 589 110 l 574 138 l 617 138 l 608 151 l 572 151 l 557 179 l 539 179 l 528 200 l 571 200 l 563 214 l 533 214 l 526 228 l 518 228 l 511 242 l 514 242 l 499 269 l 515 269 l 500 297 l 550 297 l 542 311 l 419 311 l 417 318 l 392 318 l 392 311 l 410 311 l 410 297 l 424 297 l 424 269 l 425 269 l 425 242 l 418 242 l 418 228 l 436 228 l 436 214 l 450 214 l 450 200 l 422 200 l 422 179 l 425 179 l 425 151 l 408 151 l 408 138 l 421 138 l 421 110 l 428 110 l 428 103 l 438 103 l 438 89 l 429 89 l 429 82 l 421 82 l 421 40 l 469 40 l 469 38 q 465 19 469 28 l 440 19 q 428 6 435 10 l 415 6 q 396 0 408 0 l 124 0 q 103 6 110 0 l 115 6 q 103 19 108 10 l 126 19 q 122 38 122 28 l 122 40 l 74 40 l 74 82 l 82 82 l 82 89 l 90 89 l 90 103 l 81 103 l 81 110 l 74 110 l 74 138 l 61 138 l 61 151 l 78 151 l 78 179 l 75 179 l 75 200 l 103 200 l 103 214 l 89 214 l 89 228 l 71 228 l 71 242 l 78 242 l 78 269 l 76 269 l 76 297 l 63 297 l 63 311 l 44 311 l 44 318 l 160 318 l 160 339 l 111 339 l 111 367 l 68 367 l 68 374 l 78 374 l 78 394 l 50 394 l 50 401 l 68 401 l 68 429 l 50 429 l 50 457 l 78 457 l 78 464 l 76 464 l 76 485 l 61 485 l 61 506 l 50 506 l 50 526 l 76 526 l 76 533 l 115 533 l 115 547 l 89 547 l 89 575 l 88 575 l 88 596 l 64 596 l 64 617 l 40 617 l 40 644 l 33 644 l 33 672 l 86 672 l 86 700 l 76 700 l 76 707 l 144 707 l 144 728 l 218 728 l 218 742 l 50 742 l 50 756 l 110 756 l 110 776 l 76 776 l 76 797 l 90 797 l 90 818 l 82 818 l 82 832 l 75 832 l 75 839 l 78 839 l 78 867 l 76 867 l 76 888 l 79 888 l 79 908 l 24 908 l 24 929 l 26 929 l 26 935 q 29 950 26 942 l 72 950 l 76 957 l 83 957 q 114 972 94 972 l 386 972 q 417 957 406 972 l 410 957 l 414 950 l 371 950 q 374 935 374 942 l 374 929 l 371 929 l 371 908 l 426 908 l 426 888 l 424 888 l 424 867 l 425 867 l 425 839 l 422 839 l 422 832 l 429 832 l 429 818 l 438 818 l 438 797 l 424 797 l 424 776 l 457 776 l 457 756 l 397 756 l 397 742 l 479 742 l 488 756 l 501 756 l 513 776 l 506 776 l 517 797 l 554 797 l 565 818 l 544 818 l 553 832 l 547 832 l 551 839 l 567 867 l 572 867 l 585 888 l 535 888 l 546 908 l 626 908 l 638 929 l 617 929 l 624 942 q 629 950 626 947 l 624 950 q 627 954 625 953 q 631 957 629 956 l 651 957 q 669 968 658 964 q 696 972 681 972 l 1003 972 q 1029 957 1021 972 l 1007 957 q 1010 950 1010 951 l 1015 950 q 1017 942 1017 947 q 1014 929 1017 938 l 1035 929 q 1033 926 1035 928 l 1024 908 l 943 908 l 931 888 l 981 888 l 968 867 l 963 867 l 946 839 l 947 839 l 943 832 l 947 832 l 939 818 l 960 818 l 947 797 l 911 797 l 899 776 l 906 776 l 893 756 l 881 756 l 872 742 l 882 742 l 874 728 l 890 728 l 878 707 l 868 707 l 864 700 l 794 700 l 778 672 l 850 672 l 833 644 l 800 644 l 783 617 l 807 617 l 794 596 l 818 596 l 806 575 l 807 575 l 790 547 l 818 547 l 810 533 l 769 533 l 765 526 l 739 526 l 728 507 l 728 506 l 740 506 l 753 485 l 767 485 l 779 464 l 781 464 l 785 457 l 758 457 l 774 429 l 793 429 l 810 401 l 790 401 l 794 394 l 822 394 l 835 374 l 825 374 l 829 367 l 872 367 l 889 339 l 936 339 l 949 318 l 815 318 l 819 311 l 940 311 l 949 297 l 900 297 l 915 269 l 899 269 l 915 242 l 911 242 l 919 228 l 928 228 l 936 214 l 965 214 l 974 200 l 931 200 l 942 179 l 960 179 l 976 151 l 1013 151 l 1021 138 l 979 138 l 994 110 l 990 110 l 994 103 l 997 103 l 1006 89 l 1013 89 l 1017 82 l 1007 82 l 1015 68 l 1010 68 l 1024 46 q 1025 43 1025 44 q 1026 40 1025 42 l 1046 40 l 1047 31 q 1044 19 1047 25 l 924 19 m 499 728 l 492 728 l 492 715 l 499 728 m 478 707 l 424 707 l 424 700 l 474 700 l 478 707 m 381 672 l 381 644 l 388 644 l 388 643 l 410 643 l 410 644 l 444 644 l 460 672 l 381 672 m 507 318 l 550 318 l 540 338 l 507 338 l 507 318 z "},"Л":{"ha":1129,"x_min":14,"x_max":1235,"o":"m 1235 693 l 1160 693 l 1160 665 l 1200 665 l 1200 644 l 1049 644 l 1049 603 l 1050 603 l 1050 582 l 964 582 l 964 575 l 936 575 l 936 561 l 1003 561 l 1003 554 l 1050 554 l 1050 540 l 1058 540 l 1058 526 l 1068 526 l 1068 513 l 1053 513 l 1053 450 l 1050 450 l 1050 436 l 1042 436 l 1042 415 l 1018 415 l 1018 408 l 1068 408 l 1068 401 l 999 401 l 999 374 l 939 374 l 939 346 l 1107 346 l 1107 325 l 1103 325 l 1103 318 l 1004 318 l 1004 304 l 1053 304 l 1053 297 l 1068 297 l 1068 276 l 1063 276 l 1063 263 l 1061 263 l 1061 256 l 1063 256 l 1063 228 l 1053 228 l 1053 221 l 1044 221 l 1044 207 l 1036 207 l 1036 179 l 1058 179 l 1058 151 l 1053 151 l 1053 110 l 1065 110 l 1065 89 l 1101 89 l 1101 61 l 1043 61 l 1043 54 l 1040 54 l 1040 47 l 1053 47 l 1053 33 l 1007 33 q 989 6 1004 14 l 994 6 q 975 0 988 0 l 703 0 q 682 6 689 0 l 678 6 q 660 33 663 14 l 706 33 l 706 47 l 693 47 l 693 54 l 696 54 l 696 61 l 754 61 l 754 89 l 718 89 l 718 110 l 706 110 l 706 151 l 711 151 l 711 179 l 689 179 l 689 207 l 697 207 l 697 221 l 706 221 l 706 228 l 715 228 l 715 256 l 714 256 l 714 263 l 715 263 l 715 276 l 721 276 l 721 297 l 706 297 l 706 304 l 657 304 l 657 318 l 756 318 l 756 325 l 760 325 l 760 346 l 592 346 l 592 374 l 651 374 l 651 401 l 721 401 l 721 408 l 671 408 l 671 415 l 694 415 l 694 436 l 703 436 l 703 450 l 706 450 l 706 513 l 721 513 l 721 526 l 711 526 l 711 540 l 703 540 l 703 554 l 656 554 l 656 561 l 589 561 l 589 575 l 617 575 l 617 582 l 703 582 l 703 603 l 701 603 l 701 644 l 853 644 l 853 665 l 813 665 l 813 667 l 629 667 l 629 665 l 518 665 l 518 644 l 522 644 l 522 603 l 519 603 l 519 582 l 421 582 q 420 579 421 581 q 419 575 419 578 l 436 575 l 436 561 l 499 561 l 499 554 l 500 554 l 500 540 l 531 540 l 531 526 l 528 526 l 528 513 l 525 513 q 524 499 525 506 q 524 485 524 492 l 519 485 l 519 471 l 521 471 l 521 450 l 546 450 l 544 436 l 518 436 q 517 426 517 431 q 517 415 517 421 l 451 415 q 451 413 451 414 q 450 408 450 411 l 479 408 q 478 406 479 407 q 478 401 478 404 l 486 401 q 485 388 486 394 q 483 374 485 381 l 519 374 q 517 360 518 367 q 517 346 517 353 l 435 346 l 431 325 l 576 325 q 576 322 576 324 q 575 318 575 321 l 497 318 l 496 304 l 496 297 l 514 297 l 510 276 q 507 263 507 268 l 494 263 q 494 260 494 261 q 493 256 493 258 l 492 256 l 483 228 l 488 228 q 487 225 488 226 q 486 221 486 224 l 471 221 q 469 214 469 218 q 465 207 468 210 l 469 207 q 458 179 465 194 l 469 179 q 463 165 467 172 q 456 151 458 158 l 453 151 l 440 131 l 438 131 q 431 120 435 125 q 422 110 426 115 l 467 110 q 458 99 463 104 q 447 89 453 94 l 507 89 q 471 61 489 74 l 343 61 q 338 58 340 60 q 332 54 335 57 l 328 54 l 315 47 l 324 47 q 308 40 317 43 q 292 33 300 36 l 281 33 q 225 17 254 24 q 160 6 196 10 l 196 6 q 145 1 172 3 q 89 0 118 0 q 68 6 78 0 l 33 6 q 14 33 17 15 l 26 33 l 26 47 l 18 47 l 18 54 l 22 54 l 22 61 l 150 61 l 150 89 l 92 89 l 92 110 l 46 110 l 46 131 l 49 131 l 49 151 l 50 151 l 50 179 l 40 179 l 40 207 l 36 207 l 36 221 l 51 221 l 51 228 l 47 228 l 47 256 l 49 256 l 49 263 l 61 263 q 65 276 61 271 q 97 294 75 290 q 103 295 100 294 q 108 297 106 296 l 90 297 q 104 304 97 300 l 103 304 q 121 318 114 311 l 197 318 l 204 325 l 58 325 q 72 346 65 332 l 154 346 l 167 374 l 131 374 l 139 401 l 131 401 q 132 408 132 404 l 104 408 q 106 415 106 411 l 171 415 l 175 436 l 203 436 l 204 450 l 179 450 q 181 460 181 456 q 182 471 182 465 l 181 471 q 181 478 181 474 q 182 485 181 482 l 186 485 q 187 499 186 492 q 189 513 188 506 l 192 513 q 192 519 192 515 q 193 526 192 524 l 194 526 l 194 540 l 164 540 l 165 554 l 164 554 l 164 561 l 101 561 l 101 575 l 86 575 l 86 582 l 186 582 l 186 603 l 189 603 l 189 624 l 204 625 l 204 644 l 185 644 l 185 665 l 296 665 l 296 693 l 371 693 l 371 707 l 124 707 l 124 735 l 315 735 l 315 763 l 247 763 l 247 769 l 303 769 l 303 790 l 149 790 l 149 811 l 229 811 l 229 832 l 192 832 l 192 846 l 196 846 l 196 867 l 183 867 l 183 874 l 199 874 l 199 888 l 185 888 l 185 908 l 189 908 l 189 936 l 183 936 q 185 943 183 940 l 190 943 q 191 947 190 946 q 192 950 192 949 l 189 950 l 193 957 l 217 957 q 247 972 228 972 l 1036 972 q 1067 957 1056 972 l 1043 957 l 1047 950 l 1050 950 q 1051 947 1050 949 q 1051 943 1051 946 l 1047 943 l 1047 936 l 1053 936 l 1053 908 l 1049 908 l 1049 888 l 1063 888 l 1063 874 l 1047 874 l 1047 867 l 1060 867 l 1060 846 l 1056 846 l 1056 832 l 1093 832 l 1093 811 l 1013 811 l 1013 790 l 1167 790 l 1167 769 l 1111 769 l 1111 763 l 1179 763 l 1179 735 l 988 735 l 988 707 l 1235 707 l 1235 693 z "},"М":{"ha":1189,"x_min":-97,"x_max":1351,"o":"m 1351 332 l 1047 332 l 1047 318 l 1293 318 l 1293 290 l 1185 290 l 1185 283 l 1076 283 l 1076 263 l 1006 263 l 1006 242 l 975 242 l 975 221 l 829 221 l 829 193 l 1047 193 l 1047 165 l 936 165 l 936 151 l 1033 151 l 1033 138 l 1092 138 l 1092 117 l 1113 117 l 1113 96 l 1132 96 l 1132 82 l 1133 82 l 1133 54 l 1163 54 l 1163 47 l 1147 47 l 1147 40 l 1113 40 l 1113 33 l 1032 33 l 1028 19 l 985 19 q 972 6 979 10 l 1024 6 q 1004 0 1017 0 l 753 0 q 733 6 740 0 l 681 6 q 668 19 674 10 l 710 19 q 706 33 706 26 l 786 33 l 786 40 l 821 40 l 821 47 l 836 47 l 836 54 l 807 54 l 807 82 l 806 82 l 806 96 l 786 96 l 786 117 l 765 117 l 765 138 l 707 138 l 707 151 l 610 151 l 610 165 l 721 165 l 721 193 l 229 193 l 229 165 l 428 165 l 428 151 l 399 151 l 399 117 l 404 117 l 404 96 l 378 96 l 378 82 l 368 82 l 368 54 l 372 54 l 372 47 l 475 47 l 475 40 l 389 40 l 389 33 l 439 33 q 435 19 439 26 l 358 19 q 344 6 354 10 l 336 6 q 315 0 329 0 l 64 0 q 44 6 51 0 l 54 6 q 47 12 50 8 q 40 19 43 15 l 118 19 q 114 33 114 26 l 63 33 l 63 40 l 149 40 l 149 47 l 46 47 l 46 54 l 42 54 l 42 82 l 51 82 l 51 96 l 78 96 l 78 117 l 72 117 l 72 151 l 101 151 l 101 165 l -97 165 l -97 193 l 203 193 l 203 221 l -71 221 l -71 242 l -78 242 l -78 263 l 36 263 l 36 283 l 76 283 l 76 290 l -12 290 l -12 318 l 182 318 l 182 332 l 318 332 l 314 339 l 67 339 l 67 346 l 113 346 l 113 353 l 78 353 l 78 381 l 79 381 l 79 394 l 111 394 l 111 415 l 104 415 l 104 443 l 67 443 l 67 450 l -58 450 l -58 464 l 50 464 l 50 471 l 46 471 l 46 485 l 107 485 l 107 499 l 140 499 l 140 519 l -79 519 l -79 547 l 96 547 l 96 561 l -60 561 l -60 582 l 101 582 l 101 596 l 82 596 l 82 610 l 29 610 l 29 617 l 56 617 l 56 638 l 215 638 l 215 658 l 192 658 l 192 672 l 60 672 l 60 679 l 53 679 l 53 700 l 118 700 l 118 728 l -26 728 l -26 742 l 24 742 l 24 749 l 38 749 l 38 763 l 6 763 l 6 783 l 131 783 l 131 804 l 67 804 l 67 832 l 172 832 l 172 839 l 139 839 l 139 867 l 263 867 l 263 888 l -28 888 l -28 908 l 281 908 l 281 929 l 144 929 l 144 943 l 40 943 q 45 955 42 950 q 53 964 49 960 l 60 964 q 83 972 68 972 l 303 972 q 335 964 322 972 l 328 964 q 342 954 336 960 q 350 943 347 949 l 456 943 l 461 935 l 464 929 l 601 929 l 614 908 l 306 908 l 318 888 l 607 888 l 619 867 l 497 867 l 514 839 l 547 839 l 551 832 l 446 832 l 463 804 l 525 804 l 538 783 l 414 783 l 426 763 l 458 763 l 467 749 l 453 749 l 457 742 l 407 742 l 415 728 l 560 728 l 576 700 l 511 700 l 524 679 l 531 679 l 535 672 l 638 672 l 642 679 l 604 679 l 617 700 l 663 700 l 679 728 l 654 728 l 663 742 l 550 742 l 554 749 l 694 749 l 703 763 l 692 763 l 704 783 l 788 783 l 800 804 l 804 804 l 821 832 l 757 832 l 761 839 l 907 839 l 924 867 l 915 867 l 928 888 l 714 888 l 726 908 l 932 908 l 944 929 l 793 929 l 796 935 q 801 943 799 940 l 804 943 q 814 954 808 949 q 826 964 819 960 l 824 964 q 856 972 836 972 l 1075 972 q 1099 964 1089 972 l 1103 964 q 1110 955 1107 960 q 1115 943 1114 950 l 1113 943 l 1113 929 l 1265 929 l 1265 908 l 1060 908 l 1060 888 l 1274 888 l 1274 867 l 1282 867 l 1282 839 l 1136 839 l 1136 832 l 1200 832 l 1200 804 l 1196 804 l 1196 783 l 1113 783 l 1113 763 l 1124 763 l 1124 749 l 983 749 l 983 742 l 1096 742 l 1096 728 l 1121 728 l 1121 700 l 1076 700 l 1076 679 l 1113 679 l 1113 672 l 1178 672 l 1178 658 l 1035 658 l 1035 638 l 1138 638 l 1138 617 l 1113 617 l 1113 610 l 1118 610 l 1118 596 l 1138 596 l 1138 582 l 976 582 l 976 561 l 1132 561 l 1132 547 l 957 547 l 957 519 l 1176 519 l 1176 499 l 1143 499 l 1143 485 l 1082 485 l 1082 471 l 1086 471 l 1086 464 l 978 464 l 978 450 l 1103 450 l 1103 443 l 1140 443 l 1140 415 l 1108 415 l 1108 394 l 1085 394 l 1085 381 l 1113 381 l 1113 353 l 1125 353 l 1125 346 l 1185 346 l 1185 339 l 1351 339 l 1351 332 m 701 672 l 667 672 l 675 658 l 693 658 l 701 672 m 538 617 l 542 610 l 596 610 l 600 601 l 606 610 l 600 610 l 604 617 l 628 617 l 640 638 l 553 638 l 565 617 l 538 617 m 743 394 l 782 394 l 782 415 l 756 415 l 743 394 m 404 353 l 439 353 l 439 346 l 393 346 l 393 339 l 488 339 l 483 346 l 461 346 l 456 353 l 443 353 l 426 381 l 429 381 l 421 394 l 406 394 l 406 381 l 404 381 l 404 353 m 1025 332 l 1025 339 l 858 339 l 858 346 l 799 346 l 799 353 l 786 353 l 786 381 l 764 381 l 746 353 l 760 353 l 756 346 l 778 346 l 774 339 l 660 339 l 660 332 l 508 332 l 508 318 l 314 318 l 314 290 l 403 290 l 403 283 l 363 283 l 363 263 l 249 263 l 249 242 l 256 242 l 256 221 l 649 221 l 649 242 l 679 242 l 679 263 l 563 263 q 554 251 558 257 q 543 242 550 246 l 539 242 q 511 233 526 233 l 414 233 q 385 242 397 233 l 389 242 q 378 251 383 246 q 369 263 374 257 l 513 263 l 508 268 l 499 283 l 449 283 l 444 290 l 542 290 l 524 318 l 686 318 l 678 332 l 1025 332 m 967 290 l 967 318 l 785 318 l 768 290 l 672 290 l 668 283 l 718 283 l 708 268 l 704 263 l 750 263 l 750 283 l 858 283 l 858 290 l 967 290 z "}}}
